<svg xmlns="http://www.w3.org/2000/svg" xmlns:xlink="http://www.w3.org/1999/xlink" width="265" zoomAndPan="magnify" viewBox="0 0 198.75 84.749999" height="113" preserveAspectRatio="xMidYMid meet" version="1.2"><defs><filter x="0%" y="0%" width="100%" filterUnits="objectBoundingBox" id="1647c88ed1" height="100%"><feColorMatrix values="0 0 0 0 1 0 0 0 0 1 0 0 0 0 1 0 0 0 1 0" type="matrix" in="SourceGraphic"/></filter><clipPath id="842d17ee26"><path d="M 1 1 L 18 1 L 18 27 L 1 27 Z M 1 1 "/></clipPath><clipPath id="c51711593c"><path d="M 18.074219 2.460938 L 4.023438 27.046875 L 0.789062 25.199219 L 14.839844 0.613281 Z M 18.074219 2.460938 "/></clipPath><clipPath id="d8063f52bb"><path d="M 18.074219 2.460938 L 4.023438 27.046875 L 0.789062 25.199219 L 14.839844 0.613281 Z M 18.074219 2.460938 "/></clipPath><clipPath id="bda60adcd7"><rect x="0" width="19" y="0" height="28"/></clipPath><clipPath id="1f69abe786"><path d="M 1 1 L 18 1 L 18 26 L 1 26 Z M 1 1 "/></clipPath><clipPath id="2b4e99fd43"><path d="M 15.035156 26.855469 L 1.027344 2.242188 L 4.265625 0.398438 L 18.273438 25.011719 Z M 15.035156 26.855469 "/></clipPath><clipPath id="092c80fc19"><path d="M 15.035156 26.855469 L 1.027344 2.242188 L 4.265625 0.398438 L 18.273438 25.011719 Z M 15.035156 26.855469 "/></clipPath><clipPath id="e809fa29d6"><rect x="0" width="19" y="0" height="28"/></clipPath><clipPath id="efbd1ce82f"><path d="M 0.660156 0.789062 L 28.964844 0.789062 L 28.964844 4.515625 L 0.660156 4.515625 Z M 0.660156 0.789062 "/></clipPath><clipPath id="2dacb42e52"><rect x="0" width="30" y="0" height="5"/></clipPath></defs><g id="601fe8cd94"><g mask="url(#3a69578452)" transform="matrix(1,0,0,1,49,27)"><g clip-path="url(#bda60adcd7)"><g clip-rule="nonzero" clip-path="url(#842d17ee26)"><g clip-rule="nonzero" clip-path="url(#c51711593c)"><g clip-rule="nonzero" clip-path="url(#d8063f52bb)"><path style=" stroke:none;fill-rule:nonzero;fill:#004e7a;fill-opacity:1;" d="M 13.910156 2.25 C 12.359375 5.050781 10.808594 7.851562 9.261719 10.652344 C 7.71875 13.441406 6.175781 16.230469 4.636719 19.015625 C 3.765625 20.589844 2.894531 22.160156 2.027344 23.734375 C 1.800781 24.144531 1.714844 24.648438 1.816406 25.09375 C 1.863281 25.320312 1.957031 25.519531 2.101562 25.6875 C 2.222656 25.886719 2.382812 26.039062 2.589844 26.144531 C 2.976562 26.34375 3.445312 26.433594 3.886719 26.277344 C 4.324219 26.117188 4.71875 25.835938 4.953125 25.40625 C 6.503906 22.605469 8.054688 19.804688 9.601562 17.003906 C 11.144531 14.214844 12.6875 11.425781 14.226562 8.640625 C 15.097656 7.066406 15.964844 5.496094 16.835938 3.921875 C 17.0625 3.511719 17.148438 3.007812 17.042969 2.5625 C 17 2.332031 16.902344 2.136719 16.757812 1.96875 C 16.640625 1.769531 16.476562 1.617188 16.273438 1.511719 C 15.882812 1.3125 15.414062 1.222656 14.972656 1.378906 C 14.539062 1.539062 14.144531 1.820312 13.910156 2.25 Z M 13.910156 2.25 "/></g></g></g></g><mask id="3a69578452"><g filter="url(#1647c88ed1)"><rect x="0" width="198.75" y="0" height="84.749999" style="fill:#000000;fill-opacity:0.73;stroke:none;"/></g></mask></g><g mask="url(#6f697f9396)" transform="matrix(1,0,0,1,61,27)"><g clip-path="url(#e809fa29d6)"><g clip-rule="nonzero" clip-path="url(#1f69abe786)"><g clip-rule="nonzero" clip-path="url(#2b4e99fd43)"><g clip-rule="nonzero" clip-path="url(#092c80fc19)"><path style=" stroke:none;fill-rule:nonzero;fill:#11676a;fill-opacity:1;" d="M 17.339844 23.378906 C 15.714844 20.617188 14.09375 17.855469 12.472656 15.097656 C 10.855469 12.351562 9.242188 9.605469 7.628906 6.859375 C 6.71875 5.308594 5.808594 3.761719 4.898438 2.210938 C 4.660156 1.808594 4.269531 1.476562 3.832031 1.339844 C 3.613281 1.261719 3.394531 1.242188 3.175781 1.28125 C 2.945312 1.285156 2.730469 1.34375 2.535156 1.46875 C 2.167969 1.703125 1.847656 2.058594 1.761719 2.519531 C 1.675781 2.976562 1.71875 3.457031 1.964844 3.878906 C 3.589844 6.640625 5.210938 9.398438 6.832031 12.160156 C 8.449219 14.90625 10.0625 17.652344 11.675781 20.398438 C 12.585938 21.945312 13.496094 23.496094 14.40625 25.042969 C 14.644531 25.449219 15.035156 25.777344 15.472656 25.914062 C 15.691406 25.992188 15.910156 26.011719 16.128906 25.972656 C 16.359375 25.972656 16.574219 25.910156 16.769531 25.789062 C 17.140625 25.554688 17.457031 25.195312 17.542969 24.738281 C 17.628906 24.28125 17.585938 23.800781 17.339844 23.378906 Z M 17.339844 23.378906 "/></g></g></g></g><mask id="6f697f9396"><g filter="url(#1647c88ed1)"><rect x="0" width="198.75" y="0" height="84.749999" style="fill:#000000;fill-opacity:0.73;stroke:none;"/></g></mask></g><g mask="url(#3ab387c590)" transform="matrix(1,0,0,1,50,49)"><g clip-path="url(#2dacb42e52)"><g clip-rule="nonzero" clip-path="url(#efbd1ce82f)"><path style=" stroke:none;fill-rule:nonzero;fill:#401268;fill-opacity:1;" d="M 27.082031 0.792969 C 23.878906 0.835938 20.679688 0.882812 17.476562 0.925781 C 14.292969 0.96875 11.105469 1.015625 7.921875 1.058594 C 6.125 1.085938 4.328125 1.109375 2.53125 1.136719 C 2.0625 1.140625 1.582031 1.320312 1.25 1.628906 C 1.070312 1.78125 0.945312 1.960938 0.875 2.171875 C 0.761719 2.371094 0.707031 2.589844 0.71875 2.820312 C 0.738281 3.257812 0.890625 3.707031 1.25 4.011719 C 1.601562 4.3125 2.042969 4.515625 2.53125 4.507812 C 5.734375 4.460938 8.933594 4.417969 12.136719 4.375 C 15.320312 4.328125 18.503906 4.285156 21.691406 4.238281 C 23.488281 4.214844 25.285156 4.1875 27.082031 4.164062 C 27.550781 4.15625 28.03125 3.980469 28.363281 3.671875 C 28.539062 3.515625 28.664062 3.335938 28.738281 3.128906 C 28.851562 2.925781 28.90625 2.710938 28.894531 2.476562 C 28.875 2.042969 28.722656 1.589844 28.363281 1.285156 C 28.011719 0.984375 27.570312 0.785156 27.082031 0.792969 Z M 27.082031 0.792969 "/></g></g><mask id="3ab387c590"><g filter="url(#1647c88ed1)"><rect x="0" width="198.75" y="0" height="84.749999" style="fill:#000000;fill-opacity:0.67;stroke:none;"/></g></mask></g><g style="fill:#004e7a;fill-opacity:1;"><g transform="translate(81.226081, 39.753882)"><path style="stroke:none" d="M 7.96875 -1.84375 L 8.09375 -1.671875 L 7.953125 0 L 1.28125 0 L 1.40625 -3.171875 L 1.28125 -10.609375 L 8.015625 -10.609375 L 8.140625 -10.4375 L 7.984375 -8.765625 L 5.4375 -8.859375 L 3.53125 -8.828125 L 3.484375 -6.28125 L 5.3125 -6.25 L 7.03125 -6.296875 L 7.171875 -6.125 L 7.015625 -4.46875 L 5.140625 -4.515625 L 3.4375 -4.5 L 3.421875 -3.359375 L 3.484375 -1.765625 L 5.34375 -1.75 Z M 7.96875 -1.84375 "/></g></g><g style="fill:#004e7a;fill-opacity:1;"><g transform="translate(89.616787, 39.753882)"><path style="stroke:none" d="M 9.453125 -5.21875 L 9.421875 -3.828125 C 9.441406 -2.554688 9.078125 -1.578125 8.328125 -0.890625 C 7.578125 -0.203125 6.503906 0.140625 5.109375 0.140625 C 3.765625 0.140625 2.738281 -0.191406 2.03125 -0.859375 C 1.332031 -1.523438 1 -2.484375 1.03125 -3.734375 L 1.0625 -5.28125 L 1 -10.609375 L 3.25 -10.609375 L 3.125 -4.03125 C 3.113281 -3.226562 3.285156 -2.632812 3.640625 -2.25 C 3.992188 -1.875 4.523438 -1.6875 5.234375 -1.6875 C 6.671875 -1.6875 7.382812 -2.429688 7.375 -3.921875 L 7.25 -10.609375 L 9.53125 -10.609375 Z M 9.453125 -5.21875 "/></g></g><g style="fill:#11676a;fill-opacity:1;"><g transform="translate(100.141094, 39.753882)"><path style="stroke:none" d="M 10.0625 -3.28125 L 10.140625 0 L 7.734375 0 L 3.390625 -7.1875 L 3.265625 -7.1875 L 3.25 -3.65625 L 3.3125 0 L 1.28125 0 L 1.40625 -3.125 L 1.296875 -10.609375 L 3.6875 -10.609375 L 8.03125 -3.421875 L 8.171875 -3.421875 L 8.125 -10.515625 L 10.1875 -10.65625 Z M 10.0625 -3.28125 "/></g></g><g style="fill:#11676a;fill-opacity:1;"><g transform="translate(111.597956, 39.753882)"><path style="stroke:none" d="M 3.421875 -3.359375 L 3.53125 0 L 1.28125 0 L 1.40625 -3.171875 L 1.28125 -10.609375 L 3.5625 -10.609375 Z M 3.421875 -3.359375 "/></g></g><g style="fill:#11676a;fill-opacity:1;"><g transform="translate(116.460939, 39.753882)"><path style="stroke:none" d="M 8.0625 -10.4375 L 7.921875 -8.765625 L 5.9375 -8.875 L 5.28125 -8.875 L 5.1875 -3.359375 L 5.296875 0 L 3.046875 0 L 3.171875 -3.171875 L 3.078125 -8.875 L 2.421875 -8.875 L 0.390625 -8.765625 L 0.25 -8.953125 L 0.390625 -10.609375 L 7.921875 -10.609375 Z M 8.0625 -10.4375 "/></g></g><g style="fill:#401268;fill-opacity:1;"><g transform="translate(124.756623, 39.753882)"><path style="stroke:none" d="M 6.859375 -4.21875 C 7.710938 -2.851562 8.5625 -1.625 9.40625 -0.53125 L 9.375 -0.28125 C 8.664062 -0.03125 7.9375 0.117188 7.1875 0.171875 L 6.953125 -0.015625 C 6.160156 -1.378906 5.519531 -2.566406 5.03125 -3.578125 L 3.421875 -3.578125 L 3.421875 -3.359375 L 3.53125 0 L 1.28125 0 L 1.40625 -3.171875 L 1.28125 -10.609375 L 5.359375 -10.625 C 6.460938 -10.625 7.316406 -10.351562 7.921875 -9.8125 C 8.523438 -9.269531 8.828125 -8.492188 8.828125 -7.484375 C 8.828125 -6.804688 8.65625 -6.179688 8.3125 -5.609375 C 7.96875 -5.046875 7.484375 -4.582031 6.859375 -4.21875 Z M 3.46875 -5.3125 L 5.09375 -5.234375 C 6.03125 -5.554688 6.5 -6.234375 6.5 -7.265625 C 6.5 -7.828125 6.347656 -8.25 6.046875 -8.53125 C 5.742188 -8.8125 5.28125 -8.960938 4.65625 -8.984375 L 3.53125 -8.921875 Z M 3.46875 -5.3125 "/></g></g><g style="fill:#401268;fill-opacity:1;"><g transform="translate(134.48259, 39.753882)"><path style="stroke:none" d="M 9.625 0 L 7.359375 0 L 7.09375 -1.390625 L 6.8125 -2.375 L 4.734375 -2.421875 L 2.90625 -2.375 L 2.625 -1.5 L 2.34375 0 L 0.125 0 L 3.71875 -10.609375 L 6.375 -10.609375 Z M 6.328125 -4.109375 L 5.078125 -8.515625 L 4.921875 -8.515625 L 3.484375 -4.109375 L 4.890625 -4.078125 Z M 6.328125 -4.109375 "/></g></g><g style="fill:#004e7a;fill-opacity:1;"><g transform="translate(45.769986, 57.864542)"><path style="stroke:none" d="M 2.59375 0 L 1.984375 0 L 1.90625 -0.375 L 1.828125 -0.640625 L 1.28125 -0.65625 L 0.78125 -0.640625 L 0.703125 -0.40625 L 0.625 0 L 0.03125 0 L 1 -2.859375 L 1.71875 -2.859375 Z M 1.703125 -1.109375 L 1.359375 -2.296875 L 1.328125 -2.296875 L 0.9375 -1.109375 L 1.3125 -1.09375 Z M 1.703125 -1.109375 "/></g></g><g style="fill:#004e7a;fill-opacity:1;"><g transform="translate(49.827772, 57.864542)"><path style="stroke:none" d="M 1.125 -2.109375 C 1.21875 -2.109375 1.3125 -2.097656 1.40625 -2.078125 C 1.5 -2.054688 1.582031 -2.03125 1.65625 -2 L 1.5625 -1.515625 L 1.515625 -1.5 C 1.367188 -1.582031 1.234375 -1.625 1.109375 -1.625 C 0.972656 -1.625 0.867188 -1.570312 0.796875 -1.46875 C 0.722656 -1.375 0.6875 -1.238281 0.6875 -1.0625 C 0.6875 -0.851562 0.722656 -0.691406 0.796875 -0.578125 C 0.878906 -0.472656 1 -0.421875 1.15625 -0.421875 C 1.28125 -0.421875 1.425781 -0.457031 1.59375 -0.53125 L 1.640625 -0.5 L 1.578125 -0.046875 C 1.398438 0.015625 1.21875 0.046875 1.03125 0.046875 C 0.75 0.046875 0.523438 -0.046875 0.359375 -0.234375 C 0.203125 -0.421875 0.125 -0.675781 0.125 -1 C 0.125 -1.34375 0.210938 -1.613281 0.390625 -1.8125 C 0.566406 -2.007812 0.8125 -2.109375 1.125 -2.109375 Z M 1.125 -2.109375 "/></g></g><g style="fill:#004e7a;fill-opacity:1;"><g transform="translate(52.931039, 57.864542)"><path style="stroke:none" d="M 1.125 -2.109375 C 1.21875 -2.109375 1.3125 -2.097656 1.40625 -2.078125 C 1.5 -2.054688 1.582031 -2.03125 1.65625 -2 L 1.5625 -1.515625 L 1.515625 -1.5 C 1.367188 -1.582031 1.234375 -1.625 1.109375 -1.625 C 0.972656 -1.625 0.867188 -1.570312 0.796875 -1.46875 C 0.722656 -1.375 0.6875 -1.238281 0.6875 -1.0625 C 0.6875 -0.851562 0.722656 -0.691406 0.796875 -0.578125 C 0.878906 -0.472656 1 -0.421875 1.15625 -0.421875 C 1.28125 -0.421875 1.425781 -0.457031 1.59375 -0.53125 L 1.640625 -0.5 L 1.578125 -0.046875 C 1.398438 0.015625 1.21875 0.046875 1.03125 0.046875 C 0.75 0.046875 0.523438 -0.046875 0.359375 -0.234375 C 0.203125 -0.421875 0.125 -0.675781 0.125 -1 C 0.125 -1.34375 0.210938 -1.613281 0.390625 -1.8125 C 0.566406 -2.007812 0.8125 -2.109375 1.125 -2.109375 Z M 1.125 -2.109375 "/></g></g><g style="fill:#004e7a;fill-opacity:1;"><g transform="translate(56.034305, 57.864542)"><path style="stroke:none" d="M 1.875 -0.953125 L 0.671875 -0.953125 C 0.691406 -0.578125 0.878906 -0.390625 1.234375 -0.390625 C 1.421875 -0.390625 1.625 -0.441406 1.84375 -0.546875 L 1.890625 -0.515625 L 1.8125 -0.078125 C 1.582031 0.00390625 1.367188 0.046875 1.171875 0.046875 C 0.847656 0.046875 0.59375 -0.046875 0.40625 -0.234375 C 0.21875 -0.429688 0.125 -0.695312 0.125 -1.03125 C 0.125 -1.351562 0.210938 -1.613281 0.390625 -1.8125 C 0.578125 -2.007812 0.820312 -2.109375 1.125 -2.109375 C 1.394531 -2.109375 1.597656 -2.035156 1.734375 -1.890625 C 1.878906 -1.742188 1.953125 -1.539062 1.953125 -1.28125 C 1.953125 -1.21875 1.945312 -1.132812 1.9375 -1.03125 Z M 1.4375 -1.359375 C 1.4375 -1.472656 1.410156 -1.5625 1.359375 -1.625 C 1.304688 -1.6875 1.226562 -1.71875 1.125 -1.71875 C 1.007812 -1.71875 0.910156 -1.675781 0.828125 -1.59375 C 0.753906 -1.519531 0.707031 -1.414062 0.6875 -1.28125 L 1.4375 -1.296875 Z M 1.4375 -1.359375 "/></g></g><g style="fill:#004e7a;fill-opacity:1;"><g transform="translate(59.523822, 57.864542)"><path style="stroke:none" d="M 0.96875 -2.09375 C 1.164062 -2.09375 1.351562 -2.0625 1.53125 -2 L 1.453125 -1.5625 L 1.375 -1.546875 C 1.289062 -1.597656 1.207031 -1.640625 1.125 -1.671875 C 1.039062 -1.703125 0.960938 -1.71875 0.890625 -1.71875 C 0.828125 -1.71875 0.773438 -1.695312 0.734375 -1.65625 C 0.691406 -1.625 0.671875 -1.578125 0.671875 -1.515625 C 0.671875 -1.453125 0.695312 -1.398438 0.75 -1.359375 C 0.800781 -1.328125 0.882812 -1.289062 1 -1.25 C 1.125 -1.195312 1.222656 -1.144531 1.296875 -1.09375 C 1.378906 -1.050781 1.445312 -0.988281 1.5 -0.90625 C 1.550781 -0.832031 1.578125 -0.738281 1.578125 -0.625 C 1.578125 -0.507812 1.546875 -0.398438 1.484375 -0.296875 C 1.421875 -0.191406 1.328125 -0.109375 1.203125 -0.046875 C 1.085938 0.015625 0.9375 0.046875 0.75 0.046875 C 0.539062 0.046875 0.320312 0 0.09375 -0.09375 L 0.15625 -0.546875 L 0.21875 -0.578125 C 0.3125 -0.503906 0.410156 -0.441406 0.515625 -0.390625 C 0.628906 -0.347656 0.734375 -0.328125 0.828125 -0.328125 C 0.898438 -0.328125 0.957031 -0.347656 1 -0.390625 C 1.050781 -0.429688 1.078125 -0.476562 1.078125 -0.53125 C 1.078125 -0.59375 1.046875 -0.644531 0.984375 -0.6875 C 0.929688 -0.726562 0.847656 -0.769531 0.734375 -0.8125 C 0.609375 -0.863281 0.503906 -0.910156 0.421875 -0.953125 C 0.347656 -1.003906 0.285156 -1.066406 0.234375 -1.140625 C 0.179688 -1.222656 0.15625 -1.320312 0.15625 -1.4375 C 0.15625 -1.632812 0.226562 -1.789062 0.375 -1.90625 C 0.519531 -2.03125 0.71875 -2.09375 0.96875 -2.09375 Z M 0.96875 -2.09375 "/></g></g><g style="fill:#004e7a;fill-opacity:1;"><g transform="translate(62.622651, 57.864542)"><path style="stroke:none" d="M 0.96875 -2.09375 C 1.164062 -2.09375 1.351562 -2.0625 1.53125 -2 L 1.453125 -1.5625 L 1.375 -1.546875 C 1.289062 -1.597656 1.207031 -1.640625 1.125 -1.671875 C 1.039062 -1.703125 0.960938 -1.71875 0.890625 -1.71875 C 0.828125 -1.71875 0.773438 -1.695312 0.734375 -1.65625 C 0.691406 -1.625 0.671875 -1.578125 0.671875 -1.515625 C 0.671875 -1.453125 0.695312 -1.398438 0.75 -1.359375 C 0.800781 -1.328125 0.882812 -1.289062 1 -1.25 C 1.125 -1.195312 1.222656 -1.144531 1.296875 -1.09375 C 1.378906 -1.050781 1.445312 -0.988281 1.5 -0.90625 C 1.550781 -0.832031 1.578125 -0.738281 1.578125 -0.625 C 1.578125 -0.507812 1.546875 -0.398438 1.484375 -0.296875 C 1.421875 -0.191406 1.328125 -0.109375 1.203125 -0.046875 C 1.085938 0.015625 0.9375 0.046875 0.75 0.046875 C 0.539062 0.046875 0.320312 0 0.09375 -0.09375 L 0.15625 -0.546875 L 0.21875 -0.578125 C 0.3125 -0.503906 0.410156 -0.441406 0.515625 -0.390625 C 0.628906 -0.347656 0.734375 -0.328125 0.828125 -0.328125 C 0.898438 -0.328125 0.957031 -0.347656 1 -0.390625 C 1.050781 -0.429688 1.078125 -0.476562 1.078125 -0.53125 C 1.078125 -0.59375 1.046875 -0.644531 0.984375 -0.6875 C 0.929688 -0.726562 0.847656 -0.769531 0.734375 -0.8125 C 0.609375 -0.863281 0.503906 -0.910156 0.421875 -0.953125 C 0.347656 -1.003906 0.285156 -1.066406 0.234375 -1.140625 C 0.179688 -1.222656 0.15625 -1.320312 0.15625 -1.4375 C 0.15625 -1.632812 0.226562 -1.789062 0.375 -1.90625 C 0.519531 -2.03125 0.71875 -2.09375 0.96875 -2.09375 Z M 0.96875 -2.09375 "/></g></g><g style="fill:#004e7a;fill-opacity:1;"><g transform="translate(65.72148, 57.864542)"><path style="stroke:none" d="M 0.515625 -0.59375 C 0.609375 -0.59375 0.679688 -0.566406 0.734375 -0.515625 C 0.785156 -0.460938 0.8125 -0.390625 0.8125 -0.296875 C 0.8125 -0.191406 0.78125 -0.109375 0.71875 -0.046875 C 0.664062 0.00390625 0.59375 0.03125 0.5 0.03125 C 0.394531 0.03125 0.316406 0.00390625 0.265625 -0.046875 C 0.210938 -0.0976562 0.1875 -0.175781 0.1875 -0.28125 C 0.1875 -0.375 0.21875 -0.445312 0.28125 -0.5 C 0.34375 -0.5625 0.421875 -0.59375 0.515625 -0.59375 Z M 0.515625 -0.59375 "/></g></g><g style="fill:#004e7a;fill-opacity:1;"><g transform="translate(68.13217, 57.864542)"><path style="stroke:none" d=""/></g></g><g style="fill:#004e7a;fill-opacity:1;"><g transform="translate(70.196572, 57.864542)"><path style="stroke:none" d="M 2.171875 -2.8125 L 2.140625 -2.359375 L 1.59375 -2.390625 L 1.421875 -2.390625 L 1.390625 -0.90625 L 1.421875 0 L 0.828125 0 L 0.859375 -0.859375 L 0.828125 -2.390625 L 0.65625 -2.390625 L 0.109375 -2.359375 L 0.0625 -2.40625 L 0.109375 -2.859375 L 2.140625 -2.859375 Z M 2.171875 -2.8125 "/></g></g><g style="fill:#004e7a;fill-opacity:1;"><g transform="translate(73.823713, 57.864542)"><path style="stroke:none" d="M 1.40625 -2.0625 C 1.4375 -2.0625 1.472656 -2.0625 1.515625 -2.0625 L 1.515625 -1.515625 L 1.453125 -1.484375 C 1.410156 -1.503906 1.359375 -1.515625 1.296875 -1.515625 C 1.117188 -1.515625 0.960938 -1.40625 0.828125 -1.1875 L 0.828125 -0.90625 L 0.859375 0 L 0.265625 0 L 0.3125 -0.859375 L 0.28125 -2.03125 L 0.84375 -2.078125 L 0.828125 -1.671875 L 0.875 -1.671875 C 1.019531 -1.929688 1.195312 -2.0625 1.40625 -2.0625 Z M 1.40625 -2.0625 "/></g></g><g style="fill:#004e7a;fill-opacity:1;"><g transform="translate(76.762715, 57.864542)"><path style="stroke:none" d="M 1.078125 -2.109375 C 1.304688 -2.109375 1.484375 -2.054688 1.609375 -1.953125 C 1.742188 -1.847656 1.8125 -1.703125 1.8125 -1.515625 C 1.8125 -1.460938 1.800781 -1.296875 1.78125 -1.015625 C 1.78125 -0.929688 1.773438 -0.84375 1.765625 -0.75 C 1.765625 -0.664062 1.765625 -0.59375 1.765625 -0.53125 C 1.765625 -0.488281 1.769531 -0.457031 1.78125 -0.4375 C 1.800781 -0.414062 1.828125 -0.40625 1.859375 -0.40625 C 1.890625 -0.40625 1.929688 -0.410156 1.984375 -0.421875 L 2.03125 -0.390625 L 1.96875 -0.078125 C 1.875 -0.015625 1.765625 0.0195312 1.640625 0.03125 C 1.554688 0.0195312 1.484375 -0.0078125 1.421875 -0.0625 C 1.359375 -0.113281 1.316406 -0.1875 1.296875 -0.28125 L 1.28125 -0.28125 C 1.125 -0.125 0.96875 -0.015625 0.8125 0.046875 C 0.601562 0.0351562 0.4375 -0.0195312 0.3125 -0.125 C 0.195312 -0.238281 0.140625 -0.390625 0.140625 -0.578125 C 0.140625 -0.722656 0.175781 -0.835938 0.25 -0.921875 C 0.320312 -1.003906 0.4375 -1.0625 0.59375 -1.09375 L 1.265625 -1.21875 L 1.265625 -1.40625 C 1.265625 -1.59375 1.171875 -1.6875 0.984375 -1.6875 C 0.890625 -1.6875 0.789062 -1.664062 0.6875 -1.625 C 0.59375 -1.59375 0.476562 -1.53125 0.34375 -1.4375 L 0.3125 -1.46875 L 0.234375 -1.859375 C 0.367188 -1.929688 0.503906 -1.988281 0.640625 -2.03125 C 0.785156 -2.082031 0.929688 -2.109375 1.078125 -2.109375 Z M 0.796875 -0.828125 C 0.742188 -0.816406 0.707031 -0.796875 0.6875 -0.765625 C 0.664062 -0.734375 0.65625 -0.691406 0.65625 -0.640625 C 0.65625 -0.566406 0.675781 -0.503906 0.71875 -0.453125 C 0.757812 -0.410156 0.816406 -0.390625 0.890625 -0.390625 C 1.003906 -0.390625 1.125 -0.457031 1.25 -0.59375 L 1.265625 -0.921875 Z M 0.796875 -0.828125 "/></g></g><g style="fill:#004e7a;fill-opacity:1;"><g transform="translate(80.292183, 57.864542)"><path style="stroke:none" d="M 2 -0.90625 L 2 -0.53125 C 2 -0.488281 2.003906 -0.457031 2.015625 -0.4375 C 2.035156 -0.414062 2.0625 -0.40625 2.09375 -0.40625 C 2.125 -0.40625 2.164062 -0.410156 2.21875 -0.421875 L 2.265625 -0.390625 L 2.203125 -0.078125 C 2.109375 -0.015625 2 0.0195312 1.875 0.03125 C 1.789062 0.0195312 1.71875 -0.0078125 1.65625 -0.0625 C 1.59375 -0.113281 1.546875 -0.1875 1.515625 -0.28125 L 1.484375 -0.28125 C 1.335938 -0.144531 1.191406 -0.0390625 1.046875 0.03125 C 0.753906 0.03125 0.523438 -0.0625 0.359375 -0.25 C 0.203125 -0.4375 0.125 -0.691406 0.125 -1.015625 C 0.125 -1.367188 0.210938 -1.632812 0.390625 -1.8125 C 0.578125 -2 0.835938 -2.09375 1.171875 -2.09375 C 1.253906 -2.09375 1.347656 -2.085938 1.453125 -2.078125 L 1.4375 -3.078125 L 2.03125 -3.109375 Z M 1.125 -1.703125 C 0.832031 -1.703125 0.6875 -1.515625 0.6875 -1.140625 C 0.6875 -0.898438 0.71875 -0.722656 0.78125 -0.609375 C 0.851562 -0.492188 0.957031 -0.4375 1.09375 -0.4375 C 1.226562 -0.4375 1.347656 -0.492188 1.453125 -0.609375 L 1.46875 -0.859375 L 1.453125 -1.625 C 1.335938 -1.675781 1.226562 -1.703125 1.125 -1.703125 Z M 1.125 -1.703125 "/></g></g><g style="fill:#004e7a;fill-opacity:1;"><g transform="translate(84.021435, 57.864542)"><path style="stroke:none" d="M 1.875 -0.953125 L 0.671875 -0.953125 C 0.691406 -0.578125 0.878906 -0.390625 1.234375 -0.390625 C 1.421875 -0.390625 1.625 -0.441406 1.84375 -0.546875 L 1.890625 -0.515625 L 1.8125 -0.078125 C 1.582031 0.00390625 1.367188 0.046875 1.171875 0.046875 C 0.847656 0.046875 0.59375 -0.046875 0.40625 -0.234375 C 0.21875 -0.429688 0.125 -0.695312 0.125 -1.03125 C 0.125 -1.351562 0.210938 -1.613281 0.390625 -1.8125 C 0.578125 -2.007812 0.820312 -2.109375 1.125 -2.109375 C 1.394531 -2.109375 1.597656 -2.035156 1.734375 -1.890625 C 1.878906 -1.742188 1.953125 -1.539062 1.953125 -1.28125 C 1.953125 -1.21875 1.945312 -1.132812 1.9375 -1.03125 Z M 1.4375 -1.359375 C 1.4375 -1.472656 1.410156 -1.5625 1.359375 -1.625 C 1.304688 -1.6875 1.226562 -1.71875 1.125 -1.71875 C 1.007812 -1.71875 0.910156 -1.675781 0.828125 -1.59375 C 0.753906 -1.519531 0.707031 -1.414062 0.6875 -1.28125 L 1.4375 -1.296875 Z M 1.4375 -1.359375 "/></g></g><g style="fill:#004e7a;fill-opacity:1;"><g transform="translate(87.510952, 57.864542)"><path style="stroke:none" d="M 0.515625 -0.59375 C 0.609375 -0.59375 0.679688 -0.566406 0.734375 -0.515625 C 0.785156 -0.460938 0.8125 -0.390625 0.8125 -0.296875 C 0.8125 -0.191406 0.78125 -0.109375 0.71875 -0.046875 C 0.664062 0.00390625 0.59375 0.03125 0.5 0.03125 C 0.394531 0.03125 0.316406 0.00390625 0.265625 -0.046875 C 0.210938 -0.0976562 0.1875 -0.175781 0.1875 -0.28125 C 0.1875 -0.375 0.21875 -0.445312 0.28125 -0.5 C 0.34375 -0.5625 0.421875 -0.59375 0.515625 -0.59375 Z M 0.515625 -0.59375 "/></g></g><g style="fill:#004e7a;fill-opacity:1;"><g transform="translate(89.921642, 57.864542)"><path style="stroke:none" d=""/></g></g><g style="fill:#004e7a;fill-opacity:1;"><g transform="translate(91.986043, 57.864542)"><path style="stroke:none" d="M 1.265625 -2.890625 C 1.503906 -2.890625 1.742188 -2.84375 1.984375 -2.75 L 1.890625 -2.234375 L 1.796875 -2.1875 C 1.703125 -2.257812 1.597656 -2.316406 1.484375 -2.359375 C 1.378906 -2.398438 1.28125 -2.421875 1.1875 -2.421875 C 1.070312 -2.421875 0.976562 -2.390625 0.90625 -2.328125 C 0.832031 -2.265625 0.796875 -2.191406 0.796875 -2.109375 C 0.796875 -2.023438 0.832031 -1.953125 0.90625 -1.890625 C 0.988281 -1.828125 1.117188 -1.757812 1.296875 -1.6875 C 1.453125 -1.613281 1.582031 -1.539062 1.6875 -1.46875 C 1.789062 -1.40625 1.878906 -1.320312 1.953125 -1.21875 C 2.023438 -1.113281 2.0625 -0.988281 2.0625 -0.84375 C 2.0625 -0.675781 2.015625 -0.523438 1.921875 -0.390625 C 1.835938 -0.253906 1.710938 -0.144531 1.546875 -0.0625 C 1.378906 0.0078125 1.191406 0.046875 0.984375 0.046875 C 0.703125 0.046875 0.421875 -0.015625 0.140625 -0.140625 L 0.21875 -0.703125 L 0.28125 -0.734375 C 0.40625 -0.628906 0.535156 -0.550781 0.671875 -0.5 C 0.816406 -0.445312 0.941406 -0.421875 1.046875 -0.421875 C 1.179688 -0.421875 1.285156 -0.453125 1.359375 -0.515625 C 1.429688 -0.578125 1.46875 -0.648438 1.46875 -0.734375 C 1.46875 -0.835938 1.425781 -0.914062 1.34375 -0.96875 C 1.269531 -1.03125 1.144531 -1.101562 0.96875 -1.1875 C 0.8125 -1.257812 0.679688 -1.328125 0.578125 -1.390625 C 0.472656 -1.453125 0.382812 -1.53125 0.3125 -1.625 C 0.25 -1.726562 0.21875 -1.859375 0.21875 -2.015625 C 0.21875 -2.179688 0.257812 -2.328125 0.34375 -2.453125 C 0.4375 -2.585938 0.5625 -2.691406 0.71875 -2.765625 C 0.875 -2.847656 1.054688 -2.890625 1.265625 -2.890625 Z M 1.265625 -2.890625 "/></g></g><g style="fill:#004e7a;fill-opacity:1;"><g transform="translate(95.590988, 57.864542)"><path style="stroke:none" d="M 2.234375 -0.390625 L 2.1875 -0.078125 C 2.082031 -0.00390625 1.96875 0.03125 1.84375 0.03125 C 1.757812 0.0195312 1.6875 -0.0078125 1.625 -0.0625 C 1.570312 -0.113281 1.535156 -0.191406 1.515625 -0.296875 L 1.46875 -0.296875 C 1.300781 -0.128906 1.125 -0.0195312 0.9375 0.03125 C 0.71875 0.03125 0.546875 -0.0195312 0.421875 -0.125 C 0.304688 -0.226562 0.253906 -0.375 0.265625 -0.5625 L 0.265625 -1.09375 L 0.25 -2.03125 L 0.828125 -2.078125 L 0.8125 -0.765625 C 0.800781 -0.660156 0.816406 -0.582031 0.859375 -0.53125 C 0.910156 -0.476562 0.976562 -0.453125 1.0625 -0.453125 C 1.195312 -0.453125 1.328125 -0.507812 1.453125 -0.625 L 1.453125 -2.03125 L 2.015625 -2.078125 L 1.984375 -0.53125 C 1.984375 -0.488281 1.988281 -0.457031 2 -0.4375 C 2.019531 -0.414062 2.046875 -0.40625 2.078125 -0.40625 C 2.109375 -0.40625 2.148438 -0.410156 2.203125 -0.421875 Z M 2.234375 -0.390625 "/></g></g><g style="fill:#004e7a;fill-opacity:1;"><g transform="translate(99.30248, 57.864542)"><path style="stroke:none" d="M 0.96875 -2.09375 C 1.164062 -2.09375 1.351562 -2.0625 1.53125 -2 L 1.453125 -1.5625 L 1.375 -1.546875 C 1.289062 -1.597656 1.207031 -1.640625 1.125 -1.671875 C 1.039062 -1.703125 0.960938 -1.71875 0.890625 -1.71875 C 0.828125 -1.71875 0.773438 -1.695312 0.734375 -1.65625 C 0.691406 -1.625 0.671875 -1.578125 0.671875 -1.515625 C 0.671875 -1.453125 0.695312 -1.398438 0.75 -1.359375 C 0.800781 -1.328125 0.882812 -1.289062 1 -1.25 C 1.125 -1.195312 1.222656 -1.144531 1.296875 -1.09375 C 1.378906 -1.050781 1.445312 -0.988281 1.5 -0.90625 C 1.550781 -0.832031 1.578125 -0.738281 1.578125 -0.625 C 1.578125 -0.507812 1.546875 -0.398438 1.484375 -0.296875 C 1.421875 -0.191406 1.328125 -0.109375 1.203125 -0.046875 C 1.085938 0.015625 0.9375 0.046875 0.75 0.046875 C 0.539062 0.046875 0.320312 0 0.09375 -0.09375 L 0.15625 -0.546875 L 0.21875 -0.578125 C 0.3125 -0.503906 0.410156 -0.441406 0.515625 -0.390625 C 0.628906 -0.347656 0.734375 -0.328125 0.828125 -0.328125 C 0.898438 -0.328125 0.957031 -0.347656 1 -0.390625 C 1.050781 -0.429688 1.078125 -0.476562 1.078125 -0.53125 C 1.078125 -0.59375 1.046875 -0.644531 0.984375 -0.6875 C 0.929688 -0.726562 0.847656 -0.769531 0.734375 -0.8125 C 0.609375 -0.863281 0.503906 -0.910156 0.421875 -0.953125 C 0.347656 -1.003906 0.285156 -1.066406 0.234375 -1.140625 C 0.179688 -1.222656 0.15625 -1.320312 0.15625 -1.4375 C 0.15625 -1.632812 0.226562 -1.789062 0.375 -1.90625 C 0.519531 -2.03125 0.71875 -2.09375 0.96875 -2.09375 Z M 0.96875 -2.09375 "/></g></g><g style="fill:#004e7a;fill-opacity:1;"><g transform="translate(102.401309, 57.864542)"><path style="stroke:none" d="M 1.109375 -0.4375 C 1.203125 -0.4375 1.300781 -0.460938 1.40625 -0.515625 L 1.453125 -0.46875 L 1.390625 -0.109375 C 1.242188 -0.0351562 1.09375 0.0078125 0.9375 0.03125 C 0.53125 -0.0078125 0.328125 -0.207031 0.328125 -0.5625 L 0.359375 -0.921875 L 0.34375 -1.6875 L 0.078125 -1.6875 L 0.046875 -1.71875 L 0.078125 -2.046875 L 0.34375 -2.046875 L 0.34375 -2.390625 L 0.890625 -2.5625 L 0.921875 -2.53125 L 0.90625 -2.046875 L 1.4375 -2.046875 L 1.453125 -2.015625 L 1.421875 -1.6875 L 0.90625 -1.6875 L 0.875 -0.703125 C 0.875 -0.597656 0.890625 -0.523438 0.921875 -0.484375 C 0.960938 -0.453125 1.023438 -0.4375 1.109375 -0.4375 Z M 1.109375 -0.4375 "/></g></g><g style="fill:#004e7a;fill-opacity:1;"><g transform="translate(105.295918, 57.864542)"><path style="stroke:none" d="M 1.078125 -2.109375 C 1.304688 -2.109375 1.484375 -2.054688 1.609375 -1.953125 C 1.742188 -1.847656 1.8125 -1.703125 1.8125 -1.515625 C 1.8125 -1.460938 1.800781 -1.296875 1.78125 -1.015625 C 1.78125 -0.929688 1.773438 -0.84375 1.765625 -0.75 C 1.765625 -0.664062 1.765625 -0.59375 1.765625 -0.53125 C 1.765625 -0.488281 1.769531 -0.457031 1.78125 -0.4375 C 1.800781 -0.414062 1.828125 -0.40625 1.859375 -0.40625 C 1.890625 -0.40625 1.929688 -0.410156 1.984375 -0.421875 L 2.03125 -0.390625 L 1.96875 -0.078125 C 1.875 -0.015625 1.765625 0.0195312 1.640625 0.03125 C 1.554688 0.0195312 1.484375 -0.0078125 1.421875 -0.0625 C 1.359375 -0.113281 1.316406 -0.1875 1.296875 -0.28125 L 1.28125 -0.28125 C 1.125 -0.125 0.96875 -0.015625 0.8125 0.046875 C 0.601562 0.0351562 0.4375 -0.0195312 0.3125 -0.125 C 0.195312 -0.238281 0.140625 -0.390625 0.140625 -0.578125 C 0.140625 -0.722656 0.175781 -0.835938 0.25 -0.921875 C 0.320312 -1.003906 0.4375 -1.0625 0.59375 -1.09375 L 1.265625 -1.21875 L 1.265625 -1.40625 C 1.265625 -1.59375 1.171875 -1.6875 0.984375 -1.6875 C 0.890625 -1.6875 0.789062 -1.664062 0.6875 -1.625 C 0.59375 -1.59375 0.476562 -1.53125 0.34375 -1.4375 L 0.3125 -1.46875 L 0.234375 -1.859375 C 0.367188 -1.929688 0.503906 -1.988281 0.640625 -2.03125 C 0.785156 -2.082031 0.929688 -2.109375 1.078125 -2.109375 Z M 0.796875 -0.828125 C 0.742188 -0.816406 0.707031 -0.796875 0.6875 -0.765625 C 0.664062 -0.734375 0.65625 -0.691406 0.65625 -0.640625 C 0.65625 -0.566406 0.675781 -0.503906 0.71875 -0.453125 C 0.757812 -0.410156 0.816406 -0.390625 0.890625 -0.390625 C 1.003906 -0.390625 1.125 -0.457031 1.25 -0.59375 L 1.265625 -0.921875 Z M 0.796875 -0.828125 "/></g></g><g style="fill:#004e7a;fill-opacity:1;"><g transform="translate(108.825386, 57.864542)"><path style="stroke:none" d="M 0.3125 -0.859375 L 0.28125 -2.03125 L 0.875 -2.078125 L 0.84375 -0.90625 L 0.875 0 L 0.28125 0 Z M 0.59375 -3.078125 C 0.6875 -3.078125 0.757812 -3.050781 0.8125 -3 C 0.863281 -2.945312 0.890625 -2.867188 0.890625 -2.765625 C 0.890625 -2.671875 0.859375 -2.59375 0.796875 -2.53125 C 0.742188 -2.46875 0.664062 -2.4375 0.5625 -2.4375 C 0.46875 -2.4375 0.394531 -2.460938 0.34375 -2.515625 C 0.289062 -2.578125 0.265625 -2.65625 0.265625 -2.75 C 0.265625 -2.84375 0.289062 -2.921875 0.34375 -2.984375 C 0.40625 -3.046875 0.488281 -3.078125 0.59375 -3.078125 Z M 0.59375 -3.078125 "/></g></g><g style="fill:#004e7a;fill-opacity:1;"><g transform="translate(111.378143, 57.864542)"><path style="stroke:none" d="M 1.546875 -1.28125 C 1.546875 -1.382812 1.519531 -1.460938 1.46875 -1.515625 C 1.414062 -1.578125 1.347656 -1.609375 1.265625 -1.609375 C 1.128906 -1.609375 0.984375 -1.546875 0.828125 -1.421875 L 0.828125 -0.90625 L 0.859375 0 L 0.265625 0 L 0.296875 -0.859375 L 0.28125 -2.03125 L 0.84375 -2.078125 L 0.84375 -1.765625 L 0.875 -1.765625 C 1.03125 -1.921875 1.207031 -2.03125 1.40625 -2.09375 C 1.625 -2.09375 1.789062 -2.039062 1.90625 -1.9375 C 2.03125 -1.832031 2.085938 -1.6875 2.078125 -1.5 L 2.078125 -0.90625 L 2.09375 0 L 1.5 0 Z M 1.546875 -1.28125 "/></g></g><g style="fill:#004e7a;fill-opacity:1;"><g transform="translate(115.120712, 57.864542)"><path style="stroke:none" d="M 1.078125 -2.109375 C 1.304688 -2.109375 1.484375 -2.054688 1.609375 -1.953125 C 1.742188 -1.847656 1.8125 -1.703125 1.8125 -1.515625 C 1.8125 -1.460938 1.800781 -1.296875 1.78125 -1.015625 C 1.78125 -0.929688 1.773438 -0.84375 1.765625 -0.75 C 1.765625 -0.664062 1.765625 -0.59375 1.765625 -0.53125 C 1.765625 -0.488281 1.769531 -0.457031 1.78125 -0.4375 C 1.800781 -0.414062 1.828125 -0.40625 1.859375 -0.40625 C 1.890625 -0.40625 1.929688 -0.410156 1.984375 -0.421875 L 2.03125 -0.390625 L 1.96875 -0.078125 C 1.875 -0.015625 1.765625 0.0195312 1.640625 0.03125 C 1.554688 0.0195312 1.484375 -0.0078125 1.421875 -0.0625 C 1.359375 -0.113281 1.316406 -0.1875 1.296875 -0.28125 L 1.28125 -0.28125 C 1.125 -0.125 0.96875 -0.015625 0.8125 0.046875 C 0.601562 0.0351562 0.4375 -0.0195312 0.3125 -0.125 C 0.195312 -0.238281 0.140625 -0.390625 0.140625 -0.578125 C 0.140625 -0.722656 0.175781 -0.835938 0.25 -0.921875 C 0.320312 -1.003906 0.4375 -1.0625 0.59375 -1.09375 L 1.265625 -1.21875 L 1.265625 -1.40625 C 1.265625 -1.59375 1.171875 -1.6875 0.984375 -1.6875 C 0.890625 -1.6875 0.789062 -1.664062 0.6875 -1.625 C 0.59375 -1.59375 0.476562 -1.53125 0.34375 -1.4375 L 0.3125 -1.46875 L 0.234375 -1.859375 C 0.367188 -1.929688 0.503906 -1.988281 0.640625 -2.03125 C 0.785156 -2.082031 0.929688 -2.109375 1.078125 -2.109375 Z M 0.796875 -0.828125 C 0.742188 -0.816406 0.707031 -0.796875 0.6875 -0.765625 C 0.664062 -0.734375 0.65625 -0.691406 0.65625 -0.640625 C 0.65625 -0.566406 0.675781 -0.503906 0.71875 -0.453125 C 0.757812 -0.410156 0.816406 -0.390625 0.890625 -0.390625 C 1.003906 -0.390625 1.125 -0.457031 1.25 -0.59375 L 1.265625 -0.921875 Z M 0.796875 -0.828125 "/></g></g><g style="fill:#004e7a;fill-opacity:1;"><g transform="translate(118.65018, 57.864542)"><path style="stroke:none" d="M 1.390625 -2.09375 C 1.648438 -2.09375 1.847656 -2.003906 1.984375 -1.828125 C 2.117188 -1.648438 2.1875 -1.40625 2.1875 -1.09375 C 2.1875 -0.726562 2.09375 -0.445312 1.90625 -0.25 C 1.726562 -0.0507812 1.484375 0.046875 1.171875 0.046875 C 1.015625 0.046875 0.847656 0.0078125 0.671875 -0.0625 L 0.359375 0.046875 L 0.28125 0 L 0.3125 -0.84375 L 0.296875 -3.078125 L 0.875 -3.109375 L 0.859375 -1.765625 L 0.890625 -1.765625 C 0.972656 -1.847656 1.050781 -1.910156 1.125 -1.953125 C 1.207031 -2.003906 1.296875 -2.050781 1.390625 -2.09375 Z M 1.171875 -0.34375 C 1.316406 -0.34375 1.429688 -0.394531 1.515625 -0.5 C 1.597656 -0.601562 1.640625 -0.765625 1.640625 -0.984375 C 1.640625 -1.191406 1.601562 -1.347656 1.53125 -1.453125 C 1.46875 -1.554688 1.367188 -1.609375 1.234375 -1.609375 C 1.117188 -1.609375 0.992188 -1.546875 0.859375 -1.421875 L 0.84375 -0.921875 L 0.859375 -0.421875 C 0.960938 -0.367188 1.066406 -0.34375 1.171875 -0.34375 Z M 1.171875 -0.34375 "/></g></g><g style="fill:#004e7a;fill-opacity:1;"><g transform="translate(122.366115, 57.864542)"><path style="stroke:none" d="M 0.84375 -0.90625 L 0.875 0 L 0.28125 0 L 0.3125 -0.859375 L 0.296875 -3.078125 L 0.890625 -3.109375 Z M 0.84375 -0.90625 "/></g></g><g style="fill:#004e7a;fill-opacity:1;"><g transform="translate(124.927752, 57.864542)"><path style="stroke:none" d="M 1.875 -0.953125 L 0.671875 -0.953125 C 0.691406 -0.578125 0.878906 -0.390625 1.234375 -0.390625 C 1.421875 -0.390625 1.625 -0.441406 1.84375 -0.546875 L 1.890625 -0.515625 L 1.8125 -0.078125 C 1.582031 0.00390625 1.367188 0.046875 1.171875 0.046875 C 0.847656 0.046875 0.59375 -0.046875 0.40625 -0.234375 C 0.21875 -0.429688 0.125 -0.695312 0.125 -1.03125 C 0.125 -1.351562 0.210938 -1.613281 0.390625 -1.8125 C 0.578125 -2.007812 0.820312 -2.109375 1.125 -2.109375 C 1.394531 -2.109375 1.597656 -2.035156 1.734375 -1.890625 C 1.878906 -1.742188 1.953125 -1.539062 1.953125 -1.28125 C 1.953125 -1.21875 1.945312 -1.132812 1.9375 -1.03125 Z M 1.4375 -1.359375 C 1.4375 -1.472656 1.410156 -1.5625 1.359375 -1.625 C 1.304688 -1.6875 1.226562 -1.71875 1.125 -1.71875 C 1.007812 -1.71875 0.910156 -1.675781 0.828125 -1.59375 C 0.753906 -1.519531 0.707031 -1.414062 0.6875 -1.28125 L 1.4375 -1.296875 Z M 1.4375 -1.359375 "/></g></g><g style="fill:#004e7a;fill-opacity:1;"><g transform="translate(128.417269, 57.864542)"><path style="stroke:none" d=""/></g></g><g style="fill:#004e7a;fill-opacity:1;"><g transform="translate(130.48167, 57.864542)"><path style="stroke:none" d="M 1.609375 -2.890625 C 1.921875 -2.890625 2.203125 -2.832031 2.453125 -2.71875 L 2.328125 -2.171875 L 2.265625 -2.171875 C 2.117188 -2.253906 1.988281 -2.3125 1.875 -2.34375 C 1.757812 -2.382812 1.640625 -2.40625 1.515625 -2.40625 C 1.253906 -2.40625 1.0625 -2.328125 0.9375 -2.171875 C 0.8125 -2.015625 0.75 -1.753906 0.75 -1.390625 C 0.75 -1.160156 0.773438 -0.972656 0.828125 -0.828125 C 0.878906 -0.691406 0.957031 -0.59375 1.0625 -0.53125 C 1.175781 -0.46875 1.328125 -0.4375 1.515625 -0.4375 C 1.578125 -0.4375 1.632812 -0.441406 1.6875 -0.453125 C 1.738281 -0.460938 1.804688 -0.476562 1.890625 -0.5 L 1.890625 -1.1875 L 2.4375 -1.234375 L 2.421875 -0.828125 L 2.4375 -0.140625 C 2.082031 -0.015625 1.753906 0.046875 1.453125 0.046875 C 1.015625 0.046875 0.679688 -0.0703125 0.453125 -0.3125 C 0.234375 -0.5625 0.125 -0.910156 0.125 -1.359375 C 0.125 -1.859375 0.253906 -2.238281 0.515625 -2.5 C 0.773438 -2.757812 1.140625 -2.890625 1.609375 -2.890625 Z M 1.609375 -2.890625 "/></g></g><g style="fill:#004e7a;fill-opacity:1;"><g transform="translate(134.530577, 57.864542)"><path style="stroke:none" d="M 1.40625 -2.0625 C 1.4375 -2.0625 1.472656 -2.0625 1.515625 -2.0625 L 1.515625 -1.515625 L 1.453125 -1.484375 C 1.410156 -1.503906 1.359375 -1.515625 1.296875 -1.515625 C 1.117188 -1.515625 0.960938 -1.40625 0.828125 -1.1875 L 0.828125 -0.90625 L 0.859375 0 L 0.265625 0 L 0.3125 -0.859375 L 0.28125 -2.03125 L 0.84375 -2.078125 L 0.828125 -1.671875 L 0.875 -1.671875 C 1.019531 -1.929688 1.195312 -2.0625 1.40625 -2.0625 Z M 1.40625 -2.0625 "/></g></g><g style="fill:#004e7a;fill-opacity:1;"><g transform="translate(137.469579, 57.864542)"><path style="stroke:none" d="M 1.125 -2.109375 C 1.425781 -2.109375 1.65625 -2.019531 1.8125 -1.84375 C 1.976562 -1.664062 2.0625 -1.40625 2.0625 -1.0625 C 2.0625 -0.707031 1.972656 -0.429688 1.796875 -0.234375 C 1.628906 -0.046875 1.382812 0.046875 1.0625 0.046875 C 0.757812 0.046875 0.523438 -0.0390625 0.359375 -0.21875 C 0.203125 -0.394531 0.125 -0.648438 0.125 -0.984375 C 0.125 -1.347656 0.207031 -1.625 0.375 -1.8125 C 0.550781 -2.007812 0.800781 -2.109375 1.125 -2.109375 Z M 1.09375 -1.703125 C 0.945312 -1.703125 0.84375 -1.65625 0.78125 -1.5625 C 0.71875 -1.46875 0.6875 -1.316406 0.6875 -1.109375 C 0.6875 -0.835938 0.71875 -0.640625 0.78125 -0.515625 C 0.84375 -0.398438 0.945312 -0.34375 1.09375 -0.34375 C 1.238281 -0.34375 1.34375 -0.390625 1.40625 -0.484375 C 1.46875 -0.578125 1.5 -0.734375 1.5 -0.953125 C 1.5 -1.222656 1.460938 -1.414062 1.390625 -1.53125 C 1.328125 -1.644531 1.226562 -1.703125 1.09375 -1.703125 Z M 1.09375 -1.703125 "/></g></g><g style="fill:#004e7a;fill-opacity:1;"><g transform="translate(141.056769, 57.864542)"><path style="stroke:none" d="M 0.640625 -1.75 L 0.890625 -0.59375 L 0.9375 -0.59375 L 1.25 -1.71875 L 1.3125 -2.0625 L 1.890625 -2.0625 L 1.9375 -1.75 L 2.1875 -0.59375 L 2.234375 -0.59375 L 2.53125 -1.71875 L 2.59375 -2.0625 L 3.09375 -2.0625 L 2.453125 0 L 1.90625 0 L 1.578125 -1.328125 L 1.546875 -1.328125 L 1.171875 0 L 0.59375 0 L 0.0625 -2.046875 L 0.59375 -2.078125 Z M 0.640625 -1.75 "/></g></g><g style="fill:#004e7a;fill-opacity:1;"><g transform="translate(145.549631, 57.864542)"><path style="stroke:none" d="M 1.109375 -0.4375 C 1.203125 -0.4375 1.300781 -0.460938 1.40625 -0.515625 L 1.453125 -0.46875 L 1.390625 -0.109375 C 1.242188 -0.0351562 1.09375 0.0078125 0.9375 0.03125 C 0.53125 -0.0078125 0.328125 -0.207031 0.328125 -0.5625 L 0.359375 -0.921875 L 0.34375 -1.6875 L 0.078125 -1.6875 L 0.046875 -1.71875 L 0.078125 -2.046875 L 0.34375 -2.046875 L 0.34375 -2.390625 L 0.890625 -2.5625 L 0.921875 -2.53125 L 0.90625 -2.046875 L 1.4375 -2.046875 L 1.453125 -2.015625 L 1.421875 -1.6875 L 0.90625 -1.6875 L 0.875 -0.703125 C 0.875 -0.597656 0.890625 -0.523438 0.921875 -0.484375 C 0.960938 -0.453125 1.023438 -0.4375 1.109375 -0.4375 Z M 1.109375 -0.4375 "/></g></g><g style="fill:#004e7a;fill-opacity:1;"><g transform="translate(148.444234, 57.864542)"><path style="stroke:none" d="M 1.5625 -1.28125 C 1.5625 -1.394531 1.535156 -1.476562 1.484375 -1.53125 C 1.441406 -1.582031 1.375 -1.609375 1.28125 -1.609375 C 1.144531 -1.609375 1.003906 -1.546875 0.859375 -1.421875 L 0.84375 -0.90625 L 0.875 0 L 0.28125 0 L 0.3125 -0.859375 L 0.296875 -3.078125 L 0.890625 -3.109375 L 0.859375 -1.765625 L 0.890625 -1.765625 C 1.046875 -1.921875 1.222656 -2.03125 1.421875 -2.09375 C 1.648438 -2.09375 1.820312 -2.039062 1.9375 -1.9375 C 2.050781 -1.832031 2.109375 -1.6875 2.109375 -1.5 L 2.09375 -0.90625 L 2.109375 0 L 1.53125 0 Z M 1.5625 -1.28125 "/></g></g><g style="fill:#004e7a;fill-opacity:1;"><g transform="translate(152.204563, 57.864542)"><path style="stroke:none" d="M 0.515625 -0.59375 C 0.609375 -0.59375 0.679688 -0.566406 0.734375 -0.515625 C 0.785156 -0.460938 0.8125 -0.390625 0.8125 -0.296875 C 0.8125 -0.191406 0.78125 -0.109375 0.71875 -0.046875 C 0.664062 0.00390625 0.59375 0.03125 0.5 0.03125 C 0.394531 0.03125 0.316406 0.00390625 0.265625 -0.046875 C 0.210938 -0.0976562 0.1875 -0.175781 0.1875 -0.28125 C 0.1875 -0.375 0.21875 -0.445312 0.28125 -0.5 C 0.34375 -0.5625 0.421875 -0.59375 0.515625 -0.59375 Z M 0.515625 -0.59375 "/></g></g><g style="fill:#004e7a;fill-opacity:1;"><g transform="translate(89.662512, 49.292013)"><path style="stroke:none" d="M 2.5625 -4.96875 C 3.03125 -4.96875 3.457031 -4.867188 3.84375 -4.671875 L 3.65625 -3.796875 L 3.578125 -3.765625 C 3.421875 -3.867188 3.25 -3.953125 3.0625 -4.015625 C 2.882812 -4.078125 2.703125 -4.109375 2.515625 -4.109375 C 1.703125 -4.109375 1.296875 -3.578125 1.296875 -2.515625 C 1.296875 -1.941406 1.398438 -1.507812 1.609375 -1.21875 C 1.828125 -0.9375 2.140625 -0.796875 2.546875 -0.796875 C 2.734375 -0.796875 2.925781 -0.820312 3.125 -0.875 C 3.320312 -0.9375 3.503906 -1.019531 3.671875 -1.125 L 3.765625 -1.078125 L 3.671875 -0.203125 C 3.285156 -0.0234375 2.878906 0.0625 2.453125 0.0625 C 1.722656 0.0625 1.164062 -0.144531 0.78125 -0.5625 C 0.40625 -0.988281 0.21875 -1.601562 0.21875 -2.40625 C 0.21875 -3.21875 0.421875 -3.847656 0.828125 -4.296875 C 1.234375 -4.742188 1.8125 -4.96875 2.5625 -4.96875 Z M 2.5625 -4.96875 "/></g></g><g style="fill:#004e7a;fill-opacity:1;"><g transform="translate(93.5972, 49.292013)"><path style="stroke:none" d="M 2.53125 -4.96875 C 3.21875 -4.96875 3.75 -4.757812 4.125 -4.34375 C 4.5 -3.925781 4.6875 -3.332031 4.6875 -2.5625 C 4.6875 -1.71875 4.484375 -1.066406 4.078125 -0.609375 C 3.671875 -0.148438 3.097656 0.078125 2.359375 0.078125 C 1.671875 0.078125 1.140625 -0.132812 0.765625 -0.5625 C 0.398438 -0.988281 0.21875 -1.597656 0.21875 -2.390625 C 0.21875 -3.210938 0.414062 -3.847656 0.8125 -4.296875 C 1.21875 -4.742188 1.789062 -4.96875 2.53125 -4.96875 Z M 2.4375 -4.140625 C 2.03125 -4.140625 1.734375 -4.007812 1.546875 -3.75 C 1.367188 -3.5 1.28125 -3.085938 1.28125 -2.515625 C 1.28125 -1.859375 1.367188 -1.390625 1.546875 -1.109375 C 1.734375 -0.835938 2.035156 -0.703125 2.453125 -0.703125 C 2.859375 -0.703125 3.148438 -0.828125 3.328125 -1.078125 C 3.515625 -1.335938 3.609375 -1.757812 3.609375 -2.34375 C 3.609375 -2.988281 3.515625 -3.445312 3.328125 -3.71875 C 3.148438 -4 2.851562 -4.140625 2.4375 -4.140625 Z M 2.4375 -4.140625 "/></g></g><g style="fill:#004e7a;fill-opacity:1;"><g transform="translate(98.490826, 49.292013)"><path style="stroke:none" d="M 4.640625 -1.515625 L 4.6875 0 L 3.5625 0 L 1.5625 -3.3125 L 1.5 -3.3125 L 1.5 -1.6875 L 1.53125 0 L 0.59375 0 L 0.640625 -1.453125 L 0.59375 -4.90625 L 1.703125 -4.90625 L 3.703125 -1.578125 L 3.78125 -1.578125 L 3.75 -4.859375 L 4.703125 -4.921875 Z M 4.640625 -1.515625 "/></g></g><g style="fill:#004e7a;fill-opacity:1;"><g transform="translate(103.780205, 49.292013)"><path style="stroke:none" d="M 2.171875 -4.96875 C 2.585938 -4.96875 3 -4.878906 3.40625 -4.703125 L 3.234375 -3.8125 L 3.09375 -3.765625 C 2.914062 -3.878906 2.734375 -3.972656 2.546875 -4.046875 C 2.367188 -4.117188 2.203125 -4.15625 2.046875 -4.15625 C 1.847656 -4.15625 1.6875 -4.097656 1.5625 -3.984375 C 1.4375 -3.878906 1.375 -3.753906 1.375 -3.609375 C 1.375 -3.460938 1.441406 -3.335938 1.578125 -3.234375 C 1.710938 -3.140625 1.925781 -3.023438 2.21875 -2.890625 C 2.5 -2.753906 2.722656 -2.628906 2.890625 -2.515625 C 3.066406 -2.410156 3.21875 -2.269531 3.34375 -2.09375 C 3.46875 -1.914062 3.53125 -1.703125 3.53125 -1.453125 C 3.53125 -1.171875 3.453125 -0.910156 3.296875 -0.671875 C 3.148438 -0.441406 2.9375 -0.257812 2.65625 -0.125 C 2.375 0 2.050781 0.0625 1.6875 0.0625 C 1.207031 0.0625 0.722656 -0.0390625 0.234375 -0.25 L 0.375 -1.203125 L 0.5 -1.265625 C 0.695312 -1.085938 0.914062 -0.953125 1.15625 -0.859375 C 1.394531 -0.765625 1.609375 -0.71875 1.796875 -0.71875 C 2.023438 -0.71875 2.203125 -0.769531 2.328125 -0.875 C 2.453125 -0.988281 2.515625 -1.117188 2.515625 -1.265625 C 2.515625 -1.429688 2.445312 -1.5625 2.3125 -1.65625 C 2.175781 -1.757812 1.957031 -1.882812 1.65625 -2.03125 C 1.382812 -2.15625 1.160156 -2.269531 0.984375 -2.375 C 0.816406 -2.476562 0.671875 -2.617188 0.546875 -2.796875 C 0.421875 -2.972656 0.359375 -3.191406 0.359375 -3.453125 C 0.359375 -3.734375 0.4375 -3.988281 0.59375 -4.21875 C 0.75 -4.445312 0.960938 -4.628906 1.234375 -4.765625 C 1.503906 -4.898438 1.816406 -4.96875 2.171875 -4.96875 Z M 2.171875 -4.96875 "/></g></g><g style="fill:#004e7a;fill-opacity:1;"><g transform="translate(107.570291, 49.292013)"><path style="stroke:none" d="M 4.359375 -2.40625 L 4.359375 -1.765625 C 4.359375 -1.179688 4.1875 -0.726562 3.84375 -0.40625 C 3.5 -0.09375 3.003906 0.0625 2.359375 0.0625 C 1.742188 0.0625 1.269531 -0.0859375 0.9375 -0.390625 C 0.613281 -0.703125 0.460938 -1.148438 0.484375 -1.734375 L 0.484375 -2.4375 L 0.46875 -4.90625 L 1.5 -4.90625 L 1.453125 -1.859375 C 1.441406 -1.492188 1.515625 -1.222656 1.671875 -1.046875 C 1.835938 -0.867188 2.085938 -0.78125 2.421875 -0.78125 C 3.078125 -0.78125 3.40625 -1.125 3.40625 -1.8125 L 3.34375 -4.90625 L 4.390625 -4.90625 Z M 4.359375 -2.40625 "/></g></g><g style="fill:#004e7a;fill-opacity:1;"><g transform="translate(112.425864, 49.292013)"><path style="stroke:none" d="M 3.28125 -0.765625 L 3.21875 0 L 0.5625 0 L 0.609375 -1.46875 L 0.5625 -4.90625 L 1.609375 -4.90625 L 1.546875 -1.546875 L 1.578125 -0.859375 L 3.21875 -0.859375 Z M 3.28125 -0.765625 "/></g></g><g style="fill:#004e7a;fill-opacity:1;"><g transform="translate(115.721257, 49.292013)"><path style="stroke:none" d="M 3.71875 -4.8125 L 3.65625 -4.046875 L 2.734375 -4.09375 L 2.4375 -4.09375 L 2.390625 -1.546875 L 2.4375 0 L 1.40625 0 L 1.46875 -1.46875 L 1.421875 -4.09375 L 1.125 -4.09375 L 0.1875 -4.046875 L 0.109375 -4.125 L 0.1875 -4.90625 L 3.65625 -4.90625 Z M 3.71875 -4.8125 "/></g></g><g style="fill:#004e7a;fill-opacity:1;"><g transform="translate(119.549398, 49.292013)"><path style="stroke:none" d="M 4.4375 0 L 3.390625 0 L 3.265625 -0.640625 L 3.140625 -1.09375 L 2.1875 -1.125 L 1.34375 -1.09375 L 1.203125 -0.6875 L 1.078125 0 L 0.0625 0 L 1.71875 -4.90625 L 2.9375 -4.90625 Z M 2.921875 -1.890625 L 2.34375 -3.9375 L 2.28125 -3.9375 L 1.609375 -1.890625 L 2.265625 -1.875 Z M 2.921875 -1.890625 "/></g></g><g style="fill:#004e7a;fill-opacity:1;"><g transform="translate(124.115767, 49.292013)"><path style="stroke:none" d="M 4.640625 -1.515625 L 4.6875 0 L 3.5625 0 L 1.5625 -3.3125 L 1.5 -3.3125 L 1.5 -1.6875 L 1.53125 0 L 0.59375 0 L 0.640625 -1.453125 L 0.59375 -4.90625 L 1.703125 -4.90625 L 3.703125 -1.578125 L 3.78125 -1.578125 L 3.75 -4.859375 L 4.703125 -4.921875 Z M 4.640625 -1.515625 "/></g></g><g style="fill:#004e7a;fill-opacity:1;"><g transform="translate(129.405145, 49.292013)"><path style="stroke:none" d="M 2.5625 -4.96875 C 3.03125 -4.96875 3.457031 -4.867188 3.84375 -4.671875 L 3.65625 -3.796875 L 3.578125 -3.765625 C 3.421875 -3.867188 3.25 -3.953125 3.0625 -4.015625 C 2.882812 -4.078125 2.703125 -4.109375 2.515625 -4.109375 C 1.703125 -4.109375 1.296875 -3.578125 1.296875 -2.515625 C 1.296875 -1.941406 1.398438 -1.507812 1.609375 -1.21875 C 1.828125 -0.9375 2.140625 -0.796875 2.546875 -0.796875 C 2.734375 -0.796875 2.925781 -0.820312 3.125 -0.875 C 3.320312 -0.9375 3.503906 -1.019531 3.671875 -1.125 L 3.765625 -1.078125 L 3.671875 -0.203125 C 3.285156 -0.0234375 2.878906 0.0625 2.453125 0.0625 C 1.722656 0.0625 1.164062 -0.144531 0.78125 -0.5625 C 0.40625 -0.988281 0.21875 -1.601562 0.21875 -2.40625 C 0.21875 -3.21875 0.421875 -3.847656 0.828125 -4.296875 C 1.234375 -4.742188 1.8125 -4.96875 2.5625 -4.96875 Z M 2.5625 -4.96875 "/></g></g><g style="fill:#004e7a;fill-opacity:1;"><g transform="translate(133.339833, 49.292013)"><path style="stroke:none" d="M 2.53125 -1.359375 L 2.578125 0 L 1.546875 0 L 1.59375 -1.359375 L 1.59375 -1.65625 L 0.03125 -4.90625 L 1.125 -4.90625 L 1.234375 -4.5625 L 2.0625 -2.6875 L 2.125 -2.6875 L 3.0625 -4.53125 L 3.203125 -4.90625 L 4.265625 -4.90625 L 2.546875 -1.6875 Z M 2.53125 -1.359375 "/></g></g></g></svg>