<svg xmlns="http://www.w3.org/2000/svg" xmlns:xlink="http://www.w3.org/1999/xlink" width="500" zoomAndPan="magnify" viewBox="0 0 375 374.999991" height="500" preserveAspectRatio="xMidYMid meet" version="1.2"><defs><filter x="0%" y="0%" width="100%" filterUnits="objectBoundingBox" id="53039f7bad" height="100%"><feColorMatrix values="0 0 0 0 1 0 0 0 0 1 0 0 0 0 1 0 0 0 1 0" type="matrix" in="SourceGraphic"/></filter><clipPath id="66c0698239"><path d="M 3 3 L 51 3 L 51 80 L 3 80 Z M 3 3 "/></clipPath><clipPath id="de094b766a"><path d="M 53.671875 7.003906 L 11.25 81.238281 L 0.828125 75.28125 L 43.25 1.050781 Z M 53.671875 7.003906 "/></clipPath><clipPath id="a8592cdb68"><path d="M 53.671875 7.003906 L 11.25 81.238281 L 0.828125 75.28125 L 43.25 1.050781 Z M 53.671875 7.003906 "/></clipPath><clipPath id="5e082bfcd4"><rect x="0" width="54" y="0" height="82"/></clipPath><clipPath id="bac47e0b66"><path d="M 3 3 L 52 3 L 52 79 L 3 79 Z M 3 3 "/></clipPath><clipPath id="1ebf61409b"><path d="M 43.410156 80.863281 L 1.117188 6.554688 L 11.546875 0.617188 L 53.839844 74.925781 Z M 43.410156 80.863281 "/></clipPath><clipPath id="702f84e195"><path d="M 43.410156 80.863281 L 1.117188 6.554688 L 11.546875 0.617188 L 53.839844 74.925781 Z M 43.410156 80.863281 "/></clipPath><clipPath id="f4a60c6116"><rect x="0" width="55" y="0" height="82"/></clipPath><clipPath id="05c239d27e"><path d="M 0.671875 0.835938 L 86.171875 0.835938 L 86.171875 12.835938 L 0.671875 12.835938 Z M 0.671875 0.835938 "/></clipPath><clipPath id="8e7f7edaca"><rect x="0" width="87" y="0" height="14"/></clipPath></defs><g id="b27f44ab25"><g mask="url(#b16f9d5d68)" transform="matrix(1,0,0,1,42,172)"><g clip-path="url(#5e082bfcd4)"><g clip-rule="nonzero" clip-path="url(#66c0698239)"><g clip-rule="nonzero" clip-path="url(#de094b766a)"><g clip-rule="nonzero" clip-path="url(#a8592cdb68)"><path style=" stroke:none;fill-rule:nonzero;fill:#004e7a;fill-opacity:1;" d="M 40.464844 5.957031 C 35.789062 14.429688 31.113281 22.902344 26.4375 31.375 C 21.785156 39.804688 17.132812 48.234375 12.480469 56.664062 C 9.855469 61.417969 7.230469 66.175781 4.605469 70.929688 C 3.921875 72.171875 3.699219 73.710938 4.0625 75.082031 C 4.222656 75.792969 4.542969 76.410156 5.015625 76.9375 C 5.40625 77.554688 5.933594 78.039062 6.597656 78.382812 C 7.847656 79.023438 9.34375 79.34375 10.726562 78.894531 C 12.097656 78.449219 13.320312 77.609375 14.035156 76.316406 C 18.710938 67.84375 23.386719 59.371094 28.0625 50.898438 C 32.714844 42.46875 37.367188 34.039062 42.019531 25.609375 C 44.644531 20.851562 47.265625 16.097656 49.890625 11.34375 C 50.578125 10.101562 50.800781 8.5625 50.433594 7.1875 C 50.273438 6.480469 49.957031 5.863281 49.480469 5.335938 C 49.089844 4.714844 48.5625 4.234375 47.898438 3.886719 C 46.648438 3.246094 45.152344 2.925781 43.769531 3.378906 C 42.402344 3.824219 41.179688 4.664062 40.464844 5.957031 Z M 40.464844 5.957031 "/></g></g></g></g><mask id="b16f9d5d68"><g filter="url(#53039f7bad)"><rect x="0" width="375" y="0" height="374.999991" style="fill:#000000;fill-opacity:0.73;stroke:none;"/></g></mask></g><g mask="url(#1ad632f064)" transform="matrix(1,0,0,1,79,171)"><g clip-path="url(#f4a60c6116)"><g clip-rule="nonzero" clip-path="url(#bac47e0b66)"><g clip-rule="nonzero" clip-path="url(#1ebf61409b)"><g clip-rule="nonzero" clip-path="url(#702f84e195)"><path style=" stroke:none;fill-rule:nonzero;fill:#11676a;fill-opacity:1;" d="M 51.035156 70.027344 C 46.125 61.691406 41.210938 53.351562 36.300781 45.015625 C 31.414062 36.71875 26.527344 28.421875 21.640625 20.125 C 18.886719 15.445312 16.128906 10.765625 13.371094 6.085938 C 12.652344 4.863281 11.441406 3.886719 10.074219 3.503906 C 9.378906 3.28125 8.6875 3.242188 7.992188 3.378906 C 7.261719 3.402344 6.578125 3.609375 5.941406 4.003906 C 4.753906 4.753906 3.71875 5.878906 3.398438 7.296875 C 3.085938 8.703125 3.183594 10.1875 3.933594 11.457031 C 8.847656 19.796875 13.757812 28.132812 18.667969 36.472656 C 23.554688 44.769531 28.441406 53.0625 33.328125 61.359375 C 36.085938 66.039062 38.84375 70.71875 41.601562 75.398438 C 42.320312 76.621094 43.53125 77.597656 44.898438 77.984375 C 45.59375 78.203125 46.285156 78.246094 46.980469 78.105469 C 47.714844 78.082031 48.398438 77.875 49.03125 77.480469 C 50.222656 76.730469 51.257812 75.605469 51.574219 74.1875 C 51.886719 72.78125 51.785156 71.300781 51.035156 70.027344 Z M 51.035156 70.027344 "/></g></g></g></g><mask id="1ad632f064"><g filter="url(#53039f7bad)"><rect x="0" width="375" y="0" height="374.999991" style="fill:#000000;fill-opacity:0.73;stroke:none;"/></g></mask></g><g mask="url(#6fdbfbed68)" transform="matrix(1,0,0,1,45,238)"><g clip-path="url(#8e7f7edaca)"><g clip-rule="nonzero" clip-path="url(#05c239d27e)"><path style=" stroke:none;fill-rule:nonzero;fill:#401268;fill-opacity:1;" d="M 80.527344 0.851562 C 70.851562 0.996094 61.171875 1.140625 51.5 1.285156 C 41.871094 1.425781 32.246094 1.570312 22.617188 1.714844 C 17.1875 1.796875 11.753906 1.875 6.324219 1.957031 C 4.90625 1.976562 3.457031 2.546875 2.449219 3.546875 C 1.914062 4.039062 1.535156 4.621094 1.3125 5.292969 C 0.96875 5.941406 0.8125 6.636719 0.839844 7.382812 C 0.902344 8.789062 1.367188 10.242188 2.445312 11.222656 C 3.511719 12.191406 4.847656 12.835938 6.324219 12.816406 C 16 12.671875 25.679688 12.527344 35.351562 12.382812 C 44.980469 12.242188 54.605469 12.097656 64.234375 11.953125 C 69.667969 11.871094 75.097656 11.789062 80.527344 11.710938 C 81.945312 11.6875 83.394531 11.117188 84.402344 10.121094 C 84.9375 9.628906 85.316406 9.046875 85.539062 8.371094 C 85.882812 7.726562 86.039062 7.027344 86.011719 6.28125 C 85.949219 4.875 85.484375 3.421875 84.40625 2.441406 C 83.339844 1.476562 82.003906 0.832031 80.527344 0.851562 Z M 80.527344 0.851562 "/></g></g><mask id="6fdbfbed68"><g filter="url(#53039f7bad)"><rect x="0" width="375" y="0" height="374.999991" style="fill:#000000;fill-opacity:0.67;stroke:none;"/></g></mask></g><g style="fill:#004e7a;fill-opacity:1;"><g transform="translate(132.937364, 216.836244)"><path style="stroke:none" d="M 23.78125 -5.515625 L 24.171875 -4.96875 L 23.734375 0 L 3.84375 0 L 4.1875 -9.453125 L 3.84375 -31.703125 L 23.921875 -31.703125 L 24.328125 -31.171875 L 23.828125 -26.1875 L 16.25 -26.4375 L 10.53125 -26.390625 L 10.390625 -18.765625 L 15.859375 -18.65625 L 21.015625 -18.8125 L 21.421875 -18.3125 L 20.96875 -13.34375 L 15.359375 -13.484375 L 10.296875 -13.4375 L 10.234375 -10.046875 L 10.390625 -5.265625 L 15.953125 -5.21875 Z M 23.78125 -5.515625 "/></g></g><g style="fill:#004e7a;fill-opacity:1;"><g transform="translate(157.990998, 216.836244)"><path style="stroke:none" d="M 28.21875 -15.609375 L 28.15625 -11.421875 C 28.195312 -7.648438 27.097656 -4.726562 24.859375 -2.65625 C 22.628906 -0.59375 19.429688 0.4375 15.265625 0.4375 C 11.253906 0.4375 8.195312 -0.5625 6.09375 -2.5625 C 4 -4.5625 3.003906 -7.429688 3.109375 -11.171875 L 3.15625 -15.75 L 3 -31.703125 L 9.703125 -31.703125 L 9.359375 -12.0625 C 9.328125 -9.664062 9.832031 -7.890625 10.875 -6.734375 C 11.925781 -5.585938 13.519531 -5.015625 15.65625 -5.015625 C 19.925781 -5.015625 22.039062 -7.25 22 -11.71875 L 21.65625 -31.703125 L 28.453125 -31.703125 Z M 28.21875 -15.609375 "/></g></g><g style="fill:#11676a;fill-opacity:1;"><g transform="translate(189.415305, 216.836244)"><path style="stroke:none" d="M 30.03125 -9.796875 L 30.28125 0 L 23.09375 0 L 10.140625 -21.46875 L 9.75 -21.46875 L 9.703125 -10.9375 L 9.890625 0 L 3.84375 0 L 4.1875 -9.359375 L 3.890625 -31.703125 L 11.03125 -31.703125 L 23.984375 -10.234375 L 24.421875 -10.234375 L 24.265625 -31.40625 L 30.421875 -31.8125 Z M 30.03125 -9.796875 "/></g></g><g style="fill:#11676a;fill-opacity:1;"><g transform="translate(223.62411, 216.836244)"><path style="stroke:none" d="M 10.234375 -10.046875 L 10.53125 0 L 3.84375 0 L 4.1875 -9.453125 L 3.84375 -31.703125 L 10.640625 -31.703125 Z M 10.234375 -10.046875 "/></g></g><g style="fill:#11676a;fill-opacity:1;"><g transform="translate(238.14439, 216.836244)"><path style="stroke:none" d="M 24.078125 -31.171875 L 23.6875 -26.1875 L 17.71875 -26.484375 L 15.75 -26.484375 L 15.515625 -10.046875 L 15.796875 0 L 9.109375 0 L 9.453125 -9.453125 L 9.203125 -26.484375 L 7.234375 -26.484375 L 1.1875 -26.1875 L 0.734375 -26.734375 L 1.1875 -31.703125 L 23.6875 -31.703125 Z M 24.078125 -31.171875 "/></g></g><g style="fill:#401268;fill-opacity:1;"><g transform="translate(262.914299, 216.836244)"><path style="stroke:none" d="M 20.484375 -12.609375 C 23.046875 -8.535156 25.585938 -4.859375 28.109375 -1.578125 L 28.015625 -0.84375 C 25.878906 -0.0820312 23.695312 0.363281 21.46875 0.5 L 20.78125 -0.046875 C 18.414062 -4.117188 16.492188 -7.664062 15.015625 -10.6875 L 10.234375 -10.6875 L 10.234375 -10.046875 L 10.53125 0 L 3.84375 0 L 4.1875 -9.453125 L 3.84375 -31.703125 L 16 -31.75 C 19.3125 -31.75 21.867188 -30.9375 23.671875 -29.3125 C 25.484375 -27.6875 26.390625 -25.367188 26.390625 -22.359375 C 26.390625 -20.316406 25.867188 -18.453125 24.828125 -16.765625 C 23.796875 -15.078125 22.347656 -13.691406 20.484375 -12.609375 Z M 10.34375 -15.859375 L 15.21875 -15.65625 C 18 -16.601562 19.390625 -18.625 19.390625 -21.71875 C 19.390625 -23.382812 18.9375 -24.632812 18.03125 -25.46875 C 17.132812 -26.3125 15.753906 -26.765625 13.890625 -26.828125 L 10.53125 -26.640625 Z M 10.34375 -15.859375 "/></g></g><g style="fill:#401268;fill-opacity:1;"><g transform="translate(291.954859, 216.836244)"><path style="stroke:none" d="M 28.75 0 L 21.953125 0 L 21.171875 -4.140625 L 20.328125 -7.09375 L 14.125 -7.234375 L 8.671875 -7.09375 L 7.828125 -4.484375 L 6.984375 0 L 0.390625 0 L 11.125 -31.703125 L 19.046875 -31.703125 Z M 18.90625 -12.265625 L 15.171875 -25.453125 L 14.71875 -25.453125 L 10.390625 -12.265625 L 14.625 -12.15625 Z M 18.90625 -12.265625 "/></g></g><g style="fill:#004e7a;fill-opacity:1;"><g transform="translate(27.069772, 270.9125)"><path style="stroke:none" d="M 7.734375 0 L 5.90625 0 L 5.703125 -1.109375 L 5.46875 -1.90625 L 3.796875 -1.953125 L 2.328125 -1.90625 L 2.109375 -1.203125 L 1.875 0 L 0.109375 0 L 3 -8.53125 L 5.125 -8.53125 Z M 5.09375 -3.296875 L 4.078125 -6.84375 L 3.96875 -6.84375 L 2.796875 -3.296875 L 3.9375 -3.265625 Z M 5.09375 -3.296875 "/></g></g><g style="fill:#004e7a;fill-opacity:1;"><g transform="translate(39.185831, 270.9125)"><path style="stroke:none" d="M 3.34375 -6.28125 C 3.632812 -6.28125 3.921875 -6.25 4.203125 -6.1875 C 4.492188 -6.132812 4.75 -6.054688 4.96875 -5.953125 L 4.671875 -4.546875 L 4.53125 -4.484375 C 4.082031 -4.722656 3.679688 -4.84375 3.328125 -4.84375 C 2.921875 -4.84375 2.601562 -4.695312 2.375 -4.40625 C 2.15625 -4.113281 2.046875 -3.703125 2.046875 -3.171875 C 2.046875 -2.546875 2.164062 -2.070312 2.40625 -1.75 C 2.644531 -1.425781 2.988281 -1.265625 3.4375 -1.265625 C 3.832031 -1.265625 4.269531 -1.375 4.75 -1.59375 L 4.890625 -1.484375 L 4.71875 -0.125 C 4.1875 0.0390625 3.644531 0.125 3.09375 0.125 C 2.238281 0.125 1.570312 -0.148438 1.09375 -0.703125 C 0.625 -1.253906 0.390625 -2.019531 0.390625 -3 C 0.390625 -4.03125 0.648438 -4.832031 1.171875 -5.40625 C 1.691406 -5.988281 2.414062 -6.28125 3.34375 -6.28125 Z M 3.34375 -6.28125 "/></g></g><g style="fill:#004e7a;fill-opacity:1;"><g transform="translate(48.451808, 270.9125)"><path style="stroke:none" d="M 3.34375 -6.28125 C 3.632812 -6.28125 3.921875 -6.25 4.203125 -6.1875 C 4.492188 -6.132812 4.75 -6.054688 4.96875 -5.953125 L 4.671875 -4.546875 L 4.53125 -4.484375 C 4.082031 -4.722656 3.679688 -4.84375 3.328125 -4.84375 C 2.921875 -4.84375 2.601562 -4.695312 2.375 -4.40625 C 2.15625 -4.113281 2.046875 -3.703125 2.046875 -3.171875 C 2.046875 -2.546875 2.164062 -2.070312 2.40625 -1.75 C 2.644531 -1.425781 2.988281 -1.265625 3.4375 -1.265625 C 3.832031 -1.265625 4.269531 -1.375 4.75 -1.59375 L 4.890625 -1.484375 L 4.71875 -0.125 C 4.1875 0.0390625 3.644531 0.125 3.09375 0.125 C 2.238281 0.125 1.570312 -0.148438 1.09375 -0.703125 C 0.625 -1.253906 0.390625 -2.019531 0.390625 -3 C 0.390625 -4.03125 0.648438 -4.832031 1.171875 -5.40625 C 1.691406 -5.988281 2.414062 -6.28125 3.34375 -6.28125 Z M 3.34375 -6.28125 "/></g></g><g style="fill:#004e7a;fill-opacity:1;"><g transform="translate(57.717786, 270.9125)"><path style="stroke:none" d="M 5.578125 -2.859375 L 2 -2.828125 C 2.082031 -1.722656 2.644531 -1.171875 3.6875 -1.171875 C 4.226562 -1.171875 4.835938 -1.328125 5.515625 -1.640625 L 5.65625 -1.546875 L 5.390625 -0.234375 C 4.722656 0.00390625 4.09375 0.125 3.5 0.125 C 2.53125 0.125 1.769531 -0.15625 1.21875 -0.71875 C 0.664062 -1.28125 0.390625 -2.0625 0.390625 -3.0625 C 0.390625 -4.050781 0.65625 -4.832031 1.1875 -5.40625 C 1.726562 -5.988281 2.457031 -6.28125 3.375 -6.28125 C 4.164062 -6.28125 4.773438 -6.066406 5.203125 -5.640625 C 5.628906 -5.210938 5.84375 -4.613281 5.84375 -3.84375 C 5.84375 -3.632812 5.820312 -3.378906 5.78125 -3.078125 Z M 4.3125 -4.046875 C 4.3125 -4.398438 4.226562 -4.664062 4.0625 -4.84375 C 3.90625 -5.019531 3.671875 -5.109375 3.359375 -5.109375 C 3.015625 -5.109375 2.726562 -4.992188 2.5 -4.765625 C 2.269531 -4.546875 2.117188 -4.222656 2.046875 -3.796875 L 4.28125 -3.859375 Z M 4.3125 -4.046875 "/></g></g><g style="fill:#004e7a;fill-opacity:1;"><g transform="translate(68.137061, 270.9125)"><path style="stroke:none" d="M 2.875 -6.265625 C 3.476562 -6.265625 4.046875 -6.164062 4.578125 -5.96875 L 4.328125 -4.65625 L 4.125 -4.59375 C 3.863281 -4.757812 3.601562 -4.882812 3.34375 -4.96875 C 3.09375 -5.0625 2.867188 -5.109375 2.671875 -5.109375 C 2.460938 -5.109375 2.296875 -5.050781 2.171875 -4.9375 C 2.046875 -4.832031 1.984375 -4.703125 1.984375 -4.546875 C 1.984375 -4.359375 2.066406 -4.207031 2.234375 -4.09375 C 2.398438 -3.976562 2.65625 -3.847656 3 -3.703125 C 3.351562 -3.566406 3.644531 -3.429688 3.875 -3.296875 C 4.113281 -3.160156 4.3125 -2.972656 4.46875 -2.734375 C 4.632812 -2.503906 4.71875 -2.21875 4.71875 -1.875 C 4.71875 -1.519531 4.625 -1.191406 4.4375 -0.890625 C 4.257812 -0.585938 3.984375 -0.34375 3.609375 -0.15625 C 3.242188 0.03125 2.789062 0.125 2.25 0.125 C 1.613281 0.125 0.957031 -0.00390625 0.28125 -0.265625 L 0.484375 -1.640625 L 0.65625 -1.75 C 0.925781 -1.519531 1.226562 -1.335938 1.5625 -1.203125 C 1.894531 -1.066406 2.191406 -1 2.453125 -1 C 2.691406 -1 2.875 -1.054688 3 -1.171875 C 3.132812 -1.285156 3.203125 -1.429688 3.203125 -1.609375 C 3.203125 -1.785156 3.117188 -1.929688 2.953125 -2.046875 C 2.796875 -2.160156 2.539062 -2.289062 2.1875 -2.4375 C 1.820312 -2.59375 1.523438 -2.734375 1.296875 -2.859375 C 1.066406 -2.992188 0.867188 -3.179688 0.703125 -3.421875 C 0.546875 -3.660156 0.46875 -3.957031 0.46875 -4.3125 C 0.46875 -4.882812 0.679688 -5.351562 1.109375 -5.71875 C 1.546875 -6.082031 2.132812 -6.265625 2.875 -6.265625 Z M 2.875 -6.265625 "/></g></g><g style="fill:#004e7a;fill-opacity:1;"><g transform="translate(77.38979, 270.9125)"><path style="stroke:none" d="M 2.875 -6.265625 C 3.476562 -6.265625 4.046875 -6.164062 4.578125 -5.96875 L 4.328125 -4.65625 L 4.125 -4.59375 C 3.863281 -4.757812 3.601562 -4.882812 3.34375 -4.96875 C 3.09375 -5.0625 2.867188 -5.109375 2.671875 -5.109375 C 2.460938 -5.109375 2.296875 -5.050781 2.171875 -4.9375 C 2.046875 -4.832031 1.984375 -4.703125 1.984375 -4.546875 C 1.984375 -4.359375 2.066406 -4.207031 2.234375 -4.09375 C 2.398438 -3.976562 2.65625 -3.847656 3 -3.703125 C 3.351562 -3.566406 3.644531 -3.429688 3.875 -3.296875 C 4.113281 -3.160156 4.3125 -2.972656 4.46875 -2.734375 C 4.632812 -2.503906 4.71875 -2.21875 4.71875 -1.875 C 4.71875 -1.519531 4.625 -1.191406 4.4375 -0.890625 C 4.257812 -0.585938 3.984375 -0.34375 3.609375 -0.15625 C 3.242188 0.03125 2.789062 0.125 2.25 0.125 C 1.613281 0.125 0.957031 -0.00390625 0.28125 -0.265625 L 0.484375 -1.640625 L 0.65625 -1.75 C 0.925781 -1.519531 1.226562 -1.335938 1.5625 -1.203125 C 1.894531 -1.066406 2.191406 -1 2.453125 -1 C 2.691406 -1 2.875 -1.054688 3 -1.171875 C 3.132812 -1.285156 3.203125 -1.429688 3.203125 -1.609375 C 3.203125 -1.785156 3.117188 -1.929688 2.953125 -2.046875 C 2.796875 -2.160156 2.539062 -2.289062 2.1875 -2.4375 C 1.820312 -2.59375 1.523438 -2.734375 1.296875 -2.859375 C 1.066406 -2.992188 0.867188 -3.179688 0.703125 -3.421875 C 0.546875 -3.660156 0.46875 -3.957031 0.46875 -4.3125 C 0.46875 -4.882812 0.679688 -5.351562 1.109375 -5.71875 C 1.546875 -6.082031 2.132812 -6.265625 2.875 -6.265625 Z M 2.875 -6.265625 "/></g></g><g style="fill:#004e7a;fill-opacity:1;"><g transform="translate(86.642519, 270.9125)"><path style="stroke:none" d="M 1.546875 -1.78125 C 1.828125 -1.78125 2.039062 -1.703125 2.1875 -1.546875 C 2.34375 -1.390625 2.421875 -1.171875 2.421875 -0.890625 C 2.421875 -0.585938 2.335938 -0.347656 2.171875 -0.171875 C 2.003906 0.00390625 1.773438 0.09375 1.484375 0.09375 C 1.191406 0.09375 0.96875 0.015625 0.8125 -0.140625 C 0.65625 -0.304688 0.578125 -0.535156 0.578125 -0.828125 C 0.578125 -1.117188 0.660156 -1.347656 0.828125 -1.515625 C 1.003906 -1.691406 1.242188 -1.78125 1.546875 -1.78125 Z M 1.546875 -1.78125 "/></g></g><g style="fill:#004e7a;fill-opacity:1;"><g transform="translate(93.840546, 270.9125)"><path style="stroke:none" d=""/></g></g><g style="fill:#004e7a;fill-opacity:1;"><g transform="translate(100.004599, 270.9125)"><path style="stroke:none" d="M 6.484375 -8.390625 L 6.375 -7.046875 L 4.765625 -7.125 L 4.234375 -7.125 L 4.171875 -2.703125 L 4.25 0 L 2.453125 0 L 2.546875 -2.546875 L 2.484375 -7.125 L 1.953125 -7.125 L 0.3125 -7.046875 L 0.203125 -7.1875 L 0.3125 -8.53125 L 6.375 -8.53125 Z M 6.484375 -8.390625 "/></g></g><g style="fill:#004e7a;fill-opacity:1;"><g transform="translate(110.834805, 270.9125)"><path style="stroke:none" d="M 4.21875 -6.171875 C 4.289062 -6.171875 4.398438 -6.160156 4.546875 -6.140625 L 4.546875 -4.515625 L 4.359375 -4.453125 C 4.210938 -4.515625 4.050781 -4.546875 3.875 -4.546875 C 3.351562 -4.546875 2.890625 -4.210938 2.484375 -3.546875 L 2.484375 -2.71875 L 2.578125 0 L 0.8125 0 L 0.921875 -2.546875 L 0.828125 -6.046875 L 2.5 -6.1875 L 2.484375 -4.984375 L 2.59375 -4.984375 C 3.03125 -5.773438 3.570312 -6.171875 4.21875 -6.171875 Z M 4.21875 -6.171875 "/></g></g><g style="fill:#004e7a;fill-opacity:1;"><g transform="translate(119.610309, 270.9125)"><path style="stroke:none" d="M 3.234375 -6.28125 C 3.910156 -6.28125 4.441406 -6.125 4.828125 -5.8125 C 5.210938 -5.507812 5.40625 -5.085938 5.40625 -4.546875 C 5.40625 -4.390625 5.378906 -3.882812 5.328125 -3.03125 C 5.316406 -2.78125 5.300781 -2.523438 5.28125 -2.265625 C 5.269531 -2.003906 5.265625 -1.785156 5.265625 -1.609375 C 5.265625 -1.453125 5.285156 -1.34375 5.328125 -1.28125 C 5.367188 -1.226562 5.445312 -1.203125 5.5625 -1.203125 C 5.65625 -1.203125 5.769531 -1.222656 5.90625 -1.265625 L 6.046875 -1.15625 L 5.890625 -0.21875 C 5.597656 -0.0390625 5.273438 0.0664062 4.921875 0.109375 C 4.648438 0.078125 4.425781 -0.015625 4.25 -0.171875 C 4.070312 -0.335938 3.953125 -0.566406 3.890625 -0.859375 L 3.796875 -0.859375 C 3.359375 -0.390625 2.90625 -0.0625 2.4375 0.125 C 1.800781 0.113281 1.300781 -0.0507812 0.9375 -0.375 C 0.570312 -0.707031 0.390625 -1.15625 0.390625 -1.71875 C 0.390625 -2.164062 0.503906 -2.515625 0.734375 -2.765625 C 0.960938 -3.015625 1.304688 -3.179688 1.765625 -3.265625 L 3.796875 -3.65625 L 3.796875 -4.203125 C 3.796875 -4.773438 3.507812 -5.0625 2.9375 -5.0625 C 2.664062 -5.0625 2.375 -5 2.0625 -4.875 C 1.757812 -4.75 1.421875 -4.554688 1.046875 -4.296875 L 0.921875 -4.375 L 0.71875 -5.53125 C 1.09375 -5.769531 1.492188 -5.953125 1.921875 -6.078125 C 2.359375 -6.210938 2.796875 -6.28125 3.234375 -6.28125 Z M 2.375 -2.46875 C 2.226562 -2.425781 2.125 -2.363281 2.0625 -2.28125 C 2 -2.195312 1.96875 -2.070312 1.96875 -1.90625 C 1.96875 -1.675781 2.023438 -1.492188 2.140625 -1.359375 C 2.265625 -1.234375 2.4375 -1.171875 2.65625 -1.171875 C 3.007812 -1.171875 3.375 -1.375 3.75 -1.78125 L 3.78125 -2.765625 Z M 2.375 -2.46875 "/></g></g><g style="fill:#004e7a;fill-opacity:1;"><g transform="translate(130.148874, 270.9125)"><path style="stroke:none" d="M 5.953125 -2.71875 L 5.984375 -1.609375 C 5.984375 -1.453125 6.003906 -1.34375 6.046875 -1.28125 C 6.085938 -1.226562 6.160156 -1.203125 6.265625 -1.203125 C 6.359375 -1.203125 6.476562 -1.222656 6.625 -1.265625 L 6.75 -1.15625 L 6.59375 -0.21875 C 6.289062 -0.0390625 5.96875 0.0664062 5.625 0.109375 C 5.34375 0.078125 5.109375 -0.015625 4.921875 -0.171875 C 4.742188 -0.328125 4.617188 -0.546875 4.546875 -0.828125 L 4.4375 -0.828125 C 4.007812 -0.421875 3.566406 -0.113281 3.109375 0.09375 C 2.242188 0.09375 1.570312 -0.179688 1.09375 -0.734375 C 0.625 -1.285156 0.390625 -2.050781 0.390625 -3.03125 C 0.390625 -4.070312 0.660156 -4.867188 1.203125 -5.421875 C 1.753906 -5.984375 2.515625 -6.265625 3.484375 -6.265625 C 3.742188 -6.265625 4.023438 -6.238281 4.328125 -6.1875 L 4.3125 -9.171875 L 6.0625 -9.296875 Z M 3.359375 -5.078125 C 2.484375 -5.078125 2.046875 -4.515625 2.046875 -3.390625 C 2.046875 -2.691406 2.148438 -2.164062 2.359375 -1.8125 C 2.566406 -1.457031 2.875 -1.28125 3.28125 -1.28125 C 3.675781 -1.28125 4.035156 -1.460938 4.359375 -1.828125 L 4.390625 -2.5625 L 4.34375 -4.84375 C 4 -5 3.671875 -5.078125 3.359375 -5.078125 Z M 3.359375 -5.078125 "/></g></g><g style="fill:#004e7a;fill-opacity:1;"><g transform="translate(141.283969, 270.9125)"><path style="stroke:none" d="M 5.578125 -2.859375 L 2 -2.828125 C 2.082031 -1.722656 2.644531 -1.171875 3.6875 -1.171875 C 4.226562 -1.171875 4.835938 -1.328125 5.515625 -1.640625 L 5.65625 -1.546875 L 5.390625 -0.234375 C 4.722656 0.00390625 4.09375 0.125 3.5 0.125 C 2.53125 0.125 1.769531 -0.15625 1.21875 -0.71875 C 0.664062 -1.28125 0.390625 -2.0625 0.390625 -3.0625 C 0.390625 -4.050781 0.65625 -4.832031 1.1875 -5.40625 C 1.726562 -5.988281 2.457031 -6.28125 3.375 -6.28125 C 4.164062 -6.28125 4.773438 -6.066406 5.203125 -5.640625 C 5.628906 -5.210938 5.84375 -4.613281 5.84375 -3.84375 C 5.84375 -3.632812 5.820312 -3.378906 5.78125 -3.078125 Z M 4.3125 -4.046875 C 4.3125 -4.398438 4.226562 -4.664062 4.0625 -4.84375 C 3.90625 -5.019531 3.671875 -5.109375 3.359375 -5.109375 C 3.015625 -5.109375 2.726562 -4.992188 2.5 -4.765625 C 2.269531 -4.546875 2.117188 -4.222656 2.046875 -3.796875 L 4.28125 -3.859375 Z M 4.3125 -4.046875 "/></g></g><g style="fill:#004e7a;fill-opacity:1;"><g transform="translate(151.703244, 270.9125)"><path style="stroke:none" d="M 1.546875 -1.78125 C 1.828125 -1.78125 2.039062 -1.703125 2.1875 -1.546875 C 2.34375 -1.390625 2.421875 -1.171875 2.421875 -0.890625 C 2.421875 -0.585938 2.335938 -0.347656 2.171875 -0.171875 C 2.003906 0.00390625 1.773438 0.09375 1.484375 0.09375 C 1.191406 0.09375 0.96875 0.015625 0.8125 -0.140625 C 0.65625 -0.304688 0.578125 -0.535156 0.578125 -0.828125 C 0.578125 -1.117188 0.660156 -1.347656 0.828125 -1.515625 C 1.003906 -1.691406 1.242188 -1.78125 1.546875 -1.78125 Z M 1.546875 -1.78125 "/></g></g><g style="fill:#004e7a;fill-opacity:1;"><g transform="translate(158.901272, 270.9125)"><path style="stroke:none" d=""/></g></g><g style="fill:#004e7a;fill-opacity:1;"><g transform="translate(165.065325, 270.9125)"><path style="stroke:none" d="M 3.78125 -8.640625 C 4.5 -8.640625 5.21875 -8.492188 5.9375 -8.203125 L 5.640625 -6.65625 L 5.375 -6.546875 C 5.070312 -6.753906 4.757812 -6.921875 4.4375 -7.046875 C 4.125 -7.171875 3.832031 -7.234375 3.5625 -7.234375 C 3.207031 -7.234375 2.921875 -7.140625 2.703125 -6.953125 C 2.492188 -6.765625 2.390625 -6.546875 2.390625 -6.296875 C 2.390625 -6.035156 2.503906 -5.816406 2.734375 -5.640625 C 2.972656 -5.460938 3.347656 -5.253906 3.859375 -5.015625 C 4.335938 -4.796875 4.726562 -4.59375 5.03125 -4.40625 C 5.34375 -4.21875 5.601562 -3.96875 5.8125 -3.65625 C 6.03125 -3.34375 6.140625 -2.960938 6.140625 -2.515625 C 6.140625 -2.023438 6.007812 -1.578125 5.75 -1.171875 C 5.488281 -0.773438 5.113281 -0.457031 4.625 -0.21875 C 4.132812 0.0078125 3.570312 0.125 2.9375 0.125 C 2.101562 0.125 1.257812 -0.0546875 0.40625 -0.421875 L 0.65625 -2.09375 L 0.859375 -2.203125 C 1.210938 -1.890625 1.597656 -1.648438 2.015625 -1.484375 C 2.441406 -1.328125 2.816406 -1.25 3.140625 -1.25 C 3.523438 -1.25 3.828125 -1.34375 4.046875 -1.53125 C 4.265625 -1.71875 4.375 -1.945312 4.375 -2.21875 C 4.375 -2.5 4.253906 -2.726562 4.015625 -2.90625 C 3.785156 -3.082031 3.410156 -3.289062 2.890625 -3.53125 C 2.410156 -3.75 2.019531 -3.945312 1.71875 -4.125 C 1.414062 -4.3125 1.160156 -4.5625 0.953125 -4.875 C 0.742188 -5.1875 0.640625 -5.5625 0.640625 -6 C 0.640625 -6.5 0.769531 -6.945312 1.03125 -7.34375 C 1.300781 -7.75 1.671875 -8.066406 2.140625 -8.296875 C 2.617188 -8.523438 3.164062 -8.640625 3.78125 -8.640625 Z M 3.78125 -8.640625 "/></g></g><g style="fill:#004e7a;fill-opacity:1;"><g transform="translate(175.829253, 270.9125)"><path style="stroke:none" d="M 6.6875 -1.15625 L 6.53125 -0.21875 C 6.207031 -0.0078125 5.875 0.0976562 5.53125 0.109375 C 5.269531 0.0664062 5.054688 -0.03125 4.890625 -0.1875 C 4.722656 -0.351562 4.59375 -0.585938 4.5 -0.890625 L 4.390625 -0.890625 C 3.878906 -0.390625 3.359375 -0.0664062 2.828125 0.078125 C 2.148438 0.078125 1.632812 -0.0703125 1.28125 -0.375 C 0.9375 -0.675781 0.769531 -1.117188 0.78125 -1.703125 L 0.8125 -3.265625 L 0.734375 -6.046875 L 2.453125 -6.1875 L 2.40625 -2.28125 C 2.394531 -1.96875 2.457031 -1.734375 2.59375 -1.578125 C 2.726562 -1.421875 2.925781 -1.34375 3.1875 -1.34375 C 3.582031 -1.34375 3.96875 -1.515625 4.34375 -1.859375 L 4.34375 -6.046875 L 6.03125 -6.1875 L 5.90625 -1.609375 C 5.90625 -1.460938 5.929688 -1.359375 5.984375 -1.296875 C 6.035156 -1.234375 6.113281 -1.203125 6.21875 -1.203125 C 6.3125 -1.203125 6.429688 -1.222656 6.578125 -1.265625 Z M 6.6875 -1.15625 "/></g></g><g style="fill:#004e7a;fill-opacity:1;"><g transform="translate(186.911319, 270.9125)"><path style="stroke:none" d="M 2.875 -6.265625 C 3.476562 -6.265625 4.046875 -6.164062 4.578125 -5.96875 L 4.328125 -4.65625 L 4.125 -4.59375 C 3.863281 -4.757812 3.601562 -4.882812 3.34375 -4.96875 C 3.09375 -5.0625 2.867188 -5.109375 2.671875 -5.109375 C 2.460938 -5.109375 2.296875 -5.050781 2.171875 -4.9375 C 2.046875 -4.832031 1.984375 -4.703125 1.984375 -4.546875 C 1.984375 -4.359375 2.066406 -4.207031 2.234375 -4.09375 C 2.398438 -3.976562 2.65625 -3.847656 3 -3.703125 C 3.351562 -3.566406 3.644531 -3.429688 3.875 -3.296875 C 4.113281 -3.160156 4.3125 -2.972656 4.46875 -2.734375 C 4.632812 -2.503906 4.71875 -2.21875 4.71875 -1.875 C 4.71875 -1.519531 4.625 -1.191406 4.4375 -0.890625 C 4.257812 -0.585938 3.984375 -0.34375 3.609375 -0.15625 C 3.242188 0.03125 2.789062 0.125 2.25 0.125 C 1.613281 0.125 0.957031 -0.00390625 0.28125 -0.265625 L 0.484375 -1.640625 L 0.65625 -1.75 C 0.925781 -1.519531 1.226562 -1.335938 1.5625 -1.203125 C 1.894531 -1.066406 2.191406 -1 2.453125 -1 C 2.691406 -1 2.875 -1.054688 3 -1.171875 C 3.132812 -1.285156 3.203125 -1.429688 3.203125 -1.609375 C 3.203125 -1.785156 3.117188 -1.929688 2.953125 -2.046875 C 2.796875 -2.160156 2.539062 -2.289062 2.1875 -2.4375 C 1.820312 -2.59375 1.523438 -2.734375 1.296875 -2.859375 C 1.066406 -2.992188 0.867188 -3.179688 0.703125 -3.421875 C 0.546875 -3.660156 0.46875 -3.957031 0.46875 -4.3125 C 0.46875 -4.882812 0.679688 -5.351562 1.109375 -5.71875 C 1.546875 -6.082031 2.132812 -6.265625 2.875 -6.265625 Z M 2.875 -6.265625 "/></g></g><g style="fill:#004e7a;fill-opacity:1;"><g transform="translate(196.164048, 270.9125)"><path style="stroke:none" d="M 3.296875 -1.296875 C 3.578125 -1.296875 3.875 -1.375 4.1875 -1.53125 L 4.328125 -1.390625 L 4.15625 -0.34375 C 3.707031 -0.113281 3.25 0.0234375 2.78125 0.078125 C 1.59375 -0.046875 1 -0.628906 1 -1.671875 L 1.0625 -2.765625 L 1.046875 -5.046875 L 0.21875 -5.046875 L 0.15625 -5.140625 L 0.25 -6.109375 L 1.03125 -6.109375 L 1.03125 -7.125 L 2.640625 -7.640625 L 2.75 -7.546875 L 2.71875 -6.109375 L 4.296875 -6.109375 L 4.34375 -6.015625 L 4.265625 -5.046875 L 2.6875 -5.046875 L 2.609375 -2.078125 C 2.609375 -1.796875 2.660156 -1.59375 2.765625 -1.46875 C 2.867188 -1.351562 3.046875 -1.296875 3.296875 -1.296875 Z M 3.296875 -1.296875 "/></g></g><g style="fill:#004e7a;fill-opacity:1;"><g transform="translate(204.806998, 270.9125)"><path style="stroke:none" d="M 3.234375 -6.28125 C 3.910156 -6.28125 4.441406 -6.125 4.828125 -5.8125 C 5.210938 -5.507812 5.40625 -5.085938 5.40625 -4.546875 C 5.40625 -4.390625 5.378906 -3.882812 5.328125 -3.03125 C 5.316406 -2.78125 5.300781 -2.523438 5.28125 -2.265625 C 5.269531 -2.003906 5.265625 -1.785156 5.265625 -1.609375 C 5.265625 -1.453125 5.285156 -1.34375 5.328125 -1.28125 C 5.367188 -1.226562 5.445312 -1.203125 5.5625 -1.203125 C 5.65625 -1.203125 5.769531 -1.222656 5.90625 -1.265625 L 6.046875 -1.15625 L 5.890625 -0.21875 C 5.597656 -0.0390625 5.273438 0.0664062 4.921875 0.109375 C 4.648438 0.078125 4.425781 -0.015625 4.25 -0.171875 C 4.070312 -0.335938 3.953125 -0.566406 3.890625 -0.859375 L 3.796875 -0.859375 C 3.359375 -0.390625 2.90625 -0.0625 2.4375 0.125 C 1.800781 0.113281 1.300781 -0.0507812 0.9375 -0.375 C 0.570312 -0.707031 0.390625 -1.15625 0.390625 -1.71875 C 0.390625 -2.164062 0.503906 -2.515625 0.734375 -2.765625 C 0.960938 -3.015625 1.304688 -3.179688 1.765625 -3.265625 L 3.796875 -3.65625 L 3.796875 -4.203125 C 3.796875 -4.773438 3.507812 -5.0625 2.9375 -5.0625 C 2.664062 -5.0625 2.375 -5 2.0625 -4.875 C 1.757812 -4.75 1.421875 -4.554688 1.046875 -4.296875 L 0.921875 -4.375 L 0.71875 -5.53125 C 1.09375 -5.769531 1.492188 -5.953125 1.921875 -6.078125 C 2.359375 -6.210938 2.796875 -6.28125 3.234375 -6.28125 Z M 2.375 -2.46875 C 2.226562 -2.425781 2.125 -2.363281 2.0625 -2.28125 C 2 -2.195312 1.96875 -2.070312 1.96875 -1.90625 C 1.96875 -1.675781 2.023438 -1.492188 2.140625 -1.359375 C 2.265625 -1.234375 2.4375 -1.171875 2.65625 -1.171875 C 3.007812 -1.171875 3.375 -1.375 3.75 -1.78125 L 3.78125 -2.765625 Z M 2.375 -2.46875 "/></g></g><g style="fill:#004e7a;fill-opacity:1;"><g transform="translate(215.345562, 270.9125)"><path style="stroke:none" d="M 0.921875 -2.546875 L 0.859375 -6.046875 L 2.59375 -6.1875 L 2.515625 -2.71875 L 2.59375 0 L 0.828125 0 Z M 1.765625 -9.1875 C 2.035156 -9.1875 2.25 -9.101562 2.40625 -8.9375 C 2.5625 -8.78125 2.640625 -8.5625 2.640625 -8.28125 C 2.640625 -7.976562 2.554688 -7.738281 2.390625 -7.5625 C 2.222656 -7.382812 1.992188 -7.296875 1.703125 -7.296875 C 1.410156 -7.296875 1.1875 -7.375 1.03125 -7.53125 C 0.875 -7.695312 0.796875 -7.925781 0.796875 -8.21875 C 0.796875 -8.507812 0.878906 -8.742188 1.046875 -8.921875 C 1.222656 -9.097656 1.460938 -9.1875 1.765625 -9.1875 Z M 1.765625 -9.1875 "/></g></g><g style="fill:#004e7a;fill-opacity:1;"><g transform="translate(222.967786, 270.9125)"><path style="stroke:none" d="M 4.59375 -3.84375 C 4.601562 -4.15625 4.535156 -4.394531 4.390625 -4.5625 C 4.242188 -4.738281 4.035156 -4.828125 3.765625 -4.828125 C 3.367188 -4.828125 2.941406 -4.632812 2.484375 -4.25 L 2.484375 -2.71875 L 2.578125 0 L 0.8125 0 L 0.90625 -2.546875 L 0.828125 -6.046875 L 2.5 -6.1875 L 2.5 -5.28125 L 2.59375 -5.28125 C 3.082031 -5.726562 3.613281 -6.046875 4.1875 -6.234375 C 4.851562 -6.234375 5.363281 -6.082031 5.71875 -5.78125 C 6.070312 -5.476562 6.242188 -5.039062 6.234375 -4.46875 L 6.1875 -2.703125 L 6.265625 0 L 4.484375 0 Z M 4.59375 -3.84375 "/></g></g><g style="fill:#004e7a;fill-opacity:1;"><g transform="translate(234.142644, 270.9125)"><path style="stroke:none" d="M 3.234375 -6.28125 C 3.910156 -6.28125 4.441406 -6.125 4.828125 -5.8125 C 5.210938 -5.507812 5.40625 -5.085938 5.40625 -4.546875 C 5.40625 -4.390625 5.378906 -3.882812 5.328125 -3.03125 C 5.316406 -2.78125 5.300781 -2.523438 5.28125 -2.265625 C 5.269531 -2.003906 5.265625 -1.785156 5.265625 -1.609375 C 5.265625 -1.453125 5.285156 -1.34375 5.328125 -1.28125 C 5.367188 -1.226562 5.445312 -1.203125 5.5625 -1.203125 C 5.65625 -1.203125 5.769531 -1.222656 5.90625 -1.265625 L 6.046875 -1.15625 L 5.890625 -0.21875 C 5.597656 -0.0390625 5.273438 0.0664062 4.921875 0.109375 C 4.648438 0.078125 4.425781 -0.015625 4.25 -0.171875 C 4.070312 -0.335938 3.953125 -0.566406 3.890625 -0.859375 L 3.796875 -0.859375 C 3.359375 -0.390625 2.90625 -0.0625 2.4375 0.125 C 1.800781 0.113281 1.300781 -0.0507812 0.9375 -0.375 C 0.570312 -0.707031 0.390625 -1.15625 0.390625 -1.71875 C 0.390625 -2.164062 0.503906 -2.515625 0.734375 -2.765625 C 0.960938 -3.015625 1.304688 -3.179688 1.765625 -3.265625 L 3.796875 -3.65625 L 3.796875 -4.203125 C 3.796875 -4.773438 3.507812 -5.0625 2.9375 -5.0625 C 2.664062 -5.0625 2.375 -5 2.0625 -4.875 C 1.757812 -4.75 1.421875 -4.554688 1.046875 -4.296875 L 0.921875 -4.375 L 0.71875 -5.53125 C 1.09375 -5.769531 1.492188 -5.953125 1.921875 -6.078125 C 2.359375 -6.210938 2.796875 -6.28125 3.234375 -6.28125 Z M 2.375 -2.46875 C 2.226562 -2.425781 2.125 -2.363281 2.0625 -2.28125 C 2 -2.195312 1.96875 -2.070312 1.96875 -1.90625 C 1.96875 -1.675781 2.023438 -1.492188 2.140625 -1.359375 C 2.265625 -1.234375 2.4375 -1.171875 2.65625 -1.171875 C 3.007812 -1.171875 3.375 -1.375 3.75 -1.78125 L 3.78125 -2.765625 Z M 2.375 -2.46875 "/></g></g><g style="fill:#004e7a;fill-opacity:1;"><g transform="translate(244.681209, 270.9125)"><path style="stroke:none" d="M 4.140625 -6.234375 C 4.910156 -6.234375 5.5 -5.96875 5.90625 -5.4375 C 6.320312 -4.914062 6.53125 -4.191406 6.53125 -3.265625 C 6.53125 -2.171875 6.257812 -1.332031 5.71875 -0.75 C 5.1875 -0.164062 4.441406 0.125 3.484375 0.125 C 3.035156 0.125 2.539062 0.0234375 2 -0.171875 L 1.078125 0.15625 L 0.859375 -0.015625 L 0.953125 -2.53125 L 0.875 -9.171875 L 2.625 -9.296875 L 2.578125 -5.28125 L 2.65625 -5.28125 C 2.894531 -5.519531 3.128906 -5.710938 3.359375 -5.859375 C 3.585938 -6.003906 3.847656 -6.128906 4.140625 -6.234375 Z M 3.484375 -1.015625 C 3.921875 -1.015625 4.265625 -1.171875 4.515625 -1.484375 C 4.765625 -1.804688 4.890625 -2.296875 4.890625 -2.953125 C 4.890625 -3.566406 4.789062 -4.03125 4.59375 -4.34375 C 4.394531 -4.664062 4.097656 -4.828125 3.703125 -4.828125 C 3.335938 -4.828125 2.957031 -4.640625 2.5625 -4.265625 L 2.53125 -2.75 L 2.5625 -1.265625 C 2.882812 -1.097656 3.191406 -1.015625 3.484375 -1.015625 Z M 3.484375 -1.015625 "/></g></g><g style="fill:#004e7a;fill-opacity:1;"><g transform="translate(255.776541, 270.9125)"><path style="stroke:none" d="M 2.53125 -2.71875 L 2.625 0 L 0.859375 0 L 0.953125 -2.5625 L 0.875 -9.171875 L 2.640625 -9.296875 Z M 2.53125 -2.71875 "/></g></g><g style="fill:#004e7a;fill-opacity:1;"><g transform="translate(263.425278, 270.9125)"><path style="stroke:none" d="M 5.578125 -2.859375 L 2 -2.828125 C 2.082031 -1.722656 2.644531 -1.171875 3.6875 -1.171875 C 4.226562 -1.171875 4.835938 -1.328125 5.515625 -1.640625 L 5.65625 -1.546875 L 5.390625 -0.234375 C 4.722656 0.00390625 4.09375 0.125 3.5 0.125 C 2.53125 0.125 1.769531 -0.15625 1.21875 -0.71875 C 0.664062 -1.28125 0.390625 -2.0625 0.390625 -3.0625 C 0.390625 -4.050781 0.65625 -4.832031 1.1875 -5.40625 C 1.726562 -5.988281 2.457031 -6.28125 3.375 -6.28125 C 4.164062 -6.28125 4.773438 -6.066406 5.203125 -5.640625 C 5.628906 -5.210938 5.84375 -4.613281 5.84375 -3.84375 C 5.84375 -3.632812 5.820312 -3.378906 5.78125 -3.078125 Z M 4.3125 -4.046875 C 4.3125 -4.398438 4.226562 -4.664062 4.0625 -4.84375 C 3.90625 -5.019531 3.671875 -5.109375 3.359375 -5.109375 C 3.015625 -5.109375 2.726562 -4.992188 2.5 -4.765625 C 2.269531 -4.546875 2.117188 -4.222656 2.046875 -3.796875 L 4.28125 -3.859375 Z M 4.3125 -4.046875 "/></g></g><g style="fill:#004e7a;fill-opacity:1;"><g transform="translate(273.844554, 270.9125)"><path style="stroke:none" d=""/></g></g><g style="fill:#004e7a;fill-opacity:1;"><g transform="translate(280.008607, 270.9125)"><path style="stroke:none" d="M 4.828125 -8.640625 C 5.753906 -8.640625 6.585938 -8.46875 7.328125 -8.125 L 6.9375 -6.5 L 6.765625 -6.484375 C 6.335938 -6.722656 5.953125 -6.898438 5.609375 -7.015625 C 5.265625 -7.128906 4.898438 -7.1875 4.515625 -7.1875 C 3.734375 -7.1875 3.160156 -6.953125 2.796875 -6.484375 C 2.429688 -6.015625 2.25 -5.242188 2.25 -4.171875 C 2.25 -3.460938 2.328125 -2.898438 2.484375 -2.484375 C 2.640625 -2.078125 2.878906 -1.773438 3.203125 -1.578125 C 3.535156 -1.390625 3.96875 -1.296875 4.5 -1.296875 C 4.6875 -1.296875 4.863281 -1.304688 5.03125 -1.328125 C 5.195312 -1.359375 5.394531 -1.410156 5.625 -1.484375 L 5.65625 -2.21875 L 5.625 -3.5625 L 7.28125 -3.6875 L 7.25 -2.484375 L 7.28125 -0.40625 C 6.226562 -0.0507812 5.253906 0.125 4.359375 0.125 C 3.035156 0.125 2.039062 -0.234375 1.375 -0.953125 C 0.707031 -1.679688 0.375 -2.722656 0.375 -4.078125 C 0.375 -5.554688 0.757812 -6.6875 1.53125 -7.46875 C 2.300781 -8.25 3.398438 -8.640625 4.828125 -8.640625 Z M 4.828125 -8.640625 "/></g></g><g style="fill:#004e7a;fill-opacity:1;"><g transform="translate(292.09815, 270.9125)"><path style="stroke:none" d="M 4.21875 -6.171875 C 4.289062 -6.171875 4.398438 -6.160156 4.546875 -6.140625 L 4.546875 -4.515625 L 4.359375 -4.453125 C 4.210938 -4.515625 4.050781 -4.546875 3.875 -4.546875 C 3.351562 -4.546875 2.890625 -4.210938 2.484375 -3.546875 L 2.484375 -2.71875 L 2.578125 0 L 0.8125 0 L 0.921875 -2.546875 L 0.828125 -6.046875 L 2.5 -6.1875 L 2.484375 -4.984375 L 2.59375 -4.984375 C 3.03125 -5.773438 3.570312 -6.171875 4.21875 -6.171875 Z M 4.21875 -6.171875 "/></g></g><g style="fill:#004e7a;fill-opacity:1;"><g transform="translate(300.873655, 270.9125)"><path style="stroke:none" d="M 3.359375 -6.28125 C 4.265625 -6.28125 4.953125 -6.015625 5.421875 -5.484375 C 5.898438 -4.953125 6.140625 -4.1875 6.140625 -3.1875 C 6.140625 -2.113281 5.882812 -1.289062 5.375 -0.71875 C 4.863281 -0.15625 4.128906 0.125 3.171875 0.125 C 2.265625 0.125 1.570312 -0.132812 1.09375 -0.65625 C 0.625 -1.1875 0.390625 -1.953125 0.390625 -2.953125 C 0.390625 -4.035156 0.644531 -4.859375 1.15625 -5.421875 C 1.664062 -5.992188 2.398438 -6.28125 3.359375 -6.28125 Z M 3.25 -5.09375 C 2.820312 -5.09375 2.515625 -4.945312 2.328125 -4.65625 C 2.140625 -4.375 2.046875 -3.921875 2.046875 -3.296875 C 2.046875 -2.484375 2.140625 -1.90625 2.328125 -1.5625 C 2.523438 -1.21875 2.84375 -1.046875 3.28125 -1.046875 C 3.707031 -1.046875 4.015625 -1.179688 4.203125 -1.453125 C 4.390625 -1.734375 4.484375 -2.191406 4.484375 -2.828125 C 4.484375 -3.640625 4.382812 -4.21875 4.1875 -4.5625 C 3.988281 -4.914062 3.675781 -5.09375 3.25 -5.09375 Z M 3.25 -5.09375 "/></g></g><g style="fill:#004e7a;fill-opacity:1;"><g transform="translate(311.584571, 270.9125)"><path style="stroke:none" d="M 1.921875 -5.234375 L 2.671875 -1.78125 L 2.78125 -1.78125 L 3.703125 -5.140625 L 3.921875 -6.15625 L 5.625 -6.15625 L 5.765625 -5.234375 L 6.546875 -1.78125 L 6.65625 -1.78125 L 7.546875 -5.140625 L 7.765625 -6.15625 L 9.25 -6.15625 L 7.328125 0 L 5.671875 0 L 4.734375 -3.96875 L 4.609375 -3.96875 L 3.515625 0 L 1.78125 0 L 0.171875 -6.125 L 1.78125 -6.203125 Z M 1.921875 -5.234375 "/></g></g><g style="fill:#004e7a;fill-opacity:1;"><g transform="translate(324.999714, 270.9125)"><path style="stroke:none" d="M 3.296875 -1.296875 C 3.578125 -1.296875 3.875 -1.375 4.1875 -1.53125 L 4.328125 -1.390625 L 4.15625 -0.34375 C 3.707031 -0.113281 3.25 0.0234375 2.78125 0.078125 C 1.59375 -0.046875 1 -0.628906 1 -1.671875 L 1.0625 -2.765625 L 1.046875 -5.046875 L 0.21875 -5.046875 L 0.15625 -5.140625 L 0.25 -6.109375 L 1.03125 -6.109375 L 1.03125 -7.125 L 2.640625 -7.640625 L 2.75 -7.546875 L 2.71875 -6.109375 L 4.296875 -6.109375 L 4.34375 -6.015625 L 4.265625 -5.046875 L 2.6875 -5.046875 L 2.609375 -2.078125 C 2.609375 -1.796875 2.660156 -1.59375 2.765625 -1.46875 C 2.867188 -1.351562 3.046875 -1.296875 3.296875 -1.296875 Z M 3.296875 -1.296875 "/></g></g><g style="fill:#004e7a;fill-opacity:1;"><g transform="translate(333.642647, 270.9125)"><path style="stroke:none" d="M 4.65625 -3.84375 C 4.65625 -4.15625 4.582031 -4.394531 4.4375 -4.5625 C 4.300781 -4.738281 4.097656 -4.828125 3.828125 -4.828125 C 3.429688 -4.828125 3.007812 -4.632812 2.5625 -4.25 L 2.53125 -2.71875 L 2.625 0 L 0.859375 0 L 0.953125 -2.5625 L 0.875 -9.171875 L 2.640625 -9.296875 L 2.578125 -5.28125 L 2.65625 -5.28125 C 3.132812 -5.726562 3.664062 -6.046875 4.25 -6.234375 C 4.925781 -6.234375 5.4375 -6.082031 5.78125 -5.78125 C 6.132812 -5.476562 6.304688 -5.039062 6.296875 -4.46875 L 6.25 -2.703125 L 6.3125 0 L 4.5625 0 Z M 4.65625 -3.84375 "/></g></g><g style="fill:#004e7a;fill-opacity:1;"><g transform="translate(344.870534, 270.9125)"><path style="stroke:none" d="M 1.546875 -1.78125 C 1.828125 -1.78125 2.039062 -1.703125 2.1875 -1.546875 C 2.34375 -1.390625 2.421875 -1.171875 2.421875 -0.890625 C 2.421875 -0.585938 2.335938 -0.347656 2.171875 -0.171875 C 2.003906 0.00390625 1.773438 0.09375 1.484375 0.09375 C 1.191406 0.09375 0.96875 0.015625 0.8125 -0.140625 C 0.65625 -0.304688 0.578125 -0.535156 0.578125 -0.828125 C 0.578125 -1.117188 0.660156 -1.347656 0.828125 -1.515625 C 1.003906 -1.691406 1.242188 -1.78125 1.546875 -1.78125 Z M 1.546875 -1.78125 "/></g></g><g style="fill:#004e7a;fill-opacity:1;"><g transform="translate(158.127549, 245.315962)"><path style="stroke:none" d="M 7.640625 -14.8125 C 9.054688 -14.8125 10.332031 -14.515625 11.46875 -13.921875 L 10.921875 -11.359375 L 10.671875 -11.25 C 10.222656 -11.5625 9.722656 -11.804688 9.171875 -11.984375 C 8.628906 -12.171875 8.070312 -12.265625 7.5 -12.265625 C 5.09375 -12.265625 3.890625 -10.679688 3.890625 -7.515625 C 3.890625 -5.804688 4.203125 -4.523438 4.828125 -3.671875 C 5.453125 -2.816406 6.375 -2.390625 7.59375 -2.390625 C 8.144531 -2.390625 8.71875 -2.472656 9.3125 -2.640625 C 9.914062 -2.816406 10.460938 -3.054688 10.953125 -3.359375 L 11.21875 -3.203125 L 10.96875 -0.59375 C 9.820312 -0.0625 8.613281 0.203125 7.34375 0.203125 C 5.15625 0.203125 3.488281 -0.429688 2.34375 -1.703125 C 1.207031 -2.972656 0.640625 -4.796875 0.640625 -7.171875 C 0.640625 -9.597656 1.25 -11.476562 2.46875 -12.8125 C 3.6875 -14.144531 5.410156 -14.8125 7.640625 -14.8125 Z M 7.640625 -14.8125 "/></g></g><g style="fill:#004e7a;fill-opacity:1;"><g transform="translate(169.876052, 245.315962)"><path style="stroke:none" d="M 7.5625 -14.828125 C 9.625 -14.828125 11.210938 -14.203125 12.328125 -12.953125 C 13.441406 -11.710938 14 -9.941406 14 -7.640625 C 14 -5.117188 13.390625 -3.175781 12.171875 -1.8125 C 10.960938 -0.445312 9.253906 0.234375 7.046875 0.234375 C 4.992188 0.234375 3.410156 -0.40625 2.296875 -1.6875 C 1.191406 -2.96875 0.640625 -4.785156 0.640625 -7.140625 C 0.640625 -9.609375 1.238281 -11.503906 2.4375 -12.828125 C 3.644531 -14.160156 5.351562 -14.828125 7.5625 -14.828125 Z M 7.296875 -12.359375 C 6.078125 -12.359375 5.195312 -11.976562 4.65625 -11.21875 C 4.113281 -10.46875 3.84375 -9.234375 3.84375 -7.515625 C 3.84375 -5.566406 4.109375 -4.175781 4.640625 -3.34375 C 5.179688 -2.507812 6.070312 -2.09375 7.3125 -2.09375 C 8.53125 -2.09375 9.410156 -2.472656 9.953125 -3.234375 C 10.492188 -4.003906 10.765625 -5.257812 10.765625 -7 C 10.765625 -8.914062 10.492188 -10.285156 9.953125 -11.109375 C 9.421875 -11.941406 8.535156 -12.359375 7.296875 -12.359375 Z M 7.296875 -12.359375 "/></g></g><g style="fill:#004e7a;fill-opacity:1;"><g transform="translate(184.487829, 245.315962)"><path style="stroke:none" d="M 13.859375 -4.515625 L 13.96875 0 L 10.65625 0 L 4.6875 -9.90625 L 4.5 -9.90625 L 4.46875 -5.046875 L 4.5625 0 L 1.765625 0 L 1.9375 -4.3125 L 1.796875 -14.625 L 5.09375 -14.625 L 11.0625 -4.71875 L 11.265625 -4.71875 L 11.203125 -14.5 L 14.046875 -14.671875 Z M 13.859375 -4.515625 "/></g></g><g style="fill:#004e7a;fill-opacity:1;"><g transform="translate(200.281272, 245.315962)"><path style="stroke:none" d="M 6.46875 -14.8125 C 7.71875 -14.8125 8.953125 -14.5625 10.171875 -14.0625 L 9.671875 -11.40625 L 9.21875 -11.21875 C 8.707031 -11.582031 8.175781 -11.867188 7.625 -12.078125 C 7.070312 -12.296875 6.566406 -12.40625 6.109375 -12.40625 C 5.503906 -12.40625 5.019531 -12.238281 4.65625 -11.90625 C 4.289062 -11.582031 4.109375 -11.210938 4.109375 -10.796875 C 4.109375 -10.347656 4.304688 -9.972656 4.703125 -9.671875 C 5.109375 -9.367188 5.742188 -9.015625 6.609375 -8.609375 C 7.441406 -8.234375 8.117188 -7.878906 8.640625 -7.546875 C 9.160156 -7.222656 9.609375 -6.796875 9.984375 -6.265625 C 10.359375 -5.734375 10.546875 -5.082031 10.546875 -4.3125 C 10.546875 -3.476562 10.316406 -2.71875 9.859375 -2.03125 C 9.398438 -1.34375 8.753906 -0.796875 7.921875 -0.390625 C 7.085938 0.00390625 6.128906 0.203125 5.046875 0.203125 C 3.609375 0.203125 2.160156 -0.109375 0.703125 -0.734375 L 1.140625 -3.59375 L 1.484375 -3.765625 C 2.085938 -3.234375 2.75 -2.828125 3.46875 -2.546875 C 4.1875 -2.273438 4.828125 -2.140625 5.390625 -2.140625 C 6.054688 -2.140625 6.570312 -2.300781 6.9375 -2.625 C 7.3125 -2.945312 7.5 -3.335938 7.5 -3.796875 C 7.5 -4.273438 7.296875 -4.664062 6.890625 -4.96875 C 6.492188 -5.28125 5.847656 -5.644531 4.953125 -6.0625 C 4.128906 -6.425781 3.460938 -6.765625 2.953125 -7.078125 C 2.441406 -7.398438 2.003906 -7.828125 1.640625 -8.359375 C 1.273438 -8.890625 1.09375 -9.535156 1.09375 -10.296875 C 1.09375 -11.140625 1.316406 -11.90625 1.765625 -12.59375 C 2.222656 -13.28125 2.859375 -13.820312 3.671875 -14.21875 C 4.492188 -14.613281 5.425781 -14.8125 6.46875 -14.8125 Z M 6.46875 -14.8125 "/></g></g><g style="fill:#004e7a;fill-opacity:1;"><g transform="translate(211.598012, 245.315962)"><path style="stroke:none" d="M 13.015625 -7.203125 L 13 -5.265625 C 13.007812 -3.523438 12.5 -2.175781 11.46875 -1.21875 C 10.4375 -0.269531 8.960938 0.203125 7.046875 0.203125 C 5.191406 0.203125 3.78125 -0.253906 2.8125 -1.171875 C 1.84375 -2.097656 1.382812 -3.425781 1.4375 -5.15625 L 1.453125 -7.265625 L 1.390625 -14.625 L 4.46875 -14.625 L 4.3125 -5.5625 C 4.300781 -4.457031 4.535156 -3.640625 5.015625 -3.109375 C 5.503906 -2.578125 6.238281 -2.3125 7.21875 -2.3125 C 9.1875 -2.3125 10.164062 -3.34375 10.15625 -5.40625 L 10 -14.625 L 13.125 -14.625 Z M 13.015625 -7.203125 "/></g></g><g style="fill:#004e7a;fill-opacity:1;"><g transform="translate(226.096165, 245.315962)"><path style="stroke:none" d="M 9.796875 -2.296875 L 9.59375 0 L 1.6875 0 L 1.84375 -4.359375 L 1.6875 -14.625 L 4.8125 -14.625 L 4.640625 -4.640625 L 4.703125 -2.546875 L 9.609375 -2.546875 Z M 9.796875 -2.296875 "/></g></g><g style="fill:#004e7a;fill-opacity:1;"><g transform="translate(235.935812, 245.315962)"><path style="stroke:none" d="M 11.109375 -14.375 L 10.921875 -12.09375 L 8.171875 -12.21875 L 7.265625 -12.21875 L 7.15625 -4.640625 L 7.296875 0 L 4.203125 0 L 4.359375 -4.359375 L 4.25 -12.21875 L 3.34375 -12.21875 L 0.546875 -12.09375 L 0.34375 -12.34375 L 0.546875 -14.625 L 10.921875 -14.625 Z M 11.109375 -14.375 "/></g></g><g style="fill:#004e7a;fill-opacity:1;"><g transform="translate(247.366175, 245.315962)"><path style="stroke:none" d="M 13.265625 0 L 10.125 0 L 9.765625 -1.90625 L 9.375 -3.265625 L 6.515625 -3.34375 L 4 -3.265625 L 3.609375 -2.0625 L 3.21875 0 L 0.1875 0 L 5.140625 -14.625 L 8.796875 -14.625 Z M 8.71875 -5.65625 L 7 -11.75 L 6.796875 -11.75 L 4.796875 -5.65625 L 6.75 -5.609375 Z M 8.71875 -5.65625 "/></g></g><g style="fill:#004e7a;fill-opacity:1;"><g transform="translate(261.000802, 245.315962)"><path style="stroke:none" d="M 13.859375 -4.515625 L 13.96875 0 L 10.65625 0 L 4.6875 -9.90625 L 4.5 -9.90625 L 4.46875 -5.046875 L 4.5625 0 L 1.765625 0 L 1.9375 -4.3125 L 1.796875 -14.625 L 5.09375 -14.625 L 11.0625 -4.71875 L 11.265625 -4.71875 L 11.203125 -14.5 L 14.046875 -14.671875 Z M 13.859375 -4.515625 "/></g></g><g style="fill:#004e7a;fill-opacity:1;"><g transform="translate(276.794245, 245.315962)"><path style="stroke:none" d="M 7.640625 -14.8125 C 9.054688 -14.8125 10.332031 -14.515625 11.46875 -13.921875 L 10.921875 -11.359375 L 10.671875 -11.25 C 10.222656 -11.5625 9.722656 -11.804688 9.171875 -11.984375 C 8.628906 -12.171875 8.070312 -12.265625 7.5 -12.265625 C 5.09375 -12.265625 3.890625 -10.679688 3.890625 -7.515625 C 3.890625 -5.804688 4.203125 -4.523438 4.828125 -3.671875 C 5.453125 -2.816406 6.375 -2.390625 7.59375 -2.390625 C 8.144531 -2.390625 8.71875 -2.472656 9.3125 -2.640625 C 9.914062 -2.816406 10.460938 -3.054688 10.953125 -3.359375 L 11.21875 -3.203125 L 10.96875 -0.59375 C 9.820312 -0.0625 8.613281 0.203125 7.34375 0.203125 C 5.15625 0.203125 3.488281 -0.429688 2.34375 -1.703125 C 1.207031 -2.972656 0.640625 -4.796875 0.640625 -7.171875 C 0.640625 -9.597656 1.25 -11.476562 2.46875 -12.8125 C 3.6875 -14.144531 5.410156 -14.8125 7.640625 -14.8125 Z M 7.640625 -14.8125 "/></g></g><g style="fill:#004e7a;fill-opacity:1;"><g transform="translate(288.542748, 245.315962)"><path style="stroke:none" d="M 7.5625 -4.0625 L 7.703125 0 L 4.640625 0 L 4.765625 -4.0625 L 4.75 -4.9375 L 0.09375 -14.625 L 3.359375 -14.625 L 3.6875 -13.609375 L 6.15625 -8.046875 L 6.359375 -8.046875 L 9.140625 -13.515625 L 9.5625 -14.625 L 12.71875 -14.625 L 7.609375 -5.046875 Z M 7.5625 -4.0625 "/></g></g></g></svg>