<svg xmlns="http://www.w3.org/2000/svg" xmlns:xlink="http://www.w3.org/1999/xlink" width="794" zoomAndPan="magnify" viewBox="0 0 595.5 84.749999" height="113" preserveAspectRatio="xMidYMid meet" version="1.2"><defs><clipPath id="6b50c64693"><path d="M 2 0 L 594 0 L 594 84.5 L 2 84.5 Z M 2 0 "/></clipPath><clipPath id="44ab765a91"><path d="M 2.121094 0 L 593.628906 0 L 593.628906 84.214844 L 2.121094 84.214844 Z M 2.121094 0 "/></clipPath><filter x="0%" y="0%" width="100%" filterUnits="objectBoundingBox" id="736a517e51" height="100%"><feColorMatrix values="0 0 0 0 1 0 0 0 0 1 0 0 0 0 1 0 0 0 1 0" type="matrix" in="SourceGraphic"/></filter><clipPath id="127cad5fb7"><path d="M 2 1 L 29 1 L 29 44 L 2 44 Z M 2 1 "/></clipPath><clipPath id="72e8c3d1e6"><path d="M 29.949219 3.851562 L 6.652344 44.617188 L 0.828125 41.289062 L 24.125 0.523438 Z M 29.949219 3.851562 "/></clipPath><clipPath id="a6a4f13690"><path d="M 29.949219 3.851562 L 6.652344 44.617188 L 0.828125 41.289062 L 24.125 0.523438 Z M 29.949219 3.851562 "/></clipPath><clipPath id="48b6d52e22"><rect x="0" width="31" y="0" height="45"/></clipPath><clipPath id="ebc7191816"><path d="M 1 2 L 29 2 L 29 44 L 1 44 Z M 1 2 "/></clipPath><clipPath id="0c7fe54a32"><path d="M 23.699219 45.039062 L 0.476562 4.234375 L 6.304688 0.917969 L 29.53125 41.722656 Z M 23.699219 45.039062 "/></clipPath><clipPath id="4b8850798b"><path d="M 23.699219 45.039062 L 0.476562 4.234375 L 6.304688 0.917969 L 29.53125 41.722656 Z M 23.699219 45.039062 "/></clipPath><clipPath id="a96172597b"><rect x="0" width="30" y="0" height="46"/></clipPath><clipPath id="8a6049845d"><path d="M 0.578125 0.765625 L 47.53125 0.765625 L 47.53125 7.472656 L 0.578125 7.472656 Z M 0.578125 0.765625 "/></clipPath><clipPath id="3f05086778"><rect x="0" width="48" y="0" height="8"/></clipPath></defs><g id="713fc9a995"><g clip-rule="nonzero" clip-path="url(#6b50c64693)"><path style=" stroke:none;fill-rule:nonzero;fill:#ffffff;fill-opacity:1;" d="M 2.121094 0 L 593.628906 0 L 593.628906 84.5 L 2.121094 84.5 Z M 2.121094 0 "/></g><g clip-rule="nonzero" clip-path="url(#44ab765a91)"><path style=" stroke:none;fill-rule:nonzero;fill:#ffffff;fill-opacity:1;" d="M 2.121094 0 L 593.851562 0 L 593.851562 84.214844 L 2.121094 84.214844 Z M 2.121094 0 "/></g><g mask="url(#017d0a123d)" transform="matrix(1,0,0,1,214,13)"><g clip-path="url(#48b6d52e22)"><g clip-rule="nonzero" clip-path="url(#127cad5fb7)"><g clip-rule="nonzero" clip-path="url(#72e8c3d1e6)"><g clip-rule="nonzero" clip-path="url(#a6a4f13690)"><path style=" stroke:none;fill-rule:nonzero;fill:#004e7a;fill-opacity:1;" d="M 22.636719 3.253906 C 20.070312 7.90625 17.503906 12.558594 14.9375 17.207031 C 12.386719 21.832031 9.832031 26.460938 7.28125 31.085938 C 5.839844 33.699219 4.398438 36.308594 2.960938 38.917969 C 2.585938 39.601562 2.464844 40.445312 2.667969 41.203125 C 2.761719 41.59375 2.9375 41.933594 3.203125 42.222656 C 3.417969 42.566406 3.710938 42.832031 4.078125 43.023438 C 4.773438 43.378906 5.601562 43.558594 6.363281 43.316406 C 7.121094 43.074219 7.796875 42.613281 8.1875 41.90625 C 10.753906 37.253906 13.320312 32.605469 15.886719 27.953125 C 18.4375 23.328125 20.992188 18.699219 23.542969 14.074219 C 24.984375 11.460938 26.421875 8.851562 27.863281 6.242188 C 28.238281 5.558594 28.359375 4.714844 28.152344 3.957031 C 28.0625 3.566406 27.882812 3.226562 27.621094 2.933594 C 27.402344 2.59375 27.109375 2.328125 26.742188 2.132812 C 26.046875 1.777344 25.222656 1.597656 24.457031 1.84375 C 23.703125 2.085938 23.027344 2.542969 22.636719 3.253906 Z M 22.636719 3.253906 "/></g></g></g></g><mask id="017d0a123d"><g filter="url(#736a517e51)"><rect x="0" width="595.5" y="0" height="84.749999" style="fill:#000000;fill-opacity:0.73;stroke:none;"/></g></mask></g><g mask="url(#9a466e8682)" transform="matrix(1,0,0,1,235,12)"><g clip-path="url(#a96172597b)"><g clip-rule="nonzero" clip-path="url(#ebc7191816)"><g clip-rule="nonzero" clip-path="url(#0c7fe54a32)"><g clip-rule="nonzero" clip-path="url(#4b8850798b)"><path style=" stroke:none;fill-rule:nonzero;fill:#11676a;fill-opacity:1;" d="M 27.9375 39.046875 C 25.242188 34.472656 22.546875 29.898438 19.847656 25.320312 C 17.167969 20.765625 14.484375 16.214844 11.800781 11.664062 C 10.289062 9.09375 8.773438 6.523438 7.261719 3.957031 C 6.867188 3.285156 6.199219 2.753906 5.441406 2.542969 C 5.058594 2.421875 4.675781 2.402344 4.292969 2.480469 C 3.886719 2.496094 3.507812 2.613281 3.15625 2.828125 C 2.496094 3.246094 1.921875 3.867188 1.742188 4.648438 C 1.5625 5.421875 1.617188 6.238281 2.027344 6.9375 C 4.722656 11.511719 7.421875 16.089844 10.117188 20.664062 C 12.800781 25.21875 15.484375 29.769531 18.164062 34.324219 C 19.679688 36.890625 21.191406 39.457031 22.707031 42.027344 C 23.101562 42.699219 23.769531 43.230469 24.523438 43.441406 C 24.90625 43.558594 25.289062 43.582031 25.675781 43.503906 C 26.082031 43.488281 26.460938 43.371094 26.8125 43.152344 C 27.472656 42.738281 28.046875 42.117188 28.226562 41.335938 C 28.402344 40.5625 28.351562 39.75 27.9375 39.046875 Z M 27.9375 39.046875 "/></g></g></g></g><mask id="9a466e8682"><g filter="url(#736a517e51)"><rect x="0" width="595.5" y="0" height="84.749999" style="fill:#000000;fill-opacity:0.73;stroke:none;"/></g></mask></g><g mask="url(#3e312fd0f5)" transform="matrix(1,0,0,1,216,49)"><g clip-path="url(#3f05086778)"><g clip-rule="nonzero" clip-path="url(#8a6049845d)"><path style=" stroke:none;fill-rule:nonzero;fill:#401268;fill-opacity:1;" d="M 44.421875 0.828125 C 39.109375 0.90625 33.800781 0.988281 28.488281 1.066406 C 23.203125 1.144531 17.921875 1.226562 12.636719 1.304688 C 9.65625 1.351562 6.675781 1.394531 3.695312 1.441406 C 2.917969 1.453125 2.121094 1.769531 1.566406 2.320312 C 1.273438 2.59375 1.066406 2.917969 0.945312 3.289062 C 0.753906 3.648438 0.667969 4.035156 0.683594 4.449219 C 0.71875 5.226562 0.972656 6.035156 1.566406 6.578125 C 2.152344 7.117188 2.882812 7.472656 3.695312 7.460938 C 9.003906 7.382812 14.316406 7.300781 19.628906 7.222656 C 24.910156 7.144531 30.195312 7.0625 35.480469 6.984375 C 38.460938 6.9375 41.441406 6.894531 44.421875 6.847656 C 45.199219 6.835938 45.996094 6.519531 46.550781 5.964844 C 46.84375 5.691406 47.050781 5.371094 47.171875 4.996094 C 47.359375 4.636719 47.445312 4.25 47.429688 3.835938 C 47.394531 3.058594 47.140625 2.25 46.550781 1.707031 C 45.964844 1.171875 45.230469 0.816406 44.421875 0.828125 Z M 44.421875 0.828125 "/></g></g><mask id="3e312fd0f5"><g filter="url(#736a517e51)"><rect x="0" width="595.5" y="0" height="84.749999" style="fill:#000000;fill-opacity:0.67;stroke:none;"/></g></mask></g><g style="fill:#004e7a;fill-opacity:1;"><g transform="translate(267.779414, 39.459005)"><path style="stroke:none" d="M 13.109375 -3.046875 L 13.328125 -2.75 L 13.09375 0 L 2.125 0 L 2.3125 -5.21875 L 2.125 -17.484375 L 13.203125 -17.484375 L 13.421875 -17.1875 L 13.140625 -14.453125 L 8.96875 -14.578125 L 5.8125 -14.5625 L 5.734375 -10.34375 L 8.75 -10.296875 L 11.59375 -10.375 L 11.8125 -10.109375 L 11.5625 -7.359375 L 8.46875 -7.4375 L 5.671875 -7.40625 L 5.65625 -5.546875 L 5.734375 -2.90625 L 8.796875 -2.875 Z M 13.109375 -3.046875 "/></g></g><g style="fill:#004e7a;fill-opacity:1;"><g transform="translate(281.598288, 39.459005)"><path style="stroke:none" d="M 15.5625 -8.609375 L 15.53125 -6.296875 C 15.550781 -4.210938 14.945312 -2.597656 13.71875 -1.453125 C 12.488281 -0.316406 10.722656 0.25 8.421875 0.25 C 6.210938 0.25 4.523438 -0.300781 3.359375 -1.40625 C 2.203125 -2.507812 1.648438 -4.097656 1.703125 -6.171875 L 1.734375 -8.6875 L 1.65625 -17.484375 L 5.34375 -17.484375 L 5.15625 -6.65625 C 5.132812 -5.332031 5.414062 -4.351562 6 -3.71875 C 6.582031 -3.082031 7.460938 -2.765625 8.640625 -2.765625 C 10.992188 -2.765625 12.160156 -4 12.140625 -6.46875 L 11.953125 -17.484375 L 15.703125 -17.484375 Z M 15.5625 -8.609375 "/></g></g><g style="fill:#11676a;fill-opacity:1;"><g transform="translate(298.931044, 39.459005)"><path style="stroke:none" d="M 16.5625 -5.40625 L 16.703125 0 L 12.734375 0 L 5.59375 -11.84375 L 5.375 -11.84375 L 5.34375 -6.03125 L 5.453125 0 L 2.125 0 L 2.3125 -5.15625 L 2.140625 -17.484375 L 6.078125 -17.484375 L 13.21875 -5.65625 L 13.46875 -5.65625 L 13.390625 -17.328125 L 16.78125 -17.546875 Z M 16.5625 -5.40625 "/></g></g><g style="fill:#11676a;fill-opacity:1;"><g transform="translate(317.79965, 39.459005)"><path style="stroke:none" d="M 5.65625 -5.546875 L 5.8125 0 L 2.125 0 L 2.3125 -5.21875 L 2.125 -17.484375 L 5.859375 -17.484375 Z M 5.65625 -5.546875 "/></g></g><g style="fill:#11676a;fill-opacity:1;"><g transform="translate(325.808625, 39.459005)"><path style="stroke:none" d="M 13.28125 -17.1875 L 13.0625 -14.453125 L 9.78125 -14.609375 L 8.6875 -14.609375 L 8.546875 -5.546875 L 8.71875 0 L 5.03125 0 L 5.21875 -5.21875 L 5.078125 -14.609375 L 3.984375 -14.609375 L 0.65625 -14.453125 L 0.40625 -14.75 L 0.65625 -17.484375 L 13.0625 -17.484375 Z M 13.28125 -17.1875 "/></g></g><g style="fill:#401268;fill-opacity:1;"><g transform="translate(339.471004, 39.459005)"><path style="stroke:none" d="M 11.296875 -6.953125 C 12.710938 -4.703125 14.113281 -2.675781 15.5 -0.875 L 15.453125 -0.46875 C 14.273438 -0.0507812 13.070312 0.191406 11.84375 0.265625 L 11.453125 -0.03125 C 10.148438 -2.269531 9.09375 -4.222656 8.28125 -5.890625 L 5.65625 -5.890625 L 5.65625 -5.546875 L 5.8125 0 L 2.125 0 L 2.3125 -5.21875 L 2.125 -17.484375 L 8.828125 -17.515625 C 10.648438 -17.515625 12.0625 -17.066406 13.0625 -16.171875 C 14.0625 -15.273438 14.5625 -13.992188 14.5625 -12.328125 C 14.5625 -11.203125 14.273438 -10.171875 13.703125 -9.234375 C 13.128906 -8.304688 12.328125 -7.546875 11.296875 -6.953125 Z M 5.703125 -8.75 L 8.390625 -8.640625 C 9.929688 -9.160156 10.703125 -10.269531 10.703125 -11.96875 C 10.703125 -12.894531 10.453125 -13.585938 9.953125 -14.046875 C 9.453125 -14.515625 8.6875 -14.765625 7.65625 -14.796875 L 5.8125 -14.6875 Z M 5.703125 -8.75 "/></g></g><g style="fill:#401268;fill-opacity:1;"><g transform="translate(355.488953, 39.459005)"><path style="stroke:none" d="M 15.859375 0 L 12.109375 0 L 11.671875 -2.28125 L 11.21875 -3.90625 L 7.796875 -3.984375 L 4.78125 -3.90625 L 4.3125 -2.46875 L 3.859375 0 L 0.21875 0 L 6.140625 -17.484375 L 10.515625 -17.484375 Z M 10.421875 -6.765625 L 8.359375 -14.046875 L 8.125 -14.046875 L 5.734375 -6.765625 L 8.0625 -6.703125 Z M 10.421875 -6.765625 "/></g></g><g style="fill:#004e7a;fill-opacity:1;"><g transform="translate(209.385885, 69.285925)"><path style="stroke:none" d="M 4.265625 0 L 3.265625 0 L 3.140625 -0.609375 L 3.015625 -1.046875 L 2.09375 -1.078125 L 1.28125 -1.046875 L 1.15625 -0.671875 L 1.03125 0 L 0.0625 0 L 1.65625 -4.703125 L 2.828125 -4.703125 Z M 2.8125 -1.828125 L 2.25 -3.78125 L 2.1875 -3.78125 L 1.546875 -1.828125 L 2.171875 -1.8125 Z M 2.8125 -1.828125 "/></g></g><g style="fill:#004e7a;fill-opacity:1;"><g transform="translate(216.068758, 69.285925)"><path style="stroke:none" d="M 1.84375 -3.46875 C 2 -3.46875 2.15625 -3.453125 2.3125 -3.421875 C 2.476562 -3.390625 2.625 -3.34375 2.75 -3.28125 L 2.578125 -2.515625 L 2.5 -2.46875 C 2.25 -2.601562 2.023438 -2.671875 1.828125 -2.671875 C 1.609375 -2.671875 1.4375 -2.585938 1.3125 -2.421875 C 1.195312 -2.265625 1.140625 -2.039062 1.140625 -1.75 C 1.140625 -1.40625 1.203125 -1.140625 1.328125 -0.953125 C 1.460938 -0.773438 1.648438 -0.6875 1.890625 -0.6875 C 2.109375 -0.6875 2.351562 -0.75 2.625 -0.875 L 2.703125 -0.8125 L 2.609375 -0.0625 C 2.316406 0.03125 2.015625 0.078125 1.703125 0.078125 C 1.234375 0.078125 0.867188 -0.0703125 0.609375 -0.375 C 0.347656 -0.6875 0.21875 -1.113281 0.21875 -1.65625 C 0.21875 -2.226562 0.359375 -2.671875 0.640625 -2.984375 C 0.929688 -3.304688 1.332031 -3.46875 1.84375 -3.46875 Z M 1.84375 -3.46875 "/></g></g><g style="fill:#004e7a;fill-opacity:1;"><g transform="translate(221.179609, 69.285925)"><path style="stroke:none" d="M 1.84375 -3.46875 C 2 -3.46875 2.15625 -3.453125 2.3125 -3.421875 C 2.476562 -3.390625 2.625 -3.34375 2.75 -3.28125 L 2.578125 -2.515625 L 2.5 -2.46875 C 2.25 -2.601562 2.023438 -2.671875 1.828125 -2.671875 C 1.609375 -2.671875 1.4375 -2.585938 1.3125 -2.421875 C 1.195312 -2.265625 1.140625 -2.039062 1.140625 -1.75 C 1.140625 -1.40625 1.203125 -1.140625 1.328125 -0.953125 C 1.460938 -0.773438 1.648438 -0.6875 1.890625 -0.6875 C 2.109375 -0.6875 2.351562 -0.75 2.625 -0.875 L 2.703125 -0.8125 L 2.609375 -0.0625 C 2.316406 0.03125 2.015625 0.078125 1.703125 0.078125 C 1.234375 0.078125 0.867188 -0.0703125 0.609375 -0.375 C 0.347656 -0.6875 0.21875 -1.113281 0.21875 -1.65625 C 0.21875 -2.226562 0.359375 -2.671875 0.640625 -2.984375 C 0.929688 -3.304688 1.332031 -3.46875 1.84375 -3.46875 Z M 1.84375 -3.46875 "/></g></g><g style="fill:#004e7a;fill-opacity:1;"><g transform="translate(226.290459, 69.285925)"><path style="stroke:none" d="M 3.078125 -1.578125 L 1.109375 -1.5625 C 1.148438 -0.957031 1.457031 -0.65625 2.03125 -0.65625 C 2.332031 -0.65625 2.671875 -0.738281 3.046875 -0.90625 L 3.125 -0.859375 L 2.96875 -0.125 C 2.601562 0.0078125 2.257812 0.078125 1.9375 0.078125 C 1.394531 0.078125 0.972656 -0.078125 0.671875 -0.390625 C 0.367188 -0.703125 0.21875 -1.132812 0.21875 -1.6875 C 0.21875 -2.238281 0.363281 -2.671875 0.65625 -2.984375 C 0.957031 -3.304688 1.359375 -3.46875 1.859375 -3.46875 C 2.296875 -3.46875 2.628906 -3.347656 2.859375 -3.109375 C 3.097656 -2.867188 3.21875 -2.539062 3.21875 -2.125 C 3.21875 -2.007812 3.207031 -1.867188 3.1875 -1.703125 Z M 2.375 -2.234375 C 2.375 -2.421875 2.328125 -2.566406 2.234375 -2.671875 C 2.148438 -2.773438 2.023438 -2.828125 1.859375 -2.828125 C 1.671875 -2.828125 1.507812 -2.765625 1.375 -2.640625 C 1.25 -2.515625 1.164062 -2.332031 1.125 -2.09375 L 2.359375 -2.125 Z M 2.375 -2.234375 "/></g></g><g style="fill:#004e7a;fill-opacity:1;"><g transform="translate(232.037435, 69.285925)"><path style="stroke:none" d="M 1.59375 -3.453125 C 1.914062 -3.453125 2.222656 -3.398438 2.515625 -3.296875 L 2.390625 -2.578125 L 2.28125 -2.53125 C 2.132812 -2.625 1.988281 -2.695312 1.84375 -2.75 C 1.707031 -2.800781 1.585938 -2.828125 1.484375 -2.828125 C 1.359375 -2.828125 1.257812 -2.796875 1.1875 -2.734375 C 1.125 -2.671875 1.09375 -2.597656 1.09375 -2.515625 C 1.09375 -2.410156 1.140625 -2.328125 1.234375 -2.265625 C 1.328125 -2.203125 1.46875 -2.128906 1.65625 -2.046875 C 1.851562 -1.972656 2.015625 -1.898438 2.140625 -1.828125 C 2.265625 -1.753906 2.375 -1.648438 2.46875 -1.515625 C 2.5625 -1.390625 2.609375 -1.226562 2.609375 -1.03125 C 2.609375 -0.84375 2.554688 -0.660156 2.453125 -0.484375 C 2.347656 -0.316406 2.191406 -0.179688 1.984375 -0.078125 C 1.785156 0.0234375 1.539062 0.078125 1.25 0.078125 C 0.894531 0.078125 0.53125 0.00390625 0.15625 -0.140625 L 0.265625 -0.90625 L 0.359375 -0.96875 C 0.503906 -0.84375 0.671875 -0.738281 0.859375 -0.65625 C 1.046875 -0.582031 1.210938 -0.546875 1.359375 -0.546875 C 1.484375 -0.546875 1.582031 -0.578125 1.65625 -0.640625 C 1.726562 -0.710938 1.765625 -0.796875 1.765625 -0.890625 C 1.765625 -0.984375 1.71875 -1.0625 1.625 -1.125 C 1.539062 -1.195312 1.398438 -1.269531 1.203125 -1.34375 C 1.003906 -1.4375 0.84375 -1.515625 0.71875 -1.578125 C 0.59375 -1.648438 0.484375 -1.75 0.390625 -1.875 C 0.296875 -2.007812 0.25 -2.175781 0.25 -2.375 C 0.25 -2.695312 0.367188 -2.957031 0.609375 -3.15625 C 0.847656 -3.351562 1.175781 -3.453125 1.59375 -3.453125 Z M 1.59375 -3.453125 "/></g></g><g style="fill:#004e7a;fill-opacity:1;"><g transform="translate(237.140978, 69.285925)"><path style="stroke:none" d="M 1.59375 -3.453125 C 1.914062 -3.453125 2.222656 -3.398438 2.515625 -3.296875 L 2.390625 -2.578125 L 2.28125 -2.53125 C 2.132812 -2.625 1.988281 -2.695312 1.84375 -2.75 C 1.707031 -2.800781 1.585938 -2.828125 1.484375 -2.828125 C 1.359375 -2.828125 1.257812 -2.796875 1.1875 -2.734375 C 1.125 -2.671875 1.09375 -2.597656 1.09375 -2.515625 C 1.09375 -2.410156 1.140625 -2.328125 1.234375 -2.265625 C 1.328125 -2.203125 1.46875 -2.128906 1.65625 -2.046875 C 1.851562 -1.972656 2.015625 -1.898438 2.140625 -1.828125 C 2.265625 -1.753906 2.375 -1.648438 2.46875 -1.515625 C 2.5625 -1.390625 2.609375 -1.226562 2.609375 -1.03125 C 2.609375 -0.84375 2.554688 -0.660156 2.453125 -0.484375 C 2.347656 -0.316406 2.191406 -0.179688 1.984375 -0.078125 C 1.785156 0.0234375 1.539062 0.078125 1.25 0.078125 C 0.894531 0.078125 0.53125 0.00390625 0.15625 -0.140625 L 0.265625 -0.90625 L 0.359375 -0.96875 C 0.503906 -0.84375 0.671875 -0.738281 0.859375 -0.65625 C 1.046875 -0.582031 1.210938 -0.546875 1.359375 -0.546875 C 1.484375 -0.546875 1.582031 -0.578125 1.65625 -0.640625 C 1.726562 -0.710938 1.765625 -0.796875 1.765625 -0.890625 C 1.765625 -0.984375 1.71875 -1.0625 1.625 -1.125 C 1.539062 -1.195312 1.398438 -1.269531 1.203125 -1.34375 C 1.003906 -1.4375 0.84375 -1.515625 0.71875 -1.578125 C 0.59375 -1.648438 0.484375 -1.75 0.390625 -1.875 C 0.296875 -2.007812 0.25 -2.175781 0.25 -2.375 C 0.25 -2.695312 0.367188 -2.957031 0.609375 -3.15625 C 0.847656 -3.351562 1.175781 -3.453125 1.59375 -3.453125 Z M 1.59375 -3.453125 "/></g></g><g style="fill:#004e7a;fill-opacity:1;"><g transform="translate(242.24452, 69.285925)"><path style="stroke:none" d="M 0.859375 -0.984375 C 1.003906 -0.984375 1.117188 -0.9375 1.203125 -0.84375 C 1.296875 -0.757812 1.34375 -0.640625 1.34375 -0.484375 C 1.34375 -0.316406 1.296875 -0.1875 1.203125 -0.09375 C 1.109375 0 0.976562 0.046875 0.8125 0.046875 C 0.65625 0.046875 0.535156 0.00390625 0.453125 -0.078125 C 0.367188 -0.171875 0.328125 -0.296875 0.328125 -0.453125 C 0.328125 -0.609375 0.375 -0.734375 0.46875 -0.828125 C 0.5625 -0.929688 0.691406 -0.984375 0.859375 -0.984375 Z M 0.859375 -0.984375 "/></g></g><g style="fill:#004e7a;fill-opacity:1;"><g transform="translate(246.214748, 69.285925)"><path style="stroke:none" d=""/></g></g><g style="fill:#004e7a;fill-opacity:1;"><g transform="translate(249.614665, 69.285925)"><path style="stroke:none" d="M 3.578125 -4.625 L 3.515625 -3.890625 L 2.625 -3.9375 L 2.34375 -3.9375 L 2.296875 -1.484375 L 2.34375 0 L 1.359375 0 L 1.40625 -1.40625 L 1.375 -3.9375 L 1.078125 -3.9375 L 0.171875 -3.890625 L 0.109375 -3.96875 L 0.171875 -4.703125 L 3.515625 -4.703125 Z M 3.578125 -4.625 "/></g></g><g style="fill:#004e7a;fill-opacity:1;"><g transform="translate(255.588299, 69.285925)"><path style="stroke:none" d="M 2.328125 -3.40625 C 2.367188 -3.40625 2.429688 -3.398438 2.515625 -3.390625 L 2.515625 -2.5 L 2.40625 -2.453125 C 2.320312 -2.492188 2.234375 -2.515625 2.140625 -2.515625 C 1.859375 -2.515625 1.601562 -2.328125 1.375 -1.953125 L 1.375 -1.5 L 1.421875 0 L 0.453125 0 L 0.5 -1.40625 L 0.453125 -3.328125 L 1.375 -3.421875 L 1.375 -2.75 L 1.4375 -2.75 C 1.675781 -3.1875 1.972656 -3.40625 2.328125 -3.40625 Z M 2.328125 -3.40625 "/></g></g><g style="fill:#004e7a;fill-opacity:1;"><g transform="translate(260.428618, 69.285925)"><path style="stroke:none" d="M 1.78125 -3.46875 C 2.15625 -3.46875 2.445312 -3.382812 2.65625 -3.21875 C 2.875 -3.050781 2.984375 -2.816406 2.984375 -2.515625 C 2.984375 -2.421875 2.96875 -2.140625 2.9375 -1.671875 C 2.9375 -1.535156 2.929688 -1.394531 2.921875 -1.25 C 2.910156 -1.101562 2.90625 -0.984375 2.90625 -0.890625 C 2.90625 -0.804688 2.914062 -0.75 2.9375 -0.71875 C 2.957031 -0.6875 3.003906 -0.671875 3.078125 -0.671875 C 3.117188 -0.671875 3.179688 -0.675781 3.265625 -0.6875 L 3.328125 -0.640625 L 3.25 -0.125 C 3.09375 -0.0195312 2.914062 0.0390625 2.71875 0.0625 C 2.570312 0.0390625 2.445312 -0.0078125 2.34375 -0.09375 C 2.25 -0.1875 2.1875 -0.3125 2.15625 -0.46875 L 2.09375 -0.46875 C 1.851562 -0.21875 1.601562 -0.0390625 1.34375 0.0625 C 0.988281 0.0625 0.710938 -0.0234375 0.515625 -0.203125 C 0.316406 -0.390625 0.21875 -0.640625 0.21875 -0.953125 C 0.21875 -1.191406 0.28125 -1.378906 0.40625 -1.515625 C 0.53125 -1.660156 0.71875 -1.757812 0.96875 -1.8125 L 2.09375 -2.015625 L 2.09375 -2.3125 C 2.09375 -2.632812 1.9375 -2.796875 1.625 -2.796875 C 1.46875 -2.796875 1.304688 -2.757812 1.140625 -2.6875 C 0.972656 -2.625 0.785156 -2.519531 0.578125 -2.375 L 0.5 -2.40625 L 0.390625 -3.0625 C 0.597656 -3.1875 0.820312 -3.285156 1.0625 -3.359375 C 1.300781 -3.429688 1.539062 -3.46875 1.78125 -3.46875 Z M 1.3125 -1.359375 C 1.226562 -1.335938 1.164062 -1.300781 1.125 -1.25 C 1.09375 -1.207031 1.078125 -1.140625 1.078125 -1.046875 C 1.078125 -0.921875 1.109375 -0.820312 1.171875 -0.75 C 1.242188 -0.6875 1.34375 -0.65625 1.46875 -0.65625 C 1.65625 -0.65625 1.851562 -0.765625 2.0625 -0.984375 L 2.078125 -1.53125 Z M 1.3125 -1.359375 "/></g></g><g style="fill:#004e7a;fill-opacity:1;"><g transform="translate(266.241391, 69.285925)"><path style="stroke:none" d="M 3.28125 -1.5 L 3.3125 -0.890625 C 3.3125 -0.804688 3.320312 -0.75 3.34375 -0.71875 C 3.363281 -0.6875 3.398438 -0.671875 3.453125 -0.671875 C 3.515625 -0.671875 3.582031 -0.675781 3.65625 -0.6875 L 3.71875 -0.640625 L 3.640625 -0.125 C 3.472656 -0.0195312 3.289062 0.0390625 3.09375 0.0625 C 2.945312 0.0390625 2.820312 -0.0078125 2.71875 -0.09375 C 2.613281 -0.1875 2.546875 -0.304688 2.515625 -0.453125 L 2.453125 -0.453125 C 2.210938 -0.234375 1.96875 -0.0664062 1.71875 0.046875 C 1.238281 0.046875 0.867188 -0.101562 0.609375 -0.40625 C 0.347656 -0.707031 0.21875 -1.128906 0.21875 -1.671875 C 0.21875 -2.242188 0.367188 -2.679688 0.671875 -2.984375 C 0.972656 -3.296875 1.390625 -3.453125 1.921875 -3.453125 C 2.066406 -3.453125 2.222656 -3.441406 2.390625 -3.421875 L 2.375 -5.0625 L 3.34375 -5.140625 Z M 1.859375 -2.796875 C 1.367188 -2.796875 1.125 -2.488281 1.125 -1.875 C 1.125 -1.488281 1.179688 -1.195312 1.296875 -1 C 1.421875 -0.800781 1.59375 -0.703125 1.8125 -0.703125 C 2.03125 -0.703125 2.226562 -0.804688 2.40625 -1.015625 L 2.421875 -1.40625 L 2.40625 -2.671875 C 2.207031 -2.753906 2.023438 -2.796875 1.859375 -2.796875 Z M 1.859375 -2.796875 "/></g></g><g style="fill:#004e7a;fill-opacity:1;"><g transform="translate(272.383193, 69.285925)"><path style="stroke:none" d="M 3.078125 -1.578125 L 1.109375 -1.5625 C 1.148438 -0.957031 1.457031 -0.65625 2.03125 -0.65625 C 2.332031 -0.65625 2.671875 -0.738281 3.046875 -0.90625 L 3.125 -0.859375 L 2.96875 -0.125 C 2.601562 0.0078125 2.257812 0.078125 1.9375 0.078125 C 1.394531 0.078125 0.972656 -0.078125 0.671875 -0.390625 C 0.367188 -0.703125 0.21875 -1.132812 0.21875 -1.6875 C 0.21875 -2.238281 0.363281 -2.671875 0.65625 -2.984375 C 0.957031 -3.304688 1.359375 -3.46875 1.859375 -3.46875 C 2.296875 -3.46875 2.628906 -3.347656 2.859375 -3.109375 C 3.097656 -2.867188 3.21875 -2.539062 3.21875 -2.125 C 3.21875 -2.007812 3.207031 -1.867188 3.1875 -1.703125 Z M 2.375 -2.234375 C 2.375 -2.421875 2.328125 -2.566406 2.234375 -2.671875 C 2.148438 -2.773438 2.023438 -2.828125 1.859375 -2.828125 C 1.671875 -2.828125 1.507812 -2.765625 1.375 -2.640625 C 1.25 -2.515625 1.164062 -2.332031 1.125 -2.09375 L 2.359375 -2.125 Z M 2.375 -2.234375 "/></g></g><g style="fill:#004e7a;fill-opacity:1;"><g transform="translate(278.13017, 69.285925)"><path style="stroke:none" d="M 0.859375 -0.984375 C 1.003906 -0.984375 1.117188 -0.9375 1.203125 -0.84375 C 1.296875 -0.757812 1.34375 -0.640625 1.34375 -0.484375 C 1.34375 -0.316406 1.296875 -0.1875 1.203125 -0.09375 C 1.109375 0 0.976562 0.046875 0.8125 0.046875 C 0.65625 0.046875 0.535156 0.00390625 0.453125 -0.078125 C 0.367188 -0.171875 0.328125 -0.296875 0.328125 -0.453125 C 0.328125 -0.609375 0.375 -0.734375 0.46875 -0.828125 C 0.5625 -0.929688 0.691406 -0.984375 0.859375 -0.984375 Z M 0.859375 -0.984375 "/></g></g><g style="fill:#004e7a;fill-opacity:1;"><g transform="translate(282.100398, 69.285925)"><path style="stroke:none" d=""/></g></g><g style="fill:#004e7a;fill-opacity:1;"><g transform="translate(285.500314, 69.285925)"><path style="stroke:none" d="M 2.078125 -4.765625 C 2.484375 -4.765625 2.882812 -4.6875 3.28125 -4.53125 L 3.109375 -3.671875 L 2.96875 -3.609375 C 2.800781 -3.722656 2.628906 -3.816406 2.453125 -3.890625 C 2.273438 -3.960938 2.113281 -4 1.96875 -4 C 1.769531 -4 1.613281 -3.941406 1.5 -3.828125 C 1.382812 -3.722656 1.328125 -3.601562 1.328125 -3.46875 C 1.328125 -3.332031 1.390625 -3.210938 1.515625 -3.109375 C 1.648438 -3.015625 1.851562 -2.898438 2.125 -2.765625 C 2.394531 -2.648438 2.613281 -2.539062 2.78125 -2.4375 C 2.945312 -2.332031 3.085938 -2.191406 3.203125 -2.015625 C 3.328125 -1.847656 3.390625 -1.640625 3.390625 -1.390625 C 3.390625 -1.117188 3.316406 -0.875 3.171875 -0.65625 C 3.023438 -0.4375 2.816406 -0.257812 2.546875 -0.125 C 2.285156 0 1.976562 0.0625 1.625 0.0625 C 1.15625 0.0625 0.691406 -0.0351562 0.234375 -0.234375 L 0.359375 -1.15625 L 0.46875 -1.21875 C 0.664062 -1.039062 0.878906 -0.90625 1.109375 -0.8125 C 1.347656 -0.726562 1.554688 -0.6875 1.734375 -0.6875 C 1.953125 -0.6875 2.117188 -0.738281 2.234375 -0.84375 C 2.347656 -0.945312 2.40625 -1.070312 2.40625 -1.21875 C 2.40625 -1.375 2.34375 -1.5 2.21875 -1.59375 C 2.09375 -1.695312 1.882812 -1.816406 1.59375 -1.953125 C 1.332031 -2.066406 1.117188 -2.175781 0.953125 -2.28125 C 0.785156 -2.382812 0.640625 -2.519531 0.515625 -2.6875 C 0.398438 -2.863281 0.34375 -3.070312 0.34375 -3.3125 C 0.34375 -3.582031 0.414062 -3.828125 0.5625 -4.046875 C 0.71875 -4.273438 0.925781 -4.453125 1.1875 -4.578125 C 1.445312 -4.703125 1.742188 -4.765625 2.078125 -4.765625 Z M 2.078125 -4.765625 "/></g></g><g style="fill:#004e7a;fill-opacity:1;"><g transform="translate(291.437391, 69.285925)"><path style="stroke:none" d="M 3.6875 -0.640625 L 3.609375 -0.125 C 3.421875 -0.0078125 3.234375 0.0507812 3.046875 0.0625 C 2.910156 0.03125 2.796875 -0.0234375 2.703125 -0.109375 C 2.609375 -0.191406 2.535156 -0.316406 2.484375 -0.484375 L 2.421875 -0.484375 C 2.140625 -0.210938 1.851562 -0.0351562 1.5625 0.046875 C 1.1875 0.046875 0.898438 -0.0351562 0.703125 -0.203125 C 0.515625 -0.367188 0.425781 -0.613281 0.4375 -0.9375 L 0.453125 -1.796875 L 0.40625 -3.328125 L 1.359375 -3.421875 L 1.328125 -1.25 C 1.328125 -1.082031 1.363281 -0.953125 1.4375 -0.859375 C 1.507812 -0.773438 1.617188 -0.734375 1.765625 -0.734375 C 1.972656 -0.734375 2.1875 -0.832031 2.40625 -1.03125 L 2.40625 -3.328125 L 3.328125 -3.421875 L 3.265625 -0.890625 C 3.265625 -0.804688 3.273438 -0.75 3.296875 -0.71875 C 3.328125 -0.6875 3.367188 -0.671875 3.421875 -0.671875 C 3.484375 -0.671875 3.550781 -0.675781 3.625 -0.6875 Z M 3.6875 -0.640625 "/></g></g><g style="fill:#004e7a;fill-opacity:1;"><g transform="translate(297.549945, 69.285925)"><path style="stroke:none" d="M 1.59375 -3.453125 C 1.914062 -3.453125 2.222656 -3.398438 2.515625 -3.296875 L 2.390625 -2.578125 L 2.28125 -2.53125 C 2.132812 -2.625 1.988281 -2.695312 1.84375 -2.75 C 1.707031 -2.800781 1.585938 -2.828125 1.484375 -2.828125 C 1.359375 -2.828125 1.257812 -2.796875 1.1875 -2.734375 C 1.125 -2.671875 1.09375 -2.597656 1.09375 -2.515625 C 1.09375 -2.410156 1.140625 -2.328125 1.234375 -2.265625 C 1.328125 -2.203125 1.46875 -2.128906 1.65625 -2.046875 C 1.851562 -1.972656 2.015625 -1.898438 2.140625 -1.828125 C 2.265625 -1.753906 2.375 -1.648438 2.46875 -1.515625 C 2.5625 -1.390625 2.609375 -1.226562 2.609375 -1.03125 C 2.609375 -0.84375 2.554688 -0.660156 2.453125 -0.484375 C 2.347656 -0.316406 2.191406 -0.179688 1.984375 -0.078125 C 1.785156 0.0234375 1.539062 0.078125 1.25 0.078125 C 0.894531 0.078125 0.53125 0.00390625 0.15625 -0.140625 L 0.265625 -0.90625 L 0.359375 -0.96875 C 0.503906 -0.84375 0.671875 -0.738281 0.859375 -0.65625 C 1.046875 -0.582031 1.210938 -0.546875 1.359375 -0.546875 C 1.484375 -0.546875 1.582031 -0.578125 1.65625 -0.640625 C 1.726562 -0.710938 1.765625 -0.796875 1.765625 -0.890625 C 1.765625 -0.984375 1.71875 -1.0625 1.625 -1.125 C 1.539062 -1.195312 1.398438 -1.269531 1.203125 -1.34375 C 1.003906 -1.4375 0.84375 -1.515625 0.71875 -1.578125 C 0.59375 -1.648438 0.484375 -1.75 0.390625 -1.875 C 0.296875 -2.007812 0.25 -2.175781 0.25 -2.375 C 0.25 -2.695312 0.367188 -2.957031 0.609375 -3.15625 C 0.847656 -3.351562 1.175781 -3.453125 1.59375 -3.453125 Z M 1.59375 -3.453125 "/></g></g><g style="fill:#004e7a;fill-opacity:1;"><g transform="translate(302.653487, 69.285925)"><path style="stroke:none" d="M 1.828125 -0.71875 C 1.984375 -0.71875 2.144531 -0.757812 2.3125 -0.84375 L 2.390625 -0.765625 L 2.296875 -0.1875 C 2.046875 -0.0625 1.789062 0.015625 1.53125 0.046875 C 0.875 -0.0234375 0.546875 -0.347656 0.546875 -0.921875 L 0.578125 -1.53125 L 0.578125 -2.78125 L 0.125 -2.78125 L 0.09375 -2.84375 L 0.140625 -3.375 L 0.578125 -3.375 L 0.578125 -3.9375 L 1.453125 -4.21875 L 1.515625 -4.15625 L 1.5 -3.375 L 2.375 -3.375 L 2.40625 -3.3125 L 2.359375 -2.78125 L 1.484375 -2.78125 L 1.4375 -1.140625 C 1.4375 -0.992188 1.460938 -0.882812 1.515625 -0.8125 C 1.578125 -0.75 1.679688 -0.71875 1.828125 -0.71875 Z M 1.828125 -0.71875 "/></g></g><g style="fill:#004e7a;fill-opacity:1;"><g transform="translate(307.420693, 69.285925)"><path style="stroke:none" d="M 1.78125 -3.46875 C 2.15625 -3.46875 2.445312 -3.382812 2.65625 -3.21875 C 2.875 -3.050781 2.984375 -2.816406 2.984375 -2.515625 C 2.984375 -2.421875 2.96875 -2.140625 2.9375 -1.671875 C 2.9375 -1.535156 2.929688 -1.394531 2.921875 -1.25 C 2.910156 -1.101562 2.90625 -0.984375 2.90625 -0.890625 C 2.90625 -0.804688 2.914062 -0.75 2.9375 -0.71875 C 2.957031 -0.6875 3.003906 -0.671875 3.078125 -0.671875 C 3.117188 -0.671875 3.179688 -0.675781 3.265625 -0.6875 L 3.328125 -0.640625 L 3.25 -0.125 C 3.09375 -0.0195312 2.914062 0.0390625 2.71875 0.0625 C 2.570312 0.0390625 2.445312 -0.0078125 2.34375 -0.09375 C 2.25 -0.1875 2.1875 -0.3125 2.15625 -0.46875 L 2.09375 -0.46875 C 1.851562 -0.21875 1.601562 -0.0390625 1.34375 0.0625 C 0.988281 0.0625 0.710938 -0.0234375 0.515625 -0.203125 C 0.316406 -0.390625 0.21875 -0.640625 0.21875 -0.953125 C 0.21875 -1.191406 0.28125 -1.378906 0.40625 -1.515625 C 0.53125 -1.660156 0.71875 -1.757812 0.96875 -1.8125 L 2.09375 -2.015625 L 2.09375 -2.3125 C 2.09375 -2.632812 1.9375 -2.796875 1.625 -2.796875 C 1.46875 -2.796875 1.304688 -2.757812 1.140625 -2.6875 C 0.972656 -2.625 0.785156 -2.519531 0.578125 -2.375 L 0.5 -2.40625 L 0.390625 -3.0625 C 0.597656 -3.1875 0.820312 -3.285156 1.0625 -3.359375 C 1.300781 -3.429688 1.539062 -3.46875 1.78125 -3.46875 Z M 1.3125 -1.359375 C 1.226562 -1.335938 1.164062 -1.300781 1.125 -1.25 C 1.09375 -1.207031 1.078125 -1.140625 1.078125 -1.046875 C 1.078125 -0.921875 1.109375 -0.820312 1.171875 -0.75 C 1.242188 -0.6875 1.34375 -0.65625 1.46875 -0.65625 C 1.65625 -0.65625 1.851562 -0.765625 2.0625 -0.984375 L 2.078125 -1.53125 Z M 1.3125 -1.359375 "/></g></g><g style="fill:#004e7a;fill-opacity:1;"><g transform="translate(313.233466, 69.285925)"><path style="stroke:none" d="M 0.515625 -1.40625 L 0.46875 -3.328125 L 1.4375 -3.421875 L 1.390625 -1.5 L 1.4375 0 L 0.453125 0 Z M 0.96875 -5.0625 C 1.113281 -5.0625 1.226562 -5.015625 1.3125 -4.921875 C 1.40625 -4.835938 1.453125 -4.722656 1.453125 -4.578125 C 1.453125 -4.410156 1.40625 -4.273438 1.3125 -4.171875 C 1.21875 -4.078125 1.09375 -4.03125 0.9375 -4.03125 C 0.769531 -4.03125 0.644531 -4.070312 0.5625 -4.15625 C 0.476562 -4.25 0.4375 -4.375 0.4375 -4.53125 C 0.4375 -4.695312 0.484375 -4.828125 0.578125 -4.921875 C 0.671875 -5.015625 0.800781 -5.0625 0.96875 -5.0625 Z M 0.96875 -5.0625 "/></g></g><g style="fill:#004e7a;fill-opacity:1;"><g transform="translate(317.437668, 69.285925)"><path style="stroke:none" d="M 2.53125 -2.125 C 2.539062 -2.289062 2.503906 -2.421875 2.421875 -2.515625 C 2.335938 -2.609375 2.222656 -2.65625 2.078125 -2.65625 C 1.859375 -2.65625 1.625 -2.550781 1.375 -2.34375 L 1.375 -1.5 L 1.421875 0 L 0.453125 0 L 0.5 -1.40625 L 0.453125 -3.328125 L 1.375 -3.421875 L 1.375 -2.921875 L 1.4375 -2.921875 C 1.695312 -3.160156 1.988281 -3.332031 2.3125 -3.4375 C 2.675781 -3.4375 2.957031 -3.351562 3.15625 -3.1875 C 3.351562 -3.019531 3.445312 -2.78125 3.4375 -2.46875 L 3.421875 -1.484375 L 3.453125 0 L 2.484375 0 Z M 2.53125 -2.125 "/></g></g><g style="fill:#004e7a;fill-opacity:1;"><g transform="translate(323.601403, 69.285925)"><path style="stroke:none" d="M 1.78125 -3.46875 C 2.15625 -3.46875 2.445312 -3.382812 2.65625 -3.21875 C 2.875 -3.050781 2.984375 -2.816406 2.984375 -2.515625 C 2.984375 -2.421875 2.96875 -2.140625 2.9375 -1.671875 C 2.9375 -1.535156 2.929688 -1.394531 2.921875 -1.25 C 2.910156 -1.101562 2.90625 -0.984375 2.90625 -0.890625 C 2.90625 -0.804688 2.914062 -0.75 2.9375 -0.71875 C 2.957031 -0.6875 3.003906 -0.671875 3.078125 -0.671875 C 3.117188 -0.671875 3.179688 -0.675781 3.265625 -0.6875 L 3.328125 -0.640625 L 3.25 -0.125 C 3.09375 -0.0195312 2.914062 0.0390625 2.71875 0.0625 C 2.570312 0.0390625 2.445312 -0.0078125 2.34375 -0.09375 C 2.25 -0.1875 2.1875 -0.3125 2.15625 -0.46875 L 2.09375 -0.46875 C 1.851562 -0.21875 1.601562 -0.0390625 1.34375 0.0625 C 0.988281 0.0625 0.710938 -0.0234375 0.515625 -0.203125 C 0.316406 -0.390625 0.21875 -0.640625 0.21875 -0.953125 C 0.21875 -1.191406 0.28125 -1.378906 0.40625 -1.515625 C 0.53125 -1.660156 0.71875 -1.757812 0.96875 -1.8125 L 2.09375 -2.015625 L 2.09375 -2.3125 C 2.09375 -2.632812 1.9375 -2.796875 1.625 -2.796875 C 1.46875 -2.796875 1.304688 -2.757812 1.140625 -2.6875 C 0.972656 -2.625 0.785156 -2.519531 0.578125 -2.375 L 0.5 -2.40625 L 0.390625 -3.0625 C 0.597656 -3.1875 0.820312 -3.285156 1.0625 -3.359375 C 1.300781 -3.429688 1.539062 -3.46875 1.78125 -3.46875 Z M 1.3125 -1.359375 C 1.226562 -1.335938 1.164062 -1.300781 1.125 -1.25 C 1.09375 -1.207031 1.078125 -1.140625 1.078125 -1.046875 C 1.078125 -0.921875 1.109375 -0.820312 1.171875 -0.75 C 1.242188 -0.6875 1.34375 -0.65625 1.46875 -0.65625 C 1.65625 -0.65625 1.851562 -0.765625 2.0625 -0.984375 L 2.078125 -1.53125 Z M 1.3125 -1.359375 "/></g></g><g style="fill:#004e7a;fill-opacity:1;"><g transform="translate(329.414176, 69.285925)"><path style="stroke:none" d="M 2.28125 -3.4375 C 2.707031 -3.4375 3.035156 -3.289062 3.265625 -3 C 3.492188 -2.71875 3.609375 -2.316406 3.609375 -1.796875 C 3.609375 -1.203125 3.457031 -0.738281 3.15625 -0.40625 C 2.863281 -0.0820312 2.453125 0.078125 1.921875 0.078125 C 1.671875 0.078125 1.398438 0.0195312 1.109375 -0.09375 L 0.59375 0.09375 L 0.46875 0 L 0.53125 -1.390625 L 0.484375 -5.0625 L 1.453125 -5.140625 L 1.421875 -2.921875 L 1.46875 -2.921875 C 1.601562 -3.046875 1.734375 -3.148438 1.859375 -3.234375 C 1.984375 -3.316406 2.125 -3.382812 2.28125 -3.4375 Z M 1.921875 -0.5625 C 2.160156 -0.5625 2.347656 -0.648438 2.484375 -0.828125 C 2.628906 -1.003906 2.703125 -1.269531 2.703125 -1.625 C 2.703125 -1.96875 2.644531 -2.222656 2.53125 -2.390625 C 2.425781 -2.566406 2.265625 -2.65625 2.046875 -2.65625 C 1.835938 -2.65625 1.625 -2.554688 1.40625 -2.359375 L 1.390625 -1.515625 L 1.40625 -0.6875 C 1.59375 -0.601562 1.765625 -0.5625 1.921875 -0.5625 Z M 1.921875 -0.5625 "/></g></g><g style="fill:#004e7a;fill-opacity:1;"><g transform="translate(335.534046, 69.285925)"><path style="stroke:none" d="M 1.390625 -1.5 L 1.453125 0 L 0.46875 0 L 0.53125 -1.40625 L 0.484375 -5.0625 L 1.453125 -5.140625 Z M 1.390625 -1.5 "/></g></g><g style="fill:#004e7a;fill-opacity:1;"><g transform="translate(339.752873, 69.285925)"><path style="stroke:none" d="M 3.078125 -1.578125 L 1.109375 -1.5625 C 1.148438 -0.957031 1.457031 -0.65625 2.03125 -0.65625 C 2.332031 -0.65625 2.671875 -0.738281 3.046875 -0.90625 L 3.125 -0.859375 L 2.96875 -0.125 C 2.601562 0.0078125 2.257812 0.078125 1.9375 0.078125 C 1.394531 0.078125 0.972656 -0.078125 0.671875 -0.390625 C 0.367188 -0.703125 0.21875 -1.132812 0.21875 -1.6875 C 0.21875 -2.238281 0.363281 -2.671875 0.65625 -2.984375 C 0.957031 -3.304688 1.359375 -3.46875 1.859375 -3.46875 C 2.296875 -3.46875 2.628906 -3.347656 2.859375 -3.109375 C 3.097656 -2.867188 3.21875 -2.539062 3.21875 -2.125 C 3.21875 -2.007812 3.207031 -1.867188 3.1875 -1.703125 Z M 2.375 -2.234375 C 2.375 -2.421875 2.328125 -2.566406 2.234375 -2.671875 C 2.148438 -2.773438 2.023438 -2.828125 1.859375 -2.828125 C 1.671875 -2.828125 1.507812 -2.765625 1.375 -2.640625 C 1.25 -2.515625 1.164062 -2.332031 1.125 -2.09375 L 2.359375 -2.125 Z M 2.375 -2.234375 "/></g></g><g style="fill:#004e7a;fill-opacity:1;"><g transform="translate(345.499849, 69.285925)"><path style="stroke:none" d=""/></g></g><g style="fill:#004e7a;fill-opacity:1;"><g transform="translate(348.899766, 69.285925)"><path style="stroke:none" d="M 2.65625 -4.765625 C 3.164062 -4.765625 3.628906 -4.671875 4.046875 -4.484375 L 3.828125 -3.59375 L 3.734375 -3.578125 C 3.492188 -3.710938 3.28125 -3.8125 3.09375 -3.875 C 2.90625 -3.9375 2.707031 -3.96875 2.5 -3.96875 C 2.0625 -3.96875 1.742188 -3.835938 1.546875 -3.578125 C 1.347656 -3.316406 1.25 -2.890625 1.25 -2.296875 C 1.25 -1.910156 1.289062 -1.601562 1.375 -1.375 C 1.457031 -1.144531 1.585938 -0.976562 1.765625 -0.875 C 1.953125 -0.769531 2.191406 -0.71875 2.484375 -0.71875 C 2.585938 -0.71875 2.679688 -0.722656 2.765625 -0.734375 C 2.859375 -0.753906 2.972656 -0.78125 3.109375 -0.8125 L 3.125 -1.21875 L 3.109375 -1.96875 L 4.015625 -2.03125 L 4 -1.375 L 4.015625 -0.234375 C 3.429688 -0.0351562 2.894531 0.0625 2.40625 0.0625 C 1.675781 0.0625 1.125 -0.132812 0.75 -0.53125 C 0.382812 -0.9375 0.203125 -1.507812 0.203125 -2.25 C 0.203125 -3.0625 0.414062 -3.679688 0.84375 -4.109375 C 1.269531 -4.546875 1.875 -4.765625 2.65625 -4.765625 Z M 2.65625 -4.765625 "/></g></g><g style="fill:#004e7a;fill-opacity:1;"><g transform="translate(355.568015, 69.285925)"><path style="stroke:none" d="M 2.328125 -3.40625 C 2.367188 -3.40625 2.429688 -3.398438 2.515625 -3.390625 L 2.515625 -2.5 L 2.40625 -2.453125 C 2.320312 -2.492188 2.234375 -2.515625 2.140625 -2.515625 C 1.859375 -2.515625 1.601562 -2.328125 1.375 -1.953125 L 1.375 -1.5 L 1.421875 0 L 0.453125 0 L 0.5 -1.40625 L 0.453125 -3.328125 L 1.375 -3.421875 L 1.375 -2.75 L 1.4375 -2.75 C 1.675781 -3.1875 1.972656 -3.40625 2.328125 -3.40625 Z M 2.328125 -3.40625 "/></g></g><g style="fill:#004e7a;fill-opacity:1;"><g transform="translate(360.408334, 69.285925)"><path style="stroke:none" d="M 1.859375 -3.46875 C 2.359375 -3.46875 2.738281 -3.320312 3 -3.03125 C 3.257812 -2.738281 3.390625 -2.316406 3.390625 -1.765625 C 3.390625 -1.171875 3.25 -0.710938 2.96875 -0.390625 C 2.6875 -0.078125 2.28125 0.078125 1.75 0.078125 C 1.25 0.078125 0.867188 -0.0664062 0.609375 -0.359375 C 0.347656 -0.648438 0.21875 -1.070312 0.21875 -1.625 C 0.21875 -2.21875 0.359375 -2.671875 0.640625 -2.984375 C 0.921875 -3.304688 1.328125 -3.46875 1.859375 -3.46875 Z M 1.796875 -2.8125 C 1.554688 -2.8125 1.382812 -2.734375 1.28125 -2.578125 C 1.175781 -2.421875 1.125 -2.171875 1.125 -1.828125 C 1.125 -1.367188 1.175781 -1.046875 1.28125 -0.859375 C 1.394531 -0.671875 1.570312 -0.578125 1.8125 -0.578125 C 2.050781 -0.578125 2.222656 -0.648438 2.328125 -0.796875 C 2.429688 -0.953125 2.484375 -1.207031 2.484375 -1.5625 C 2.484375 -2.007812 2.425781 -2.328125 2.3125 -2.515625 C 2.207031 -2.710938 2.035156 -2.8125 1.796875 -2.8125 Z M 1.796875 -2.8125 "/></g></g><g style="fill:#004e7a;fill-opacity:1;"><g transform="translate(366.316171, 69.285925)"><path style="stroke:none" d="M 1.0625 -2.890625 L 1.484375 -0.984375 L 1.53125 -0.984375 L 2.046875 -2.84375 L 2.171875 -3.40625 L 3.109375 -3.40625 L 3.1875 -2.890625 L 3.609375 -0.984375 L 3.671875 -0.984375 L 4.171875 -2.84375 L 4.28125 -3.40625 L 5.109375 -3.40625 L 4.046875 0 L 3.125 0 L 2.609375 -2.1875 L 2.546875 -2.1875 L 1.9375 0 L 0.984375 0 L 0.09375 -3.375 L 0.984375 -3.421875 Z M 1.0625 -2.890625 "/></g></g><g style="fill:#004e7a;fill-opacity:1;"><g transform="translate(373.715583, 69.285925)"><path style="stroke:none" d="M 1.828125 -0.71875 C 1.984375 -0.71875 2.144531 -0.757812 2.3125 -0.84375 L 2.390625 -0.765625 L 2.296875 -0.1875 C 2.046875 -0.0625 1.789062 0.015625 1.53125 0.046875 C 0.875 -0.0234375 0.546875 -0.347656 0.546875 -0.921875 L 0.578125 -1.53125 L 0.578125 -2.78125 L 0.125 -2.78125 L 0.09375 -2.84375 L 0.140625 -3.375 L 0.578125 -3.375 L 0.578125 -3.9375 L 1.453125 -4.21875 L 1.515625 -4.15625 L 1.5 -3.375 L 2.375 -3.375 L 2.40625 -3.3125 L 2.359375 -2.78125 L 1.484375 -2.78125 L 1.4375 -1.140625 C 1.4375 -0.992188 1.460938 -0.882812 1.515625 -0.8125 C 1.578125 -0.75 1.679688 -0.71875 1.828125 -0.71875 Z M 1.828125 -0.71875 "/></g></g><g style="fill:#004e7a;fill-opacity:1;"><g transform="translate(378.48278, 69.285925)"><path style="stroke:none" d="M 2.5625 -2.125 C 2.570312 -2.300781 2.535156 -2.429688 2.453125 -2.515625 C 2.378906 -2.609375 2.265625 -2.65625 2.109375 -2.65625 C 1.890625 -2.65625 1.65625 -2.550781 1.40625 -2.34375 L 1.390625 -1.5 L 1.453125 0 L 0.46875 0 L 0.53125 -1.40625 L 0.484375 -5.0625 L 1.453125 -5.140625 L 1.421875 -2.921875 L 1.46875 -2.921875 C 1.726562 -3.160156 2.019531 -3.332031 2.34375 -3.4375 C 2.71875 -3.4375 3 -3.351562 3.1875 -3.1875 C 3.382812 -3.019531 3.476562 -2.78125 3.46875 -2.46875 L 3.453125 -1.484375 L 3.484375 0 L 2.515625 0 Z M 2.5625 -2.125 "/></g></g><g style="fill:#004e7a;fill-opacity:1;"><g transform="translate(384.675763, 69.285925)"><path style="stroke:none" d="M 0.859375 -0.984375 C 1.003906 -0.984375 1.117188 -0.9375 1.203125 -0.84375 C 1.296875 -0.757812 1.34375 -0.640625 1.34375 -0.484375 C 1.34375 -0.316406 1.296875 -0.1875 1.203125 -0.09375 C 1.109375 0 0.976562 0.046875 0.8125 0.046875 C 0.65625 0.046875 0.535156 0.00390625 0.453125 -0.078125 C 0.367188 -0.171875 0.328125 -0.296875 0.328125 -0.453125 C 0.328125 -0.609375 0.375 -0.734375 0.46875 -0.828125 C 0.5625 -0.929688 0.691406 -0.984375 0.859375 -0.984375 Z M 0.859375 -0.984375 "/></g></g><g style="fill:#004e7a;fill-opacity:1;"><g transform="translate(281.673603, 55.167604)"><path style="stroke:none" d="M 4.203125 -8.171875 C 4.992188 -8.171875 5.703125 -8.007812 6.328125 -7.6875 L 6.03125 -6.265625 L 5.890625 -6.203125 C 5.640625 -6.378906 5.363281 -6.515625 5.0625 -6.609375 C 4.757812 -6.710938 4.453125 -6.765625 4.140625 -6.765625 C 2.804688 -6.765625 2.140625 -5.890625 2.140625 -4.140625 C 2.140625 -3.203125 2.3125 -2.492188 2.65625 -2.015625 C 3.007812 -1.546875 3.519531 -1.3125 4.1875 -1.3125 C 4.5 -1.3125 4.816406 -1.359375 5.140625 -1.453125 C 5.472656 -1.554688 5.773438 -1.691406 6.046875 -1.859375 L 6.1875 -1.765625 L 6.046875 -0.328125 C 5.410156 -0.0351562 4.742188 0.109375 4.046875 0.109375 C 2.847656 0.109375 1.929688 -0.238281 1.296875 -0.9375 C 0.660156 -1.644531 0.34375 -2.648438 0.34375 -3.953125 C 0.34375 -5.296875 0.679688 -6.332031 1.359375 -7.0625 C 2.035156 -7.800781 2.984375 -8.171875 4.203125 -8.171875 Z M 4.203125 -8.171875 "/></g></g><g style="fill:#004e7a;fill-opacity:1;"><g transform="translate(288.153744, 55.167604)"><path style="stroke:none" d="M 4.171875 -8.1875 C 5.304688 -8.1875 6.179688 -7.835938 6.796875 -7.140625 C 7.410156 -6.453125 7.71875 -5.472656 7.71875 -4.203125 C 7.71875 -2.816406 7.382812 -1.75 6.71875 -1 C 6.050781 -0.25 5.109375 0.125 3.890625 0.125 C 2.753906 0.125 1.878906 -0.226562 1.265625 -0.9375 C 0.648438 -1.644531 0.34375 -2.644531 0.34375 -3.9375 C 0.34375 -5.300781 0.675781 -6.347656 1.34375 -7.078125 C 2.007812 -7.816406 2.953125 -8.1875 4.171875 -8.1875 Z M 4.015625 -6.8125 C 3.347656 -6.8125 2.863281 -6.601562 2.5625 -6.1875 C 2.269531 -5.769531 2.125 -5.085938 2.125 -4.140625 C 2.125 -3.066406 2.269531 -2.300781 2.5625 -1.84375 C 2.851562 -1.382812 3.34375 -1.15625 4.03125 -1.15625 C 4.695312 -1.15625 5.179688 -1.363281 5.484375 -1.78125 C 5.785156 -2.207031 5.9375 -2.898438 5.9375 -3.859375 C 5.9375 -4.921875 5.785156 -5.675781 5.484375 -6.125 C 5.191406 -6.582031 4.703125 -6.8125 4.015625 -6.8125 Z M 4.015625 -6.8125 "/></g></g><g style="fill:#004e7a;fill-opacity:1;"><g transform="translate(296.213185, 55.167604)"><path style="stroke:none" d="M 7.640625 -2.5 L 7.703125 0 L 5.875 0 L 2.578125 -5.46875 L 2.484375 -5.46875 L 2.46875 -2.78125 L 2.515625 0 L 0.984375 0 L 1.0625 -2.375 L 0.984375 -8.0625 L 2.8125 -8.0625 L 6.109375 -2.609375 L 6.21875 -2.609375 L 6.171875 -8 L 7.75 -8.09375 Z M 7.640625 -2.5 "/></g></g><g style="fill:#004e7a;fill-opacity:1;"><g transform="translate(304.924401, 55.167604)"><path style="stroke:none" d="M 3.578125 -8.171875 C 4.253906 -8.171875 4.929688 -8.03125 5.609375 -7.75 L 5.34375 -6.296875 L 5.09375 -6.1875 C 4.800781 -6.382812 4.503906 -6.539062 4.203125 -6.65625 C 3.898438 -6.78125 3.625 -6.84375 3.375 -6.84375 C 3.039062 -6.84375 2.769531 -6.75 2.5625 -6.5625 C 2.363281 -6.382812 2.265625 -6.179688 2.265625 -5.953125 C 2.265625 -5.710938 2.375 -5.507812 2.59375 -5.34375 C 2.820312 -5.175781 3.171875 -4.976562 3.640625 -4.75 C 4.097656 -4.539062 4.472656 -4.34375 4.765625 -4.15625 C 5.054688 -3.976562 5.300781 -3.742188 5.5 -3.453125 C 5.707031 -3.160156 5.8125 -2.800781 5.8125 -2.375 C 5.8125 -1.914062 5.6875 -1.492188 5.4375 -1.109375 C 5.1875 -0.734375 4.832031 -0.4375 4.375 -0.21875 C 3.914062 0 3.382812 0.109375 2.78125 0.109375 C 1.988281 0.109375 1.191406 -0.0625 0.390625 -0.40625 L 0.625 -1.984375 L 0.8125 -2.078125 C 1.144531 -1.785156 1.507812 -1.5625 1.90625 -1.40625 C 2.300781 -1.25 2.65625 -1.171875 2.96875 -1.171875 C 3.332031 -1.171875 3.617188 -1.257812 3.828125 -1.4375 C 4.035156 -1.625 4.140625 -1.84375 4.140625 -2.09375 C 4.140625 -2.363281 4.023438 -2.582031 3.796875 -2.75 C 3.578125 -2.914062 3.222656 -3.113281 2.734375 -3.34375 C 2.285156 -3.539062 1.914062 -3.726562 1.625 -3.90625 C 1.34375 -4.082031 1.097656 -4.316406 0.890625 -4.609375 C 0.691406 -4.898438 0.59375 -5.253906 0.59375 -5.671875 C 0.59375 -6.140625 0.71875 -6.5625 0.96875 -6.9375 C 1.226562 -7.320312 1.582031 -7.625 2.03125 -7.84375 C 2.476562 -8.0625 2.992188 -8.171875 3.578125 -8.171875 Z M 3.578125 -8.171875 "/></g></g><g style="fill:#004e7a;fill-opacity:1;"><g transform="translate(311.166393, 55.167604)"><path style="stroke:none" d="M 7.1875 -3.96875 L 7.171875 -2.90625 C 7.179688 -1.945312 6.898438 -1.203125 6.328125 -0.671875 C 5.753906 -0.148438 4.941406 0.109375 3.890625 0.109375 C 2.867188 0.109375 2.085938 -0.144531 1.546875 -0.65625 C 1.015625 -1.164062 0.765625 -1.894531 0.796875 -2.84375 L 0.796875 -4.015625 L 0.765625 -8.0625 L 2.46875 -8.0625 L 2.375 -3.0625 C 2.375 -2.457031 2.503906 -2.007812 2.765625 -1.71875 C 3.035156 -1.425781 3.441406 -1.28125 3.984375 -1.28125 C 5.066406 -1.28125 5.601562 -1.847656 5.59375 -2.984375 L 5.515625 -8.0625 L 7.25 -8.0625 Z M 7.1875 -3.96875 "/></g></g><g style="fill:#004e7a;fill-opacity:1;"><g transform="translate(319.163163, 55.167604)"><path style="stroke:none" d="M 5.40625 -1.265625 L 5.28125 0 L 0.921875 0 L 1.015625 -2.40625 L 0.921875 -8.0625 L 2.65625 -8.0625 L 2.5625 -2.5625 L 2.59375 -1.40625 L 5.296875 -1.40625 Z M 5.40625 -1.265625 "/></g></g><g style="fill:#004e7a;fill-opacity:1;"><g transform="translate(324.590433, 55.167604)"><path style="stroke:none" d="M 6.125 -7.9375 L 6.03125 -6.671875 L 4.515625 -6.734375 L 4.015625 -6.734375 L 3.953125 -2.5625 L 4.015625 0 L 2.3125 0 L 2.40625 -2.40625 L 2.34375 -6.734375 L 1.84375 -6.734375 L 0.296875 -6.671875 L 0.1875 -6.796875 L 0.296875 -8.0625 L 6.03125 -8.0625 Z M 6.125 -7.9375 "/></g></g><g style="fill:#004e7a;fill-opacity:1;"><g transform="translate(330.895098, 55.167604)"><path style="stroke:none" d="M 7.3125 0 L 5.59375 0 L 5.390625 -1.046875 L 5.171875 -1.796875 L 3.59375 -1.84375 L 2.203125 -1.796875 L 2 -1.140625 L 1.78125 0 L 0.09375 0 L 2.828125 -8.0625 L 4.84375 -8.0625 Z M 4.8125 -3.125 L 3.859375 -6.484375 L 3.75 -6.484375 L 2.640625 -3.125 L 3.71875 -3.09375 Z M 4.8125 -3.125 "/></g></g><g style="fill:#004e7a;fill-opacity:1;"><g transform="translate(338.415571, 55.167604)"><path style="stroke:none" d="M 7.640625 -2.5 L 7.703125 0 L 5.875 0 L 2.578125 -5.46875 L 2.484375 -5.46875 L 2.46875 -2.78125 L 2.515625 0 L 0.984375 0 L 1.0625 -2.375 L 0.984375 -8.0625 L 2.8125 -8.0625 L 6.109375 -2.609375 L 6.21875 -2.609375 L 6.171875 -8 L 7.75 -8.09375 Z M 7.640625 -2.5 "/></g></g><g style="fill:#004e7a;fill-opacity:1;"><g transform="translate(347.126786, 55.167604)"><path style="stroke:none" d="M 4.203125 -8.171875 C 4.992188 -8.171875 5.703125 -8.007812 6.328125 -7.6875 L 6.03125 -6.265625 L 5.890625 -6.203125 C 5.640625 -6.378906 5.363281 -6.515625 5.0625 -6.609375 C 4.757812 -6.710938 4.453125 -6.765625 4.140625 -6.765625 C 2.804688 -6.765625 2.140625 -5.890625 2.140625 -4.140625 C 2.140625 -3.203125 2.3125 -2.492188 2.65625 -2.015625 C 3.007812 -1.546875 3.519531 -1.3125 4.1875 -1.3125 C 4.5 -1.3125 4.816406 -1.359375 5.140625 -1.453125 C 5.472656 -1.554688 5.773438 -1.691406 6.046875 -1.859375 L 6.1875 -1.765625 L 6.046875 -0.328125 C 5.410156 -0.0351562 4.742188 0.109375 4.046875 0.109375 C 2.847656 0.109375 1.929688 -0.238281 1.296875 -0.9375 C 0.660156 -1.644531 0.34375 -2.648438 0.34375 -3.953125 C 0.34375 -5.296875 0.679688 -6.332031 1.359375 -7.0625 C 2.035156 -7.800781 2.984375 -8.171875 4.203125 -8.171875 Z M 4.203125 -8.171875 "/></g></g><g style="fill:#004e7a;fill-opacity:1;"><g transform="translate(353.606927, 55.167604)"><path style="stroke:none" d="M 4.171875 -2.25 L 4.25 0 L 2.5625 0 L 2.625 -2.25 L 2.625 -2.71875 L 0.046875 -8.0625 L 1.859375 -8.0625 L 2.03125 -7.5 L 3.390625 -4.4375 L 3.515625 -4.4375 L 5.03125 -7.453125 L 5.28125 -8.0625 L 7.015625 -8.0625 L 4.203125 -2.78125 Z M 4.171875 -2.25 "/></g></g></g></svg>